<svg xmlns="http://www.w3.org/2000/svg" viewBox="0 0 25.325 19.04089"><defs><style>.cls-1{fill:#ccc;fill-rule:evenodd;}</style></defs><title>Recurso 1</title><g id="Capa_2" data-name="Capa 2"><g id="Capa_1-2" data-name="Capa 1"><path class="cls-1" d="M25.325,13.88788a5.17624,5.17624,0,0,1-5.153,5.153c-4.0847,0-5.907-3.64477-5.907-7.918s1.2568-6.40985,3.2049-8.42071C18.4125,1.82239,21.2403,0,23.1884,0A1.92436,1.92436,0,0,1,25.325,1.88519c0,2.765-6.347,1.31971-6.6612,7.7295a4.28753,4.28753,0,0,1,2.1366-.56562A4.53846,4.53846,0,0,1,25.325,13.88788Zm-14.265,0a5.17622,5.17622,0,0,1-5.1529,5.153C1.82239,19.04089,0,15.39612,0,11.12292S1.25682,4.71307,3.2049,2.70221C4.1475,1.82239,6.9754,0,8.9234,0A1.9243,1.9243,0,0,1,11.06,1.88519c0,2.765-6.3469,1.31971-6.6611,7.7295a4.28723,4.28723,0,0,1,2.1366-.56562A4.53838,4.53838,0,0,1,11.06,13.88788Z"/></g></g></svg>