<?xml version="1.0" encoding="UTF-8"?>
<svg width="447px" height="49px" viewBox="0 0 447 49" version="1.1" xmlns="http://www.w3.org/2000/svg" xmlns:xlink="http://www.w3.org/1999/xlink">
    <!-- Generator: Sketch 49.3 (51167) - http://www.bohemiancoding.com/sketch -->
    <title>Group 3</title>
    <desc>Created with Sketch.</desc>
    <defs></defs>
    <g id="Desktop" stroke="none" stroke-width="1" fill="none" fill-rule="evenodd">
        <g id="2.2-Presupuestos-Reservar" transform="translate(-460.000000, -29.000000)">
            <g id="Group-3" transform="translate(461.000000, 30.000000)">
                <path d="M24.9425001,48 L24.9425001,37.35 L29.3825001,37.35 C29.8525025,37.35 30.2849981,37.447499 30.6800001,37.6425 C31.0750021,37.837501 31.4149987,38.0974984 31.7000001,38.4225 C31.9850015,38.7475016 32.2074993,39.112498 32.3675001,39.5175 C32.5275009,39.922502 32.6075001,40.3349979 32.6075001,40.755 C32.6075001,41.1950022 32.5325009,41.6199979 32.3825001,42.03 C32.2324994,42.440002 32.0200015,42.8049984 31.7450001,43.125 C31.4699987,43.4450016 31.140002,43.699999 30.7550001,43.89 C30.3699982,44.0800009 29.9425025,44.175 29.4725001,44.175 L26.2925001,44.175 L26.2925001,48 L24.9425001,48 Z M26.2925001,42.975 L29.3975001,42.975 C29.6775015,42.975 29.929999,42.9175006 30.1550001,42.8025 C30.3800012,42.6874994 30.5724993,42.527501 30.7325001,42.3225 C30.8925009,42.117499 31.0174997,41.8800013 31.1075001,41.61 C31.1975006,41.3399986 31.2425001,41.0550015 31.2425001,40.755 C31.2425001,40.4449984 31.1900006,40.1550013 31.0850001,39.885 C30.9799996,39.6149986 30.840001,39.380001 30.6650001,39.18 C30.4899992,38.979999 30.2850013,38.8250005 30.0500001,38.715 C29.8149989,38.6049994 29.5675014,38.55 29.3075001,38.55 L26.2925001,38.55 L26.2925001,42.975 Z M43.0675001,46.8 L43.0675001,48 L35.8375001,48 L35.8375001,37.35 L42.9325001,37.35 L42.9325001,38.55 L37.1875001,38.55 L37.1875001,42 L42.1825001,42 L42.1825001,43.125 L37.1875001,43.125 L37.1875001,46.8 L43.0675001,46.8 Z M46.4625,48 L46.4625,37.35 L50.1525,37.35 C51.0025043,37.35 51.7499968,37.4899986 52.395,37.77 C53.0400032,38.0500014 53.5774979,38.4299976 54.0075,38.91 C54.4375022,39.3900024 54.7599989,39.9524968 54.975,40.5975 C55.1900011,41.2425032 55.2975,41.9299963 55.2975,42.66 C55.2975,43.470004 55.1775012,44.2024967 54.9375,44.8575 C54.6974988,45.5125033 54.3525023,46.0724977 53.9025,46.5375 C53.4524978,47.0025023 52.9100032,47.3624987 52.275,47.6175 C51.6399968,47.8725013 50.9325039,48 50.1525,48 L46.4625,48 Z M53.9325,42.66 C53.9325,42.059997 53.8500008,41.5075025 53.685,41.0025 C53.5199992,40.4974975 53.2750016,40.0650018 52.95,39.705 C52.6249984,39.3449982 52.2275024,39.062501 51.7575,38.8575 C51.2874977,38.652499 50.752503,38.55 50.1525,38.55 L47.8125,38.55 L47.8125,46.8 L50.1525,46.8 C50.7625031,46.8 51.3049976,46.695001 51.78,46.485 C52.2550024,46.2749989 52.6499984,45.9850018 52.965,45.615 C53.2800016,45.2449981 53.5199992,44.8075025 53.685,44.3025 C53.8500008,43.7974975 53.9325,43.2500029 53.9325,42.66 Z M58.7525,48 L58.7525,37.35 L60.1025,37.35 L60.1025,48 L58.7525,48 Z M64.2024999,48 L64.2024999,37.35 L68.7624999,37.35 C69.2325023,37.35 69.664998,37.447499 70.0599999,37.6425 C70.4550019,37.837501 70.7949985,38.0974984 71.0799999,38.4225 C71.3650014,38.7475016 71.5874991,39.112498 71.7474999,39.5175 C71.9075007,39.922502 71.9874999,40.3349979 71.9874999,40.755 C71.9874999,41.1250018 71.9350005,41.4824983 71.8299999,41.8275 C71.7249994,42.1725017 71.5750009,42.4849986 71.3799999,42.765 C71.184999,43.0450014 70.9500013,43.284999 70.6749999,43.485 C70.3999986,43.685001 70.0925016,43.8299995 69.7524999,43.92 L72.3324999,48 L70.8024999,48 L68.3724999,44.175 L65.5524999,44.175 L65.5524999,48 L64.2024999,48 Z M65.5524999,42.975 L68.7774999,42.975 C69.0575013,42.975 69.3099988,42.9150006 69.5349999,42.795 C69.7600011,42.6749994 69.9524991,42.512501 70.1124999,42.3075 C70.2725007,42.102499 70.3974995,41.8650013 70.4874999,41.595 C70.5775004,41.3249986 70.6224999,41.0450014 70.6224999,40.755 C70.6224999,40.4549985 70.5700005,40.1725013 70.4649999,39.9075 C70.3599994,39.6424987 70.2200008,39.407501 70.0449999,39.2025 C69.8699991,38.997499 69.6650011,38.8375006 69.4299999,38.7225 C69.1949988,38.6074994 68.9475012,38.55 68.6874999,38.55 L65.5524999,38.55 L65.5524999,42.975 Z" id="PEDIR" fill="#666666"></path>
                <path d="M0,13 L445.001124,13" id="Path-3" stroke="#ED8C04" stroke-width="2" stroke-linecap="round"></path>
                <path d="M0,13 L213.190056,13" id="Path-3" stroke="#ED8C04" stroke-width="2" stroke-linecap="round"></path>
                <g id="Group-2" transform="translate(30.000000, 0.000000)">
                    <circle id="Oval-4" stroke="#ED8C04" stroke-width="2" fill="#ED8C04" cx="13.5" cy="13.5" r="13.5"></circle>
                    <path d="M20.3510457,5.38163476 C20.1077949,5.13729276 19.7777135,5 19.4335135,5 C19.0893135,5 18.7592321,5.13729276 18.5159814,5.38163476 L7.38035326,14.7027698 C7.13683175,14.9468401 7,15.2780336 7,15.6233933 C7,15.968753 7.13683175,16.2999465 7.38035326,16.5440168 L12.4640649,21.6426879 C12.9719835,22.1435148 13.7873717,22.1397101 14.2906259,21.6341649 C14.7938801,21.1286196 14.7967111,20.3104802 14.2969677,19.8014409 L10.1318689,15.622309 L20.3510457,7.22288179 C20.5945672,6.97881147 20.7313989,6.64761798 20.7313989,6.30225827 C20.7313989,5.95689856 20.5945672,5.62570507 20.3510457,5.38163476 Z" id="Shape" fill="#FFFFFF" fill-rule="nonzero" transform="translate(13.865699, 13.507915) scale(-1, 1) rotate(-90.000000) translate(-13.865699, -13.507915) "></path>
                </g>
                <g id="Group" transform="translate(384.000000, 0.000000)">
                    <circle id="Oval-4" stroke="#ED8C04" stroke-width="2" fill="#FFFFFF" cx="13.5" cy="13.5" r="13.5"></circle>
                    <circle id="Oval-4" fill="#ED8C04" cx="13.5" cy="13.5" r="5.78571429"></circle>
                </g>
            </g>
        </g>
    </g>
</svg>