<?xml version="1.0" encoding="UTF-8"?>
<svg width="447px" height="49px" viewBox="0 0 447 49" version="1.1" xmlns="http://www.w3.org/2000/svg" xmlns:xlink="http://www.w3.org/1999/xlink">
    <!-- Generator: Sketch 49.3 (51167) - http://www.bohemiancoding.com/sketch -->
    <title>Group 2</title>
    <desc>Created with Sketch.</desc>
    <defs></defs>
    <g id="Symbols" stroke="none" stroke-width="1" fill="none" fill-rule="evenodd">
        <g id="Molecules/headerweb/pedir" transform="translate(-443.000000, -13.000000)">
            <g id="Group-2" transform="translate(444.000000, 14.000000)">
                <path d="M25,48 L25,37 L29.4962656,37 C29.9842348,37 30.4348527,37.1058675 30.8481328,37.3176056 C31.2614129,37.5293438 31.6174259,37.8082142 31.9161826,38.1542254 C32.2149393,38.5002365 32.4489618,38.8927208 32.6182573,39.3316901 C32.7875527,39.7706595 32.8721992,40.2122044 32.8721992,40.656338 C32.8721992,41.1211291 32.7925319,41.5730025 32.6331951,42.0119718 C32.4738582,42.4509412 32.249794,42.8408434 31.9609959,43.1816901 C31.6721978,43.5225369 31.3236535,43.7962431 30.9153527,44.0028169 C30.5070519,44.2093907 30.0589236,44.3126761 29.5709544,44.3126761 L27.0614108,44.3126761 L27.0614108,48 L25,48 Z M27.0614108,42.4380282 L29.4514523,42.4380282 C29.8298774,42.4380282 30.1460568,42.2779359 30.4,41.9577465 C30.6539432,41.6375571 30.7809129,41.2037586 30.7809129,40.656338 C30.7809129,40.3774634 30.7410793,40.1269964 30.6614108,39.9049296 C30.5817424,39.6828627 30.4771791,39.494367 30.3477179,39.3394366 C30.2182566,39.1845063 30.0663909,39.0683102 29.8921162,38.9908451 C29.7178415,38.9133799 29.5410798,38.8746479 29.3618257,38.8746479 L27.0614108,38.8746479 L27.0614108,42.4380282 Z M43.2141079,46.1253521 L43.2141079,48 L35.8497925,48 L35.8497925,37 L43.0796681,37 L43.0796681,38.8746479 L37.9112033,38.8746479 L37.9112033,41.5239437 L42.3775934,41.5239437 L42.3775934,43.2591549 L37.9112033,43.2591549 L37.9112033,46.1253521 L43.2141079,46.1253521 Z M46.3709543,48 L46.3709543,37 L50.2248963,37 C51.0912906,37 51.8506192,37.1445995 52.5029046,37.4338028 C53.15519,37.7230061 53.7004128,38.1154905 54.1385892,38.6112676 C54.5767657,39.1070447 54.9053931,39.6880248 55.1244814,40.3542254 C55.3435696,41.0204259 55.4531121,41.7305127 55.4531121,42.484507 C55.4531121,43.3211309 55.3311216,44.0776961 55.087137,44.7542254 C54.8431523,45.4307546 54.4921185,46.0091525 54.0340249,46.4894366 C53.5759313,46.9697207 53.0257294,47.341548 52.3834025,47.6049296 C51.7410756,47.8683112 51.0215808,48 50.2248963,48 L46.3709543,48 Z M53.3767635,42.484507 C53.3767635,41.9577438 53.3070547,41.4723027 53.1676349,41.028169 C53.0282151,40.5840353 52.8240677,40.2018795 52.5551867,39.8816901 C52.2863057,39.5615007 51.9551887,39.3136159 51.5618257,39.1380282 C51.1684628,38.9624404 50.7228241,38.8746479 50.2248963,38.8746479 L48.4323651,38.8746479 L48.4323651,46.1253521 L50.2248963,46.1253521 C50.7327826,46.1253521 51.1834005,46.0323953 51.5767635,45.8464789 C51.9701265,45.6605625 52.2987539,45.4049312 52.5626556,45.0795775 C52.8265574,44.7542237 53.0282151,44.3694858 53.1676349,43.9253521 C53.3070547,43.4812184 53.3767635,43.0009415 53.3767635,42.484507 Z M58.6099585,48 L58.6099585,37 L60.6713693,37 L60.6713693,48 L58.6099585,48 Z M64.4257261,48 L64.4257261,37 L69.1161826,37 C69.6041518,37 70.0547697,37.1058675 70.4680498,37.3176056 C70.8813299,37.5293438 71.2373429,37.8082142 71.5360996,38.1542254 C71.8348563,38.5002365 72.0688788,38.8927208 72.2381743,39.3316901 C72.4074697,39.7706595 72.4921162,40.2122044 72.4921162,40.656338 C72.4921162,41.3690176 72.3203337,42.0171332 71.9767635,42.6007042 C71.6331933,43.1842752 71.1676378,43.605163 70.580083,43.8633803 L73,48 L70.6846473,48 L68.5186722,44.3126761 L66.4871369,44.3126761 L66.4871369,48 L64.4257261,48 Z M66.4871369,42.4380282 L69.0713693,42.4380282 C69.2605818,42.4380282 69.4373436,42.3915498 69.6016597,42.2985915 C69.7659759,42.2056333 69.9078832,42.0791088 70.0273859,41.9190141 C70.1468886,41.7589194 70.2414934,41.5704236 70.3112033,41.3535211 C70.3809132,41.1366186 70.4157676,40.9042266 70.4157676,40.656338 C70.4157676,40.3981208 70.375934,40.1605645 70.2962655,39.943662 C70.2165971,39.7267595 70.1095442,39.5382637 69.9751037,39.378169 C69.8406632,39.2180743 69.6863079,39.0941319 69.5120332,39.006338 C69.3377585,38.9185442 69.1609967,38.8746479 68.9817427,38.8746479 L66.4871369,38.8746479 L66.4871369,42.4380282 Z" id="PEDIR" fill="#ED8C04"></path>
                <path d="M0,13 L445,13" id="Path-3" stroke="#CCCCCC" stroke-width="2" stroke-linecap="round"></path>
                <path d="M0,13 L56.2227712,13" id="Path-3" stroke="#ED8C04" stroke-width="2" stroke-linecap="round"></path>
                <g id="Group" transform="translate(214.000000, 4.000000)">
                    <circle id="Oval-4" stroke="#CCCCCC" stroke-width="2" fill="#FFFFFF" cx="9" cy="9" r="9"></circle>
                    <circle id="Oval-4" fill="#CCCCCC" cx="9" cy="9" r="4"></circle>
                </g>
                <g id="Group" transform="translate(30.000000, 0.000000)">
                    <circle id="Oval-4" stroke="#ED8C04" stroke-width="2" fill="#FFFFFF" cx="13.5" cy="13.5" r="13.5"></circle>
                    <circle id="Oval-4" fill="#ED8C04" cx="13.5" cy="13.5" r="5.78571429"></circle>
                </g>
                <g id="Group" transform="translate(389.000000, 4.000000)">
                    <circle id="Oval-4" stroke="#CCCCCC" stroke-width="2" fill="#FFFFFF" cx="9" cy="9" r="9"></circle>
                    <circle id="Oval-4" fill="#CCCCCC" cx="9" cy="9" r="4"></circle>
                </g>
                <path d="M191,47.9083333 L191,37.0611111 L195.54261,37.0611111 C196.01082,37.0611111 196.441667,37.1604157 196.835162,37.3590278 C197.228658,37.5576399 197.567358,37.822452 197.851273,38.1534722 C198.135187,38.4844924 198.356836,38.8562479 198.516227,39.26875 C198.675618,39.6812521 198.755312,40.1013868 198.755312,40.5291667 C198.755312,40.9060204 198.703012,41.2701371 198.598412,41.6215278 C198.493812,41.9729184 198.344386,42.2912023 198.150128,42.5763889 C197.955871,42.8615755 197.72177,43.1060175 197.447817,43.3097222 C197.173864,43.5134269 196.86754,43.6611107 196.528835,43.7527778 L199.098996,47.9083333 L197.574831,47.9083333 L195.154098,44.0125 L192.344852,44.0125 L192.344852,47.9083333 L191,47.9083333 Z M192.344852,42.7902778 L195.557553,42.7902778 C195.836487,42.7902778 196.088021,42.7291673 196.312164,42.6069444 C196.536307,42.4847216 196.728071,42.319214 196.887462,42.1104167 C197.046853,41.9016193 197.171375,41.6597236 197.261032,41.3847222 C197.350689,41.1097208 197.395517,40.8245385 197.395517,40.5291667 C197.395517,40.2236096 197.343218,39.935881 197.238618,39.6659722 C197.134018,39.3960635 196.994553,39.156714 196.820219,38.9479167 C196.645886,38.7391193 196.44167,38.576158 196.207565,38.4590278 C195.97346,38.3418976 195.726906,38.2833333 195.467896,38.2833333 L192.344852,38.2833333 L192.344852,42.7902778 Z M209.563935,46.6861111 L209.563935,47.9083333 L202.361507,47.9083333 L202.361507,37.0611111 L209.42945,37.0611111 L209.42945,38.2833333 L203.706358,38.2833333 L203.706358,41.7972222 L208.68231,41.7972222 L208.68231,42.9430556 L203.706358,42.9430556 L203.706358,46.6861111 L209.563935,46.6861111 Z M212.04942,42.4083333 C212.04942,41.7564782 212.16149,41.1071792 212.385633,40.4604167 C212.609776,39.8136542 212.938514,39.2331044 213.371858,38.71875 C213.805201,38.2043956 214.335665,37.7893534 214.963266,37.4736111 C215.590866,37.1578688 216.303132,37 217.100086,37 C218.046468,37 218.858351,37.2189793 219.535762,37.6569444 C220.213172,38.0949096 220.716241,38.6652743 221.044984,39.3680556 L219.984045,40.0708333 C219.824655,39.7245353 219.632891,39.4342604 219.408748,39.2 C219.184605,38.9657396 218.940541,38.7773155 218.676551,38.6347222 C218.41256,38.4921289 218.141102,38.3902781 217.862168,38.3291667 C217.583235,38.2680553 217.309286,38.2375 217.040314,38.2375 C216.452561,38.2375 215.932059,38.3622673 215.478792,38.6118056 C215.025525,38.8613438 214.644488,39.1872665 214.335668,39.5895833 C214.026849,39.9919002 213.795238,40.4451364 213.640828,40.9493056 C213.486418,41.4534747 213.409215,41.9601826 213.409215,42.4694444 C213.409215,43.0398177 213.501361,43.5821734 213.685656,44.0965278 C213.869952,44.6108822 214.126467,45.0666647 214.455211,45.4638889 C214.783954,45.8611131 215.172463,46.1768507 215.620749,46.4111111 C216.069035,46.6453715 216.557161,46.7625 217.085143,46.7625 C217.364076,46.7625 217.650477,46.7268522 217.944354,46.6555556 C218.23823,46.5842589 218.51965,46.4696767 218.788622,46.3118056 C219.057593,46.1539344 219.309128,45.9553253 219.543233,45.7159722 C219.777338,45.4766192 219.969102,45.1888906 220.118531,44.8527778 L221.23924,45.4791667 C221.069888,45.8865761 220.833296,46.2456003 220.529458,46.55625 C220.225619,46.8668997 219.881938,47.1291656 219.498405,47.3430556 C219.114871,47.5569455 218.708929,47.7199068 218.280567,47.8319444 C217.852204,47.943982 217.43381,48 217.025372,48 C216.298152,48 215.630714,47.8370387 215.023037,47.5111111 C214.41536,47.1851836 213.889877,46.7599563 213.446572,46.2354167 C213.003267,45.710877 212.659586,45.1150496 212.415519,44.4479167 C212.171452,43.7807837 212.04942,43.1009294 212.04942,42.4083333 Z M224.471866,47.9083333 L224.471866,37.0611111 L225.816717,37.0611111 L225.816717,47.9083333 L224.471866,47.9083333 Z M238.044906,45.1125 C238.044906,45.5300947 237.962722,45.9120353 237.79835,46.2583333 C237.633978,46.6046314 237.409839,46.8999988 237.125924,47.1444444 C236.84201,47.3888901 236.513271,47.5773142 236.1397,47.7097222 C235.766128,47.8421303 235.365167,47.9083333 234.936804,47.9083333 L229.901082,47.9083333 L229.901082,37.0611111 L235.175889,37.0611111 C235.54448,37.0611111 235.878199,37.1425918 236.177057,37.3055556 C236.475914,37.4685193 236.729939,37.6798598 236.939139,37.9395833 C237.148339,38.1993069 237.310218,38.4946743 237.42478,38.8256944 C237.539342,39.1567146 237.596622,39.4902761 237.596622,39.8263889 C237.596622,40.3662064 237.464629,40.8652755 237.200638,41.3236111 C236.936647,41.7819467 236.560591,42.123147 236.072457,42.3472222 C236.680134,42.5305565 237.160789,42.8692105 237.514437,43.3631944 C237.868085,43.8571784 238.044906,44.4402744 238.044906,45.1125 Z M236.685112,44.8680556 C236.685112,44.6236099 236.642774,44.3868067 236.558098,44.1576389 C236.473422,43.9284711 236.358861,43.7273157 236.214414,43.5541667 C236.069966,43.3810177 235.898125,43.243519 235.698887,43.1416667 C235.499649,43.0398143 235.28049,42.9888889 235.041404,42.9888889 L231.245934,42.9888889 L231.245934,46.7166667 L234.936804,46.7166667 C235.185852,46.7166667 235.414973,46.6657412 235.624173,46.5638889 C235.833373,46.4620365 236.017666,46.3270842 236.177057,46.1590278 C236.336447,45.9909714 236.460969,45.7949085 236.550627,45.5708333 C236.640284,45.3467581 236.685112,45.1125012 236.685112,44.8680556 Z M231.245934,38.2527778 L231.245934,41.8736111 L234.623006,41.8736111 C234.862092,41.8736111 235.08125,41.825232 235.280489,41.7284722 C235.479727,41.6317125 235.651568,41.5018527 235.796015,41.3388889 C235.940463,41.1759251 236.055023,40.9849548 236.1397,40.7659722 C236.224376,40.5469896 236.266713,40.315279 236.266713,40.0708333 C236.266713,39.8162024 236.226866,39.576853 236.147171,39.3527778 C236.067476,39.1287026 235.960387,38.935186 235.825901,38.7722222 C235.691415,38.6092584 235.527046,38.4819449 235.332789,38.3902778 C235.138531,38.2986107 234.931825,38.2527778 234.712662,38.2527778 L231.245934,38.2527778 Z M241.471788,47.9083333 L241.471788,37.0611111 L242.816639,37.0611111 L242.816639,47.9083333 L241.471788,47.9083333 Z M246.901004,47.9083333 L246.901004,37.0611111 L251.443614,37.0611111 C251.911824,37.0611111 252.342671,37.1604157 252.736166,37.3590278 C253.129662,37.5576399 253.468362,37.822452 253.752276,38.1534722 C254.036191,38.4844924 254.25784,38.8562479 254.417231,39.26875 C254.576622,39.6812521 254.656316,40.1013868 254.656316,40.5291667 C254.656316,40.9060204 254.604016,41.2701371 254.499416,41.6215278 C254.394816,41.9729184 254.24539,42.2912023 254.051132,42.5763889 C253.856875,42.8615755 253.622774,43.1060175 253.348821,43.3097222 C253.074868,43.5134269 252.768544,43.6611107 252.429839,43.7527778 L255,47.9083333 L253.475835,47.9083333 L251.055102,44.0125 L248.245856,44.0125 L248.245856,47.9083333 L246.901004,47.9083333 Z M248.245856,42.7902778 L251.458557,42.7902778 C251.737491,42.7902778 251.989025,42.7291673 252.213168,42.6069444 C252.437311,42.4847216 252.629075,42.319214 252.788466,42.1104167 C252.947857,41.9016193 253.072379,41.6597236 253.162036,41.3847222 C253.251693,41.1097208 253.296521,40.8245385 253.296521,40.5291667 C253.296521,40.2236096 253.244222,39.935881 253.139622,39.6659722 C253.035022,39.3960635 252.895557,39.156714 252.721223,38.9479167 C252.54689,38.7391193 252.342674,38.576158 252.108569,38.4590278 C251.874464,38.3418976 251.62791,38.2833333 251.3689,38.2833333 L248.245856,38.2833333 L248.245856,42.7902778 Z" id="RECIBIR" fill="#666666"></path>
                <path d="M355,47.8933518 L355,37.0761773 L359.551433,37.0761773 C360.020552,37.0761773 360.452235,37.1752068 360.846495,37.3732687 C361.240755,37.5713306 361.580113,37.8354092 361.864578,38.1655125 C362.149044,38.4956157 362.371124,38.8663414 362.530824,39.2777008 C362.690525,39.6890602 362.770373,40.1080311 362.770373,40.534626 C362.770373,40.9104359 362.717973,41.273544 362.613169,41.6239612 C362.508366,41.9743785 362.358649,42.2917807 362.164015,42.5761773 C361.96938,42.8605739 361.734824,43.1043388 361.460339,43.3074792 C361.185855,43.5106197 360.878935,43.6578943 360.539573,43.7493075 L363.114725,47.8933518 L361.5876,47.8933518 L359.162165,44.0083102 L356.347464,44.0083102 L356.347464,47.8933518 L355,47.8933518 Z M356.347464,42.7894737 L359.566404,42.7894737 C359.84588,42.7894737 360.097903,42.7285325 360.322481,42.6066482 C360.54706,42.4847639 360.739196,42.3197148 360.898896,42.1114958 C361.058596,41.9032769 361.18336,41.6620512 361.273192,41.3878116 C361.363023,41.113572 361.407938,40.8291797 361.407938,40.534626 C361.407938,40.2299154 361.355537,39.9429838 361.250734,39.6738227 C361.145931,39.4046616 361.006195,39.1659752 360.831523,38.9577562 C360.656851,38.7495373 360.452238,38.5870274 360.217679,38.4702216 C359.983119,38.3534159 359.736086,38.2950139 359.476574,38.2950139 L356.347464,38.2950139 L356.347464,42.7894737 Z M373.599988,46.6745152 L373.599988,47.8933518 L366.383572,47.8933518 L366.383572,37.0761773 L373.465242,37.0761773 L373.465242,38.2950139 L367.731036,38.2950139 L367.731036,41.799169 L372.716651,41.799169 L372.716651,42.9418283 L367.731036,42.9418283 L367.731036,46.6745152 L373.599988,46.6745152 Z M383.231858,39.3462604 C383.112083,39.2040621 382.952385,39.0669443 382.75276,38.934903 C382.553134,38.8028618 382.328559,38.6835185 382.079028,38.5768698 C381.829496,38.4702211 381.557511,38.3838877 381.263064,38.317867 C380.968616,38.2518464 380.661697,38.2188366 380.342297,38.2188366 C379.513852,38.2188366 378.9075,38.376268 378.523221,38.6911357 C378.138942,39.0060034 377.946806,39.4376704 377.946806,39.9861496 C377.946806,40.2807032 378.001702,40.5244681 378.111496,40.7174515 C378.22129,40.9104349 378.393464,41.0754841 378.628024,41.2126039 C378.862583,41.3497237 379.154531,41.4690669 379.503875,41.5706371 C379.853219,41.6722073 380.267435,41.7788545 380.746536,41.8905817 C381.295505,42.012466 381.792066,42.1521229 382.236232,42.3095568 C382.680398,42.4669906 383.05968,42.6625104 383.37409,42.8961219 C383.6885,43.1297334 383.928046,43.4141257 384.092737,43.7493075 C384.257428,44.0844892 384.339772,44.4958424 384.339772,44.9833795 C384.339772,45.5013876 384.239961,45.9508291 384.040336,46.3317175 C383.840711,46.7126058 383.568725,47.0274687 383.224372,47.2763158 C382.880018,47.5251628 382.473288,47.7079865 382.004169,47.8247922 C381.535049,47.941598 381.026013,48 380.477043,48 C379.65858,48 378.882548,47.8704999 378.148926,47.6114958 C377.415303,47.3524918 376.749064,46.9741484 376.150188,46.4764543 L376.793976,45.3185596 C376.953676,45.4912289 377.160784,45.6638957 377.415306,45.8365651 C377.669829,46.0092345 377.959281,46.1641267 378.283672,46.3012465 C378.608063,46.4383663 378.957402,46.5500919 379.331699,46.6364266 C379.705996,46.7227613 380.097755,46.765928 380.506987,46.765928 C381.265563,46.765928 381.854448,46.6288102 382.273661,46.3545706 C382.692874,46.080331 382.902478,45.6689778 382.902478,45.1204986 C382.902478,44.815788 382.835105,44.559327 382.700358,44.351108 C382.565611,44.1428891 382.368484,43.9626046 382.108971,43.8102493 C381.849459,43.657894 381.527568,43.5233155 381.143289,43.4065097 C380.759011,43.2897039 380.322337,43.1703607 379.833255,43.0484765 C379.294267,42.9164352 378.820164,42.774239 378.410932,42.6218837 C378.001701,42.4695283 377.659848,42.2867047 377.385363,42.0734072 C377.110878,41.8601097 376.90377,41.6011096 376.764032,41.2963989 C376.624295,40.9916882 376.554427,40.6260409 376.554427,40.199446 C376.554427,39.6814379 376.649248,39.2243787 376.838891,38.8282548 C377.028535,38.432131 377.293035,38.0969543 377.632398,37.8227147 C377.971761,37.5484751 378.375996,37.3427985 378.845115,37.2056787 C379.314234,37.0685589 379.823271,37 380.37224,37 C381.090891,37 381.739664,37.1117256 382.318577,37.3351801 C382.89749,37.5586345 383.411517,37.8582622 383.860674,38.234072 L383.231858,39.3462604 Z M394.869951,46.6745152 L394.869951,47.8933518 L387.653535,47.8933518 L387.653535,37.0761773 L394.735204,37.0761773 L394.735204,38.2950139 L389.000998,38.2950139 L389.000998,41.799169 L393.986613,41.799169 L393.986613,42.9418283 L389.000998,42.9418283 L389.000998,46.6745152 L394.869951,46.6745152 Z M398.258572,47.8933518 L398.258572,37.0761773 L402.810005,37.0761773 C403.279124,37.0761773 403.710807,37.1752068 404.105067,37.3732687 C404.499327,37.5713306 404.838685,37.8354092 405.123151,38.1655125 C405.407617,38.4956157 405.629696,38.8663414 405.789396,39.2777008 C405.949097,39.6890602 406.028946,40.1080311 406.028946,40.534626 C406.028946,40.9104359 405.976545,41.273544 405.871741,41.6239612 C405.766938,41.9743785 405.617222,42.2917807 405.422587,42.5761773 C405.227952,42.8605739 404.993396,43.1043388 404.718911,43.3074792 C404.444427,43.5106197 404.137508,43.6578943 403.798145,43.7493075 L406.373297,47.8933518 L404.846172,47.8933518 L402.420737,44.0083102 L399.606036,44.0083102 L399.606036,47.8933518 L398.258572,47.8933518 Z M399.606036,42.7894737 L402.824977,42.7894737 C403.104452,42.7894737 403.356475,42.7285325 403.581053,42.6066482 C403.805632,42.4847639 403.997768,42.3197148 404.157468,42.1114958 C404.317168,41.9032769 404.441932,41.6620512 404.531764,41.3878116 C404.621595,41.113572 404.66651,40.8291797 404.66651,40.534626 C404.66651,40.2299154 404.614109,39.9429838 404.509306,39.6738227 C404.404503,39.4046616 404.264767,39.1659752 404.090095,38.9577562 C403.915423,38.7495373 403.71081,38.5870274 403.476251,38.4702216 C403.241691,38.3534159 402.994658,38.2950139 402.735146,38.2950139 L399.606036,38.2950139 L399.606036,42.7894737 Z M409.642144,37.0761773 L413.160521,46.1717452 L416.663927,37.0761773 L418.086249,37.0761773 L413.744422,47.8933518 L412.57662,47.8933518 L408.219821,37.0761773 L409.642144,37.0761773 Z M423.436179,37.0761773 L424.574037,37.0761773 L428.915864,47.8933518 L427.47857,47.8933518 L426.220937,44.7243767 L421.759335,44.7243767 L420.516674,47.8933518 L419.07938,47.8933518 L423.436179,37.0761773 Z M425.921501,43.6578947 L424.005108,38.6606648 L422.028828,43.6578947 L425.921501,43.6578947 Z M431.885275,47.8933518 L431.885275,37.0761773 L436.436707,37.0761773 C436.905827,37.0761773 437.33751,37.1752068 437.73177,37.3732687 C438.126029,37.5713306 438.465387,37.8354092 438.749853,38.1655125 C439.034319,38.4956157 439.256399,38.8663414 439.416099,39.2777008 C439.575799,39.6890602 439.655648,40.1080311 439.655648,40.534626 C439.655648,40.9104359 439.603247,41.273544 439.498444,41.6239612 C439.393641,41.9743785 439.243924,42.2917807 439.04929,42.5761773 C438.854655,42.8605739 438.620099,43.1043388 438.345614,43.3074792 C438.071129,43.5106197 437.76421,43.6578943 437.424847,43.7493075 L440,47.8933518 L438.472875,47.8933518 L436.04744,44.0083102 L433.232738,44.0083102 L433.232738,47.8933518 L431.885275,47.8933518 Z M433.232738,42.7894737 L436.451679,42.7894737 C436.731155,42.7894737 436.983178,42.7285325 437.207756,42.6066482 C437.432334,42.4847639 437.624471,42.3197148 437.784171,42.1114958 C437.943871,41.9032769 438.068635,41.6620512 438.158466,41.3878116 C438.248298,41.113572 438.293213,40.8291797 438.293213,40.534626 C438.293213,40.2299154 438.240812,39.9429838 438.136009,39.6738227 C438.031205,39.4046616 437.89147,39.1659752 437.716798,38.9577562 C437.542126,38.7495373 437.337513,38.5870274 437.102953,38.4702216 C436.868394,38.3534159 436.621361,38.2950139 436.361848,38.2950139 L433.232738,38.2950139 L433.232738,42.7894737 Z" id="RESERVAR" fill="#666666"></path>
            </g>
        </g>
    </g>
</svg>