<?xml version="1.0" encoding="utf-8"?>
<!-- Generator: Adobe Illustrator 21.1.0, SVG Export Plug-In . SVG Version: 6.00 Build 0)  -->
<svg version="1.1" id="Capa_1" xmlns="http://www.w3.org/2000/svg" xmlns:xlink="http://www.w3.org/1999/xlink" x="0px" y="0px"
	 viewBox="0 0 447 50" style="enable-background:new 0 0 447 50;" xml:space="preserve">
<style type="text/css">
	.st0{fill:#ED8C04;}
	.st1{font-family:'Raleway-Bold';}
	.st2{font-size:15px;}
	.st3{fill:#666666;}
	.st4{font-family:'Raleway-Medium';}
	.st5{fill:none;stroke:#CCCCCC;stroke-width:2;stroke-linecap:round;}
	.st6{fill:none;stroke:#ED8C04;stroke-width:2;stroke-linecap:round;}
	.st7{fill:#FFFFFF;stroke:#ED8C04;stroke-width:2;}
	.st8{fill:#FFFFFF;stroke:#CCCCCC;stroke-width:2;}
	.st9{fill:#CCCCCC;}
</style>
<title>Group 2</title>
<desc>Created with Sketch.</desc>
<text transform="matrix(1 0 0 1 26.3429 49)" class="st0 st1 st2">PEDIR</text>
<text transform="matrix(1 0 0 1 184.0227 49)" class="st3 st4 st2">RESERVAR</text>
<text transform="matrix(1 0 0 1 360.973 49)" class="st3 st4 st2">RESUMEN</text>
<path id="Path-3" class="st5" d="M1,14h445"/>
<path id="Path-3_1_" class="st6" d="M1,14h56.2"/>
<circle id="Oval-4" class="st7" cx="50.5" cy="14.5" r="13.5"/>
<circle id="Oval-4_1_" class="st8" cx="224" cy="14" r="9"/>
<circle id="Oval-4_2_" class="st9" cx="224" cy="14" r="4"/>
<circle id="Oval-4_3_" class="st8" cx="399" cy="14" r="9"/>
<circle id="Oval-4_4_" class="st9" cx="399" cy="14" r="4"/>
<path id="_x31_" class="st0" d="M53.4,16.8v1.8h-6.1v-1.8h2.1v-4.5c-0.1,0.1-0.2,0.2-0.4,0.4c-0.2,0.1-0.4,0.2-0.6,0.4
	c-0.2,0.1-0.5,0.2-0.7,0.3s-0.5,0.1-0.7,0.1v-1.9c0.2,0,0.4-0.1,0.7-0.2c0.3-0.1,0.5-0.3,0.8-0.4c0.2-0.2,0.5-0.3,0.7-0.5
	s0.3-0.3,0.4-0.4h2.1v6.8h1.7V16.8z"/>
</svg>
