<?xml version="1.0" encoding="utf-8"?>
<!-- Generator: Adobe Illustrator 21.1.0, SVG Export Plug-In . SVG Version: 6.00 Build 0)  -->
<svg version="1.1" id="Capa_1" xmlns="http://www.w3.org/2000/svg" xmlns:xlink="http://www.w3.org/1999/xlink" x="0px" y="0px"
	 viewBox="0 0 447 49" style="enable-background:new 0 0 447 49;" xml:space="preserve">
<style type="text/css">
	.st0{fill:#666666;}
	.st1{fill:none;stroke:#CCCCCC;stroke-width:2;stroke-linecap:round;}
	.st2{fill:none;stroke:#ED8C04;stroke-width:2;stroke-linecap:round;}
	.st3{fill:#FFFFFF;stroke:#CCCCCC;stroke-width:2;}
	.st4{fill:#CCCCCC;}
	.st5{fill:#ED8C04;stroke:#ED8C04;stroke-width:2;}
	.st6{fill:#FFFFFF;}
	.st7{fill:#FFFFFF;stroke:#ED8C04;stroke-width:2;}
	.st8{fill:#ED8C04;}
</style>
<title>Group 3</title>
<desc>Created with Sketch.</desc>
<g id="Symbols">
	<g id="Molecules_x2F_headerweb_x2F_reservar" transform="translate(-443.000000, -13.000000)">
		<g id="Group-3" transform="translate(444.000000, 14.000000)">
			<path id="PEDIR" class="st0" d="M24.9,48V37.3h4.4c0.5,0,0.9,0.1,1.3,0.3c0.4,0.2,0.7,0.5,1,0.8c0.3,0.3,0.5,0.7,0.7,1.1
				c0.2,0.4,0.2,0.8,0.2,1.2c0,0.4-0.1,0.9-0.2,1.3c-0.2,0.4-0.4,0.8-0.6,1.1c-0.3,0.3-0.6,0.6-1,0.8c-0.4,0.2-0.8,0.3-1.3,0.3h-3.2
				V48H24.9z M26.3,43h3.1c0.3,0,0.5-0.1,0.8-0.2c0.2-0.1,0.4-0.3,0.6-0.5c0.2-0.2,0.3-0.4,0.4-0.7s0.1-0.6,0.1-0.9
				c0-0.3-0.1-0.6-0.2-0.9c-0.1-0.3-0.2-0.5-0.4-0.7c-0.2-0.2-0.4-0.4-0.6-0.5c-0.2-0.1-0.5-0.2-0.7-0.2h-3V43z M43.1,46.8V48h-7.2
				V37.3h7.1v1.2h-5.7V42h5v1.1h-5v3.7H43.1z M46.5,48V37.3h3.7c0.9,0,1.6,0.1,2.2,0.4s1.2,0.7,1.6,1.1c0.4,0.5,0.8,1,1,1.7
				c0.2,0.6,0.3,1.3,0.3,2.1c0,0.8-0.1,1.5-0.4,2.2c-0.2,0.7-0.6,1.2-1,1.7c-0.5,0.5-1,0.8-1.6,1.1c-0.6,0.3-1.3,0.4-2.1,0.4H46.5z
				 M53.9,42.7c0-0.6-0.1-1.2-0.2-1.7c-0.2-0.5-0.4-0.9-0.7-1.3c-0.3-0.4-0.7-0.6-1.2-0.8c-0.5-0.2-1-0.3-1.6-0.3h-2.3v8.2h2.3
				c0.6,0,1.2-0.1,1.6-0.3c0.5-0.2,0.9-0.5,1.2-0.9c0.3-0.4,0.6-0.8,0.7-1.3C53.9,43.8,53.9,43.3,53.9,42.7z M58.8,48V37.3h1.4V48
				H58.8z M64.2,48V37.3h4.6c0.5,0,0.9,0.1,1.3,0.3c0.4,0.2,0.7,0.5,1,0.8c0.3,0.3,0.5,0.7,0.7,1.1c0.2,0.4,0.2,0.8,0.2,1.2
				c0,0.4-0.1,0.7-0.2,1.1c-0.1,0.3-0.3,0.7-0.5,0.9c-0.2,0.3-0.4,0.5-0.7,0.7s-0.6,0.3-0.9,0.4l2.6,4.1h-1.5l-2.4-3.8h-2.8V48H64.2
				z M65.6,43h3.2c0.3,0,0.5-0.1,0.8-0.2c0.2-0.1,0.4-0.3,0.6-0.5c0.2-0.2,0.3-0.4,0.4-0.7c0.1-0.3,0.1-0.5,0.1-0.8
				c0-0.3-0.1-0.6-0.2-0.8c-0.1-0.3-0.2-0.5-0.4-0.7c-0.2-0.2-0.4-0.4-0.6-0.5s-0.5-0.2-0.7-0.2h-3.1V43z"/>
			<path id="Path-3" class="st1" d="M0,13h445"/>
			<path id="Path-3_1_" class="st2" d="M0,13h213.2"/>
			<circle id="Oval-4" class="st3" cx="398" cy="13" r="9"/>
			<circle id="Oval-4_1_" class="st4" cx="398" cy="13" r="4"/>
			<g id="Group-2" transform="translate(30.000000, 0.000000)">
				<circle id="Oval-4_2_" class="st5" cx="13.5" cy="13.5" r="13.5"/>
				<path id="Shape" class="st6" d="M22,7c0.2,0.2,0.4,0.6,0.4,0.9S22.2,8.6,22,8.9L12.7,20c-0.2,0.2-0.6,0.4-0.9,0.4
					s-0.7-0.1-0.9-0.4l-5.1-5.1c-0.5-0.5-0.5-1.3,0-1.8c0.5-0.5,1.3-0.5,1.8,0l4.2,4.2L20.2,7c0.2-0.2,0.6-0.4,0.9-0.4
					C21.4,6.6,21.7,6.8,22,7z"/>
			</g>
			<g id="Group" transform="translate(210.000000, 0.000000)">
				<circle id="Oval-4_3_" class="st7" cx="13.5" cy="13.5" r="13.5"/>
				<circle id="Oval-4_4_" class="st8" cx="13.5" cy="13.5" r="5.8"/>
			</g>
			<path id="RECIBIR" class="st8" d="M190,47.7V37.1h4.7c0.5,0,0.9,0.1,1.4,0.3c0.4,0.2,0.8,0.5,1.1,0.8c0.3,0.3,0.5,0.7,0.7,1.1
				c0.2,0.4,0.3,0.9,0.3,1.3c0,0.7-0.2,1.3-0.5,1.9c-0.3,0.6-0.8,1-1.4,1.2l2.4,4h-2.3l-2.2-3.6h-2v3.6H190z M192.1,42.3h2.6
				c0.2,0,0.4,0,0.5-0.1c0.2-0.1,0.3-0.2,0.4-0.4c0.1-0.2,0.2-0.3,0.3-0.5c0.1-0.2,0.1-0.4,0.1-0.7c0-0.2,0-0.5-0.1-0.7
				c-0.1-0.2-0.2-0.4-0.3-0.5c-0.1-0.2-0.3-0.3-0.5-0.4c-0.2-0.1-0.4-0.1-0.5-0.1h-2.5V42.3z M208.9,45.9v1.8h-7.4V37.1h7.3v1.8
				h-5.2v2.6h4.5v1.7h-4.5v2.8H208.9z M211.2,42.3c0-0.7,0.1-1.3,0.4-1.9s0.6-1.2,1-1.7c0.4-0.5,1-0.9,1.6-1.2s1.4-0.5,2.2-0.5
				c1,0,1.8,0.2,2.5,0.6c0.7,0.4,1.2,1,1.6,1.7l-1.6,1.1c-0.1-0.3-0.3-0.6-0.5-0.8c-0.2-0.2-0.4-0.4-0.6-0.5
				c-0.2-0.1-0.5-0.2-0.7-0.3s-0.5-0.1-0.7-0.1c-0.5,0-1,0.1-1.4,0.3c-0.4,0.2-0.7,0.5-1,0.8c-0.3,0.3-0.4,0.7-0.6,1.1
				s-0.2,0.8-0.2,1.3c0,0.5,0.1,0.9,0.2,1.4c0.2,0.4,0.4,0.8,0.6,1.1c0.3,0.3,0.6,0.6,1,0.8c0.4,0.2,0.8,0.3,1.3,0.3
				c0.2,0,0.5,0,0.8-0.1c0.3-0.1,0.5-0.2,0.7-0.3s0.5-0.3,0.7-0.5c0.2-0.2,0.4-0.5,0.5-0.7l1.7,1c-0.2,0.4-0.4,0.8-0.7,1.1
				s-0.7,0.6-1.1,0.8c-0.4,0.2-0.8,0.4-1.3,0.5c-0.4,0.1-0.9,0.2-1.3,0.2c-0.8,0-1.5-0.2-2.1-0.5c-0.6-0.3-1.2-0.7-1.6-1.3
				s-0.8-1.1-1.1-1.8C211.3,43.7,211.2,43,211.2,42.3z M223.7,47.7V37.1h2.1v10.6H223.7z M238.1,45c0,0.5-0.1,0.8-0.3,1.2
				c-0.2,0.3-0.4,0.6-0.7,0.9c-0.3,0.2-0.7,0.4-1.1,0.5c-0.4,0.1-0.9,0.2-1.3,0.2h-5.1V37.1h5.7c0.4,0,0.7,0.1,1,0.2
				s0.6,0.4,0.8,0.6s0.4,0.5,0.5,0.9c0.1,0.3,0.2,0.7,0.2,1c0,0.5-0.1,1-0.4,1.5c-0.3,0.5-0.6,0.8-1.1,1c0.6,0.2,1.1,0.5,1.4,1
				C237.9,43.7,238.1,44.3,238.1,45z M236,44.6c0-0.2,0-0.4-0.1-0.5s-0.2-0.3-0.3-0.5s-0.2-0.2-0.4-0.3c-0.1-0.1-0.3-0.1-0.5-0.1
				h-3.2V46h3.1c0.2,0,0.4,0,0.5-0.1c0.2-0.1,0.3-0.2,0.4-0.3c0.1-0.1,0.2-0.3,0.3-0.4C236,44.9,236,44.8,236,44.6z M231.6,38.8v2.7
				h2.8c0.4,0,0.6-0.1,0.9-0.4c0.2-0.2,0.4-0.6,0.4-1c0-0.4-0.1-0.7-0.3-1s-0.5-0.4-0.8-0.4H231.6z M241.3,47.7V37.1h2.1v10.6H241.3
				z M247.1,47.7V37.1h4.7c0.5,0,0.9,0.1,1.4,0.3s0.8,0.5,1.1,0.8c0.3,0.3,0.5,0.7,0.7,1.1c0.2,0.4,0.3,0.9,0.3,1.3
				c0,0.7-0.2,1.3-0.5,1.9c-0.3,0.6-0.8,1-1.4,1.2l2.4,4h-2.3l-2.2-3.6h-2v3.6H247.1z M249.2,42.3h2.6c0.2,0,0.4,0,0.5-0.1
				c0.2-0.1,0.3-0.2,0.4-0.4c0.1-0.2,0.2-0.3,0.3-0.5c0.1-0.2,0.1-0.4,0.1-0.7c0-0.2,0-0.5-0.1-0.7c-0.1-0.2-0.2-0.4-0.3-0.5
				c-0.1-0.2-0.3-0.3-0.5-0.4c-0.2-0.1-0.4-0.1-0.5-0.1h-2.5V42.3z"/>
			<path id="RESERVAR" class="st0" d="M355,47.7V37.1h4.6c0.5,0,0.9,0.1,1.3,0.3c0.4,0.2,0.7,0.5,1,0.8s0.5,0.7,0.7,1.1
				c0.2,0.4,0.2,0.8,0.2,1.2c0,0.4-0.1,0.7-0.2,1.1c-0.1,0.3-0.3,0.7-0.5,0.9c-0.2,0.3-0.4,0.5-0.7,0.7s-0.6,0.3-0.9,0.4l2.6,4.1
				h-1.5l-2.4-3.8h-2.8v3.8H355z M356.4,42.7h3.2c0.3,0,0.5-0.1,0.8-0.2c0.2-0.1,0.4-0.3,0.6-0.5c0.2-0.2,0.3-0.4,0.4-0.7
				s0.1-0.5,0.1-0.8c0-0.3-0.1-0.6-0.2-0.8c-0.1-0.3-0.2-0.5-0.4-0.7c-0.2-0.2-0.4-0.4-0.6-0.5c-0.2-0.1-0.5-0.2-0.7-0.2h-3.1V42.7z
				 M373.6,46.5v1.2h-7.2V37.1h7.1v1.2h-5.7v3.4h5v1.1h-5v3.7H373.6z M383.3,39.3c-0.1-0.1-0.3-0.3-0.5-0.4
				c-0.2-0.1-0.4-0.2-0.7-0.4c-0.2-0.1-0.5-0.2-0.8-0.3c-0.3-0.1-0.6-0.1-0.9-0.1c-0.8,0-1.4,0.2-1.8,0.5s-0.6,0.7-0.6,1.3
				c0,0.3,0.1,0.5,0.2,0.7c0.1,0.2,0.3,0.4,0.5,0.5c0.2,0.1,0.5,0.3,0.9,0.4c0.4,0.1,0.8,0.2,1.2,0.3c0.5,0.1,1,0.3,1.5,0.4
				c0.4,0.2,0.8,0.3,1.1,0.6s0.6,0.5,0.7,0.8c0.2,0.3,0.2,0.7,0.2,1.2c0,0.5-0.1,1-0.3,1.3s-0.5,0.7-0.8,0.9s-0.8,0.4-1.2,0.5
				c-0.5,0.1-1,0.2-1.5,0.2c-0.8,0-1.6-0.1-2.3-0.4c-0.7-0.3-1.4-0.6-2-1.1l0.6-1.1c0.2,0.2,0.4,0.3,0.6,0.5s0.5,0.3,0.9,0.5
				c0.3,0.1,0.7,0.2,1,0.3c0.4,0.1,0.8,0.1,1.2,0.1c0.8,0,1.4-0.1,1.8-0.4c0.4-0.3,0.6-0.7,0.6-1.2c0-0.3-0.1-0.6-0.2-0.8
				s-0.3-0.4-0.6-0.5c-0.3-0.2-0.6-0.3-1-0.4c-0.4-0.1-0.8-0.2-1.3-0.4c-0.5-0.1-1-0.3-1.4-0.4s-0.8-0.3-1-0.5
				c-0.3-0.2-0.5-0.5-0.6-0.8c-0.1-0.3-0.2-0.7-0.2-1.1c0-0.5,0.1-1,0.3-1.4c0.2-0.4,0.5-0.7,0.8-1c0.3-0.3,0.7-0.5,1.2-0.6
				c0.5-0.1,1-0.2,1.5-0.2c0.7,0,1.4,0.1,1.9,0.3c0.6,0.2,1.1,0.5,1.5,0.9L383.3,39.3z M394.9,46.5v1.2h-7.2V37.1h7.1v1.2h-5.7v3.4
				h5v1.1h-5v3.7H394.9z M398.3,47.7V37.1h4.6c0.5,0,0.9,0.1,1.3,0.3c0.4,0.2,0.7,0.5,1,0.8s0.5,0.7,0.7,1.1s0.2,0.8,0.2,1.2
				c0,0.4-0.1,0.7-0.2,1.1c-0.1,0.3-0.3,0.7-0.5,0.9c-0.2,0.3-0.4,0.5-0.7,0.7s-0.6,0.3-0.9,0.4l2.6,4.1h-1.5l-2.4-3.8h-2.8v3.8
				H398.3z M399.7,42.7h3.2c0.3,0,0.5-0.1,0.8-0.2c0.2-0.1,0.4-0.3,0.6-0.5c0.2-0.2,0.3-0.4,0.4-0.7s0.1-0.5,0.1-0.8
				c0-0.3-0.1-0.6-0.2-0.8c-0.1-0.3-0.2-0.5-0.4-0.7c-0.2-0.2-0.4-0.4-0.6-0.5c-0.2-0.1-0.5-0.2-0.7-0.2h-3.1V42.7z M409.7,37.1
				l3.5,9l3.5-9h1.4l-4.3,10.6h-1.2l-4.4-10.6H409.7z M423.6,37.1h1.1l4.4,10.6h-1.4l-1.3-3.1h-4.5l-1.2,3.1h-1.4L423.6,37.1z
				 M426.1,43.6l-1.9-4.9l-2,4.9H426.1z M432,47.7V37.1h4.6c0.5,0,0.9,0.1,1.3,0.3c0.4,0.2,0.7,0.5,1,0.8s0.5,0.7,0.7,1.1
				c0.2,0.4,0.2,0.8,0.2,1.2c0,0.4-0.1,0.7-0.2,1.1c-0.1,0.3-0.3,0.7-0.5,0.9c-0.2,0.3-0.4,0.5-0.7,0.7s-0.6,0.3-0.9,0.4l2.6,4.1
				h-1.5l-2.4-3.8h-2.8v3.8H432z M433.4,42.7h3.2c0.3,0,0.5-0.1,0.8-0.2c0.2-0.1,0.4-0.3,0.6-0.5c0.2-0.2,0.3-0.4,0.4-0.7
				s0.1-0.5,0.1-0.8c0-0.3-0.1-0.6-0.2-0.8c-0.1-0.3-0.2-0.5-0.4-0.7c-0.2-0.2-0.4-0.4-0.6-0.5c-0.2-0.1-0.5-0.2-0.7-0.2h-3.1V42.7z
				"/>
		</g>
	</g>
</g>
</svg>
