<?xml version="1.0" encoding="utf-8"?>
<!-- Generator: Adobe Illustrator 21.1.0, SVG Export Plug-In . SVG Version: 6.00 Build 0)  -->
<svg version="1.1" id="Capa_1" xmlns="http://www.w3.org/2000/svg" xmlns:xlink="http://www.w3.org/1999/xlink" x="0px" y="0px"
	 viewBox="0 0 451 49" style="enable-background:new 0 0 451 49;" xml:space="preserve">
<style type="text/css">
	.st0{fill:#666666;}
	.st1{font-family:'Raleway-Medium';}
	.st2{font-size:15px;}
	.st3{fill:none;stroke:#CCCCCC;stroke-width:2;stroke-linecap:round;}
	.st4{fill:none;stroke:#ED8C04;stroke-width:2;stroke-linecap:round;}
	.st5{fill:#ED8C04;stroke:#ED8C04;stroke-width:2;}
	.st6{fill:#FFFFFF;}
	.st7{fill:#FFFFFF;stroke:#ED8C04;stroke-width:2;}
	.st8{fill:#ED8C04;}
</style>
<title>Group 3</title>
<desc>Created with Sketch.</desc>
<g id="Group-3" transform="translate(422.000000, 14.000000)">
	<text transform="matrix(1 0 0 1 -397.3325 34.425)" class="st0 st1 st2">PEDIR</text>
	<path id="Path-3" class="st3" d="M-421,0H24"/>
	<path id="Path-3_1_" class="st4" d="M-421,0H24"/>
	<g id="Group-2" transform="translate(58.000000, 0.000000)">
		<g id="Group">
			<circle id="Oval-4" class="st5" cx="-429.5" cy="0.5" r="13.5"/>
		</g>
		<path id="Shape" class="st6" d="M-421-6c0.2,0.2,0.4,0.6,0.4,0.9s-0.1,0.7-0.4,0.9L-430.3,7c-0.2,0.2-0.6,0.4-0.9,0.4
			s-0.7-0.1-0.9-0.4l-5.1-5.1c-0.5-0.5-0.5-1.3,0-1.8s1.3-0.5,1.8,0l4.2,4.2l8.4-10.2c0.2-0.2,0.6-0.4,0.9-0.4S-421.3-6.2-421-6z"/>
	</g>
	<g id="Group-2_1_" transform="translate(241.000000, 0.000000)">
		<g id="Group_1_">
			<circle id="Oval-4_1_" class="st5" cx="-429.5" cy="0.5" r="13.5"/>
		</g>
		<path id="Shape_1_" class="st6" d="M-421-6c0.2,0.2,0.4,0.6,0.4,0.9s-0.1,0.7-0.4,0.9L-430.3,7c-0.2,0.2-0.6,0.4-0.9,0.4
			s-0.7-0.1-0.9-0.4l-5.1-5.1c-0.5-0.5-0.5-1.3,0-1.8s1.3-0.5,1.8,0l4.2,4.2l8.4-10.2c0.2-0.2,0.6-0.4,0.9-0.4S-421.3-6.2-421-6z"/>
	</g>
	<path id="RECIBIR" class="st0" d="M-220.7,34.7V24.1h4.6c0.5,0,0.9,0.1,1.3,0.3c0.4,0.2,0.7,0.5,1,0.8c0.3,0.3,0.5,0.7,0.7,1.1
		c0.2,0.4,0.2,0.8,0.2,1.2c0,0.4-0.1,0.7-0.2,1.1c-0.1,0.3-0.3,0.7-0.4,0.9c-0.2,0.3-0.4,0.5-0.7,0.7c-0.3,0.2-0.6,0.3-0.9,0.4
		l2.6,4.1h-1.5l-2.4-3.8h-2.8v3.8H-220.7z M-219.3,29.7h3.2c0.3,0,0.5-0.1,0.8-0.2c0.2-0.1,0.4-0.3,0.6-0.5s0.3-0.4,0.4-0.7
		c0.1-0.3,0.1-0.5,0.1-0.8s-0.1-0.6-0.2-0.8c-0.1-0.3-0.2-0.5-0.4-0.7c-0.2-0.2-0.4-0.4-0.6-0.5s-0.5-0.2-0.7-0.2h-3.1v4.4H-219.3z
		 M-202.1,33.5v1.2h-7.2V24.1h7.1v1.2h-5.7v3.5h5v1.1h-5v3.7h5.8V33.5z M-199.6,29.3c0-0.6,0.1-1.3,0.3-1.9c0.2-0.6,0.6-1.2,1-1.7
		s1-0.9,1.6-1.2c0.6-0.3,1.3-0.5,2.1-0.5c1,0,1.8,0.2,2.4,0.6c0.7,0.4,1.2,1,1.5,1.7l-1.1,0.7c-0.2-0.3-0.4-0.6-0.6-0.9
		s-0.5-0.4-0.7-0.6c-0.2-0.2-0.5-0.2-0.8-0.3c-0.3-0.1-0.6-0.1-0.8-0.1c-0.6,0-1.1,0.1-1.6,0.4c-0.5,0.2-0.8,0.6-1.1,1
		c-0.3,0.4-0.5,0.8-0.7,1.3c-0.2,0.5-0.2,1-0.2,1.5c0,0.6,0.1,1.1,0.3,1.6c0.2,0.5,0.4,1,0.8,1.3c0.3,0.4,0.7,0.7,1.2,0.9
		s0.9,0.3,1.5,0.3c0.3,0,0.6,0,0.9-0.1s0.6-0.2,0.8-0.3c0.3-0.2,0.5-0.4,0.8-0.6c0.3-0.2,0.4-0.5,0.6-0.8l1.1,0.6
		c-0.2,0.4-0.4,0.8-0.7,1.1c-0.3,0.3-0.6,0.6-1,0.8s-0.8,0.4-1.2,0.5s-0.8,0.2-1.3,0.2c-0.7,0-1.4-0.2-2-0.5s-1.1-0.7-1.6-1.3
		s-0.8-1.1-1-1.8C-199.4,30.7-199.6,30-199.6,29.3z M-187.1,34.7V24.1h1.3v10.6H-187.1z M-173.5,32c0,0.4-0.1,0.8-0.2,1.1
		c-0.2,0.3-0.4,0.6-0.7,0.9c-0.3,0.3-0.6,0.4-1,0.6s-0.8,0.2-1.2,0.2h-5.1V24.1h5.3c0.4,0,0.7,0.1,1,0.2c0.3,0.2,0.6,0.4,0.8,0.6
		c0.2,0.3,0.4,0.5,0.5,0.9c0.1,0.3,0.2,0.7,0.2,1c0,0.5-0.1,1-0.4,1.5c-0.3,0.5-0.6,0.8-1.1,1c0.6,0.2,1.1,0.5,1.4,1
		C-173.7,30.7-173.5,31.3-173.5,32z M-174.8,31.7c0-0.2,0-0.5-0.1-0.7s-0.2-0.4-0.3-0.6s-0.3-0.3-0.5-0.4c-0.2-0.1-0.4-0.1-0.7-0.1
		h-3.8v3.7h3.7c0.2,0,0.5,0,0.7-0.2c0.2-0.1,0.4-0.2,0.6-0.4s0.3-0.4,0.4-0.6C-174.7,32.2-174.8,32-174.8,31.7z M-180.3,25.2v3.6
		h3.4c0.2,0,0.5,0,0.7-0.1c0.2-0.1,0.4-0.2,0.5-0.4c0.1-0.2,0.3-0.3,0.3-0.6c0.1-0.2,0.1-0.4,0.1-0.7c0-0.2,0-0.5-0.1-0.7
		s-0.2-0.4-0.3-0.6s-0.3-0.3-0.5-0.4c-0.2-0.1-0.4-0.1-0.6-0.1C-176.8,25.2-180.3,25.2-180.3,25.2z M-170,34.7V24.1h1.4v10.6H-170z
		 M-164.6,34.7V24.1h4.6c0.5,0,0.9,0.1,1.3,0.3c0.4,0.2,0.7,0.5,1,0.8c0.3,0.3,0.5,0.7,0.7,1.1c0.2,0.4,0.2,0.8,0.2,1.2
		c0,0.4-0.1,0.7-0.2,1.1c-0.1,0.3-0.3,0.7-0.4,0.9c-0.2,0.3-0.4,0.5-0.7,0.7c-0.3,0.2-0.6,0.3-0.9,0.4l2.6,4.1h-1.5l-2.4-3.8h-2.8
		v3.8H-164.6z M-163.2,29.7h3.2c0.3,0,0.5-0.1,0.8-0.2c0.2-0.1,0.4-0.3,0.6-0.5s0.3-0.4,0.4-0.7c0.1-0.3,0.1-0.5,0.1-0.8
		s-0.1-0.6-0.2-0.8c-0.1-0.3-0.2-0.5-0.4-0.7c-0.2-0.2-0.4-0.4-0.6-0.5s-0.5-0.2-0.7-0.2h-3.1v4.4H-163.2z"/>
	<g id="Group_2_" transform="translate(415.000000, 0.000000)">
		<circle id="Oval-4_2_" class="st7" cx="-429.5" cy="0.5" r="13.5"/>
		<circle id="Oval-4_3_" class="st8" cx="-429.5" cy="0.5" r="5.8"/>
	</g>
	<g id="Group-2_2_" transform="translate(241.000000, 0.000000)">
		<g id="Group_3_">
			<circle id="Oval-4_4_" class="st5" cx="-255.5" cy="0.5" r="13.5"/>
		</g>
		<path id="Shape_2_" class="st6" d="M-247-6c0.2,0.2,0.4,0.6,0.4,0.9s-0.1,0.7-0.4,0.9L-256.3,7c-0.2,0.2-0.6,0.4-0.9,0.4
			s-0.7-0.1-0.9-0.4l-5.1-5.1c-0.5-0.5-0.5-1.3,0-1.8s1.3-0.5,1.8,0l4.2,4.2l8.4-10.2c0.2-0.2,0.6-0.4,0.9-0.4S-247.3-6.2-247-6z"/>
	</g>
	<path id="RESERVAR" class="st0" d="M-57.1,34.7V24.1h4.6c0.5,0,0.9,0.1,1.3,0.3c0.4,0.2,0.7,0.5,1,0.8s0.5,0.7,0.7,1.1
		c0.2,0.4,0.2,0.8,0.2,1.2c0,0.4-0.1,0.7-0.2,1.1c-0.1,0.3-0.3,0.7-0.5,0.9c-0.2,0.3-0.4,0.5-0.7,0.7s-0.6,0.3-0.9,0.4l2.6,4.1h-1.5
		l-2.4-3.8h-2.8v3.8H-57.1z M-55.7,29.7h3.2c0.3,0,0.5-0.1,0.8-0.2c0.2-0.1,0.4-0.3,0.6-0.5c0.2-0.2,0.3-0.4,0.4-0.7
		s0.1-0.5,0.1-0.8c0-0.3-0.1-0.6-0.2-0.8c-0.1-0.3-0.2-0.5-0.4-0.7c-0.2-0.2-0.4-0.4-0.6-0.5c-0.2-0.1-0.5-0.2-0.7-0.2h-3.1V29.7z
		 M-38.4,33.5v1.2h-7.2V24.1h7.1v1.2h-5.7v3.4h5v1.1h-5v3.7H-38.4z M-28.8,26.3c-0.1-0.1-0.3-0.3-0.5-0.4c-0.2-0.1-0.4-0.2-0.7-0.4
		c-0.2-0.1-0.5-0.2-0.8-0.3c-0.3-0.1-0.6-0.1-0.9-0.1c-0.8,0-1.4,0.2-1.8,0.5s-0.6,0.7-0.6,1.3c0,0.3,0.1,0.5,0.2,0.7
		c0.1,0.2,0.3,0.4,0.5,0.5c0.2,0.1,0.5,0.3,0.9,0.4c0.4,0.1,0.8,0.2,1.2,0.3c0.5,0.1,1,0.3,1.5,0.4c0.4,0.2,0.8,0.3,1.1,0.6
		s0.6,0.5,0.7,0.8c0.2,0.3,0.2,0.7,0.2,1.2c0,0.5-0.1,1-0.3,1.3s-0.5,0.7-0.8,0.9s-0.8,0.4-1.2,0.5c-0.5,0.1-1,0.2-1.5,0.2
		c-0.8,0-1.6-0.1-2.3-0.4c-0.7-0.3-1.4-0.6-2-1.1l0.6-1.1c0.2,0.2,0.4,0.3,0.6,0.5s0.5,0.3,0.9,0.5c0.3,0.1,0.7,0.2,1,0.3
		c0.4,0.1,0.8,0.1,1.2,0.1c0.8,0,1.4-0.1,1.8-0.4c0.4-0.3,0.6-0.7,0.6-1.2c0-0.3-0.1-0.6-0.2-0.8s-0.3-0.4-0.6-0.5
		c-0.3-0.2-0.6-0.3-1-0.4c-0.4-0.1-0.8-0.2-1.3-0.4c-0.5-0.1-1-0.3-1.4-0.4s-0.8-0.3-1-0.5c-0.3-0.2-0.5-0.5-0.6-0.8
		c-0.1-0.3-0.2-0.7-0.2-1.1c0-0.5,0.1-1,0.3-1.4c0.2-0.4,0.5-0.7,0.8-1c0.3-0.3,0.7-0.5,1.2-0.6c0.5-0.1,1-0.2,1.5-0.2
		c0.7,0,1.4,0.1,1.9,0.3c0.6,0.2,1.1,0.5,1.5,0.9L-28.8,26.3z M-17.1,33.5v1.2h-7.2V24.1h7.1v1.2H-23v3.4h5v1.1h-5v3.7H-17.1z
		 M-13.7,34.7V24.1h4.6c0.5,0,0.9,0.1,1.3,0.3c0.4,0.2,0.7,0.5,1,0.8s0.5,0.7,0.7,1.1S-6,27-6,27.5c0,0.4-0.1,0.7-0.2,1.1
		c-0.1,0.3-0.3,0.7-0.5,0.9C-6.8,29.8-7,30-7.3,30.2s-0.6,0.3-0.9,0.4l2.6,4.1h-1.5l-2.4-3.8h-2.8v3.8H-13.7z M-12.4,29.7h3.2
		c0.3,0,0.5-0.1,0.8-0.2c0.2-0.1,0.4-0.3,0.6-0.5c0.2-0.2,0.3-0.4,0.4-0.7s0.1-0.5,0.1-0.8c0-0.3-0.1-0.6-0.2-0.8
		c-0.1-0.3-0.2-0.5-0.4-0.7c-0.2-0.2-0.4-0.4-0.6-0.5c-0.2-0.1-0.5-0.2-0.7-0.2h-3.1V29.7z M-2.3,24.1l3.5,9l3.5-9h1.4L1.8,34.7H0.6
		l-4.4-10.6H-2.3z M11.5,24.1h1.1L17,34.7h-1.4l-1.3-3.1H9.8l-1.2,3.1H7.1L11.5,24.1z M14,30.5l-1.9-4.9l-2,4.9H14z M19.9,34.7V24.1
		h4.6c0.5,0,0.9,0.1,1.3,0.3c0.4,0.2,0.7,0.5,1,0.8s0.5,0.7,0.7,1.1c0.2,0.4,0.2,0.8,0.2,1.2c0,0.4-0.1,0.7-0.2,1.1
		c-0.1,0.3-0.3,0.7-0.5,0.9c-0.2,0.3-0.4,0.5-0.7,0.7s-0.6,0.3-0.9,0.4l2.6,4.1h-1.5l-2.4-3.8h-2.8v3.8H19.9z M21.3,29.7h3.2
		c0.3,0,0.5-0.1,0.8-0.2c0.2-0.1,0.4-0.3,0.6-0.5c0.2-0.2,0.3-0.4,0.4-0.7s0.1-0.5,0.1-0.8c0-0.3-0.1-0.6-0.2-0.8
		c-0.1-0.3-0.2-0.5-0.4-0.7c-0.2-0.2-0.4-0.4-0.6-0.5c-0.2-0.1-0.5-0.2-0.7-0.2h-3.1V29.7z"/>
</g>
</svg>
