<?xml version="1.0" encoding="UTF-8"?>
<svg width="451px" height="49px" viewBox="0 0 451 49" version="1.1" xmlns="http://www.w3.org/2000/svg" xmlns:xlink="http://www.w3.org/1999/xlink">
    <!-- Generator: Sketch 49.3 (51167) - http://www.bohemiancoding.com/sketch -->
    <title>Group 3</title>
    <desc>Created with Sketch.</desc>
    <defs></defs>
    <g id="Symbols" stroke="none" stroke-width="1" fill="none" fill-rule="evenodd">
        <g id="Molecules/headerweb/resumen" transform="translate(-443.000000, -13.000000)">
            <g id="Group-3" transform="translate(422.000000, 14.000000)">
                <text id="PEDIR" font-family="Raleway-Medium, Raleway" font-size="15" font-weight="400" line-spacing="50" letter-spacing="1.54999995" fill="#666666">
                    <tspan x="45.6675001" y="32">PEDIR</tspan>
                </text>
                <path d="M386,47.725 L386,37.075 L390.71,37.075 C391.200002,37.075 391.652498,37.177499 392.0675,37.3825 C392.482502,37.587501 392.839998,37.8574983 393.14,38.1925 C393.440001,38.5275017 393.674999,38.9074979 393.845,39.3325 C394.015001,39.7575021 394.1,40.1849979 394.1,40.615 C394.1,41.3050035 393.927502,41.9324972 393.5825,42.4975 C393.237498,43.0625028 392.770003,43.4699988 392.18,43.72 L394.61,47.725 L392.285,47.725 L390.11,44.155 L388.07,44.155 L388.07,47.725 L386,47.725 Z M388.07,42.34 L390.665,42.34 C390.855001,42.34 391.032499,42.2950005 391.1975,42.205 C391.362501,42.1149996 391.504999,41.9925008 391.625,41.8375 C391.745001,41.6824992 391.84,41.5000011 391.91,41.29 C391.98,41.0799989 392.015,40.8550012 392.015,40.615 C392.015,40.3649988 391.975,40.135001 391.895,39.925 C391.815,39.714999 391.707501,39.5325008 391.5725,39.3775 C391.437499,39.2224992 391.282501,39.1025004 391.1075,39.0175 C390.932499,38.9324996 390.755001,38.89 390.575,38.89 L388.07,38.89 L388.07,42.34 Z M404.92,45.91 L404.92,47.725 L397.525,47.725 L397.525,37.075 L404.785,37.075 L404.785,38.89 L399.595,38.89 L399.595,41.455 L404.08,41.455 L404.08,43.135 L399.595,43.135 L399.595,45.91 L404.92,45.91 Z M414.21,39.865 C414.14,39.7949997 414.012501,39.7000006 413.8275,39.58 C413.642499,39.4599994 413.417501,39.3425006 413.1525,39.2275 C412.887499,39.1124994 412.600001,39.0150004 412.29,38.935 C411.979998,38.8549996 411.665002,38.815 411.345,38.815 C410.774997,38.815 410.350001,38.919999 410.07,39.13 C409.789999,39.3400011 409.65,39.6349981 409.65,40.015 C409.65,40.2350011 409.702499,40.4174993 409.8075,40.5625 C409.9125,40.7075007 410.064999,40.8349994 410.265,40.945 C410.465001,41.0550006 410.717498,41.1549995 411.0225,41.245 C411.327501,41.3350005 411.679998,41.4299995 412.08,41.53 C412.600003,41.6700007 413.072498,41.8199992 413.4975,41.98 C413.922502,42.1400008 414.282498,42.3399988 414.5775,42.58 C414.872501,42.8200012 415.099999,43.1074983 415.26,43.4425 C415.420001,43.7775017 415.5,44.1899976 415.5,44.68 C415.5,45.2500029 415.392501,45.737498 415.1775,46.1425 C414.962499,46.547502 414.672502,46.8749987 414.3075,47.125 C413.942498,47.3750013 413.522502,47.5574994 413.0475,47.6725 C412.572498,47.7875006 412.075003,47.845 411.555,47.845 C410.754996,47.845 409.965004,47.7250012 409.185,47.485 C408.404996,47.2449988 407.705003,46.9050022 407.085,46.465 L408,44.68 C408.09,44.7700005 408.252499,44.8874993 408.4875,45.0325 C408.722501,45.1775007 408.999998,45.3224993 409.32,45.4675 C409.640002,45.6125007 409.994998,45.7349995 410.385,45.835 C410.775002,45.9350005 411.174998,45.985 411.585,45.985 C412.725006,45.985 413.295,45.6200037 413.295,44.89 C413.295,44.6599989 413.230001,44.4650008 413.1,44.305 C412.969999,44.1449992 412.785001,44.0050006 412.545,43.885 C412.304999,43.7649994 412.015002,43.6550005 411.675,43.555 C411.334998,43.4549995 410.955002,43.3450006 410.535,43.225 C410.024997,43.0849993 409.582502,42.9325008 409.2075,42.7675 C408.832498,42.6024992 408.520001,42.4075011 408.27,42.1825 C408.019999,41.9574989 407.832501,41.6975015 407.7075,41.4025 C407.582499,41.1074985 407.52,40.7550021 407.52,40.345 C407.52,39.8049973 407.619999,39.3250021 407.82,38.905 C408.020001,38.4849979 408.297498,38.1350014 408.6525,37.855 C409.007502,37.5749986 409.419998,37.3625007 409.89,37.2175 C410.360002,37.0724993 410.864997,37 411.405,37 C412.155004,37 412.844997,37.1174988 413.475,37.3525 C414.105003,37.5875012 414.654998,37.8649984 415.125,38.185 L414.21,39.865 Z M426.005,45.91 L426.005,47.725 L418.61,47.725 L418.61,37.075 L425.87,37.075 L425.87,38.89 L420.68,38.89 L420.68,41.455 L425.165,41.455 L425.165,43.135 L420.68,43.135 L420.68,45.91 L426.005,45.91 Z M429.175,47.725 L429.175,37.075 L433.885,37.075 C434.375002,37.075 434.827498,37.177499 435.2425,37.3825 C435.657502,37.587501 436.014998,37.8574983 436.315,38.1925 C436.615001,38.5275017 436.849999,38.9074979 437.02,39.3325 C437.190001,39.7575021 437.275,40.1849979 437.275,40.615 C437.275,41.3050035 437.102502,41.9324972 436.7575,42.4975 C436.412498,43.0625028 435.945003,43.4699988 435.355,43.72 L437.785,47.725 L435.46,47.725 L433.285,44.155 L431.245,44.155 L431.245,47.725 L429.175,47.725 Z M431.245,42.34 L433.84,42.34 C434.030001,42.34 434.207499,42.2950005 434.3725,42.205 C434.537501,42.1149996 434.679999,41.9925008 434.8,41.8375 C434.92,41.6824992 435.014999,41.5000011 435.085,41.29 C435.155,41.0799989 435.19,40.8550012 435.19,40.615 C435.19,40.3649988 435.15,40.135001 435.07,39.925 C434.989999,39.714999 434.8825,39.5325008 434.7475,39.3775 C434.612499,39.2224992 434.457501,39.1025004 434.2825,39.0175 C434.107499,38.9324996 433.930001,38.89 433.75,38.89 L431.245,38.89 L431.245,42.34 Z M441.54,37.075 L444.42,45.13 L447.27,37.075 L449.445,37.075 L445.29,47.725 L443.55,47.725 L439.365,37.075 L441.54,37.075 Z M454.25,37.075 L456.08,37.075 L460.13,47.725 L458,47.725 L457.01,45.07 L453.29,45.07 L452.315,47.725 L450.185,47.725 L454.25,37.075 Z M456.635,43.615 L455.165,39.43 L453.635,43.615 L456.635,43.615 Z M462.85,47.725 L462.85,37.075 L467.56,37.075 C468.050002,37.075 468.502498,37.177499 468.9175,37.3825 C469.332502,37.587501 469.689998,37.8574983 469.99,38.1925 C470.290001,38.5275017 470.524999,38.9074979 470.695,39.3325 C470.865001,39.7575021 470.95,40.1849979 470.95,40.615 C470.95,41.3050035 470.777501,41.9324972 470.4325,42.4975 C470.087498,43.0625028 469.620003,43.4699988 469.03,43.72 L471.46,47.725 L469.135,47.725 L466.96,44.155 L464.92,44.155 L464.92,47.725 L462.85,47.725 Z M464.92,42.34 L467.515,42.34 C467.705001,42.34 467.882499,42.2950005 468.0475,42.205 C468.2125,42.1149996 468.354999,41.9925008 468.475,41.8375 C468.595,41.6824992 468.689999,41.5000011 468.76,41.29 C468.83,41.0799989 468.865,40.8550012 468.865,40.615 C468.865,40.3649988 468.825,40.135001 468.745,39.925 C468.664999,39.714999 468.5575,39.5325008 468.4225,39.3775 C468.287499,39.2224992 468.132501,39.1025004 467.9575,39.0175 C467.782499,38.9324996 467.605001,38.89 467.425,38.89 L464.92,38.89 L464.92,42.34 Z" id="RESERVAR" fill="#ED8C04"></path>
                <path d="M22,13 L467.001124,13" id="Path-3" stroke="#CCCCCC" stroke-width="2" stroke-linecap="round"></path>
                <path d="M22,13 L467,13" id="Path-3" stroke="#ED8C04" stroke-width="2" stroke-linecap="round"></path>
                <g id="Group-2" transform="translate(58.000000, 0.000000)">
                    <g id="Group" fill="#ED8C04" stroke="#ED8C04" stroke-width="2">
                        <circle id="Oval-4" cx="13.5" cy="13.5" r="13.5"></circle>
                    </g>
                    <path d="M20.3510457,5.38163476 C20.1077949,5.13729276 19.7777135,5 19.4335135,5 C19.0893135,5 18.7592321,5.13729276 18.5159814,5.38163476 L7.38035326,14.7027698 C7.13683175,14.9468401 7,15.2780336 7,15.6233933 C7,15.968753 7.13683175,16.2999465 7.38035326,16.5440168 L12.4640649,21.6426879 C12.9719835,22.1435148 13.7873717,22.1397101 14.2906259,21.6341649 C14.7938801,21.1286196 14.7967111,20.3104802 14.2969677,19.8014409 L10.1318689,15.622309 L20.3510457,7.22288179 C20.5945672,6.97881147 20.7313989,6.64761798 20.7313989,6.30225827 C20.7313989,5.95689856 20.5945672,5.62570507 20.3510457,5.38163476 Z" id="Shape" fill="#FFFFFF" fill-rule="nonzero" transform="translate(13.865699, 13.507915) scale(-1, 1) rotate(-90.000000) translate(-13.865699, -13.507915) "></path>
                </g>
                <g id="Group-2" transform="translate(241.000000, 0.000000)">
                    <g id="Group" fill="#ED8C04" stroke="#ED8C04" stroke-width="2">
                        <circle id="Oval-4" cx="13.5" cy="13.5" r="13.5"></circle>
                    </g>
                    <path d="M20.3510457,5.38163476 C20.1077949,5.13729276 19.7777135,5 19.4335135,5 C19.0893135,5 18.7592321,5.13729276 18.5159814,5.38163476 L7.38035326,14.7027698 C7.13683175,14.9468401 7,15.2780336 7,15.6233933 C7,15.968753 7.13683175,16.2999465 7.38035326,16.5440168 L12.4640649,21.6426879 C12.9719835,22.1435148 13.7873717,22.1397101 14.2906259,21.6341649 C14.7938801,21.1286196 14.7967111,20.3104802 14.2969677,19.8014409 L10.1318689,15.622309 L20.3510457,7.22288179 C20.5945672,6.97881147 20.7313989,6.64761798 20.7313989,6.30225827 C20.7313989,5.95689856 20.5945672,5.62570507 20.3510457,5.38163476 Z" id="Shape" fill="#FFFFFF" fill-rule="nonzero" transform="translate(13.865699, 13.507915) scale(-1, 1) rotate(-90.000000) translate(-13.865699, -13.507915) "></path>
                </g>
                <path d="M213,47.71 L213,37.06 L217.56,37.06 C218.030002,37.06 218.462498,37.157499 218.8575,37.3525 C219.252502,37.547501 219.592499,37.8074984 219.8775,38.1325 C220.162501,38.4575016 220.384999,38.822498 220.545,39.2275 C220.705001,39.632502 220.785,40.0449979 220.785,40.465 C220.785,40.8350019 220.732501,41.1924983 220.6275,41.5375 C220.522499,41.8825017 220.372501,42.1949986 220.1775,42.475 C219.982499,42.7550014 219.747501,42.994999 219.4725,43.195 C219.197499,43.395001 218.890002,43.5399995 218.55,43.63 L221.13,47.71 L219.6,47.71 L217.17,43.885 L214.35,43.885 L214.35,47.71 L213,47.71 Z M214.35,42.685 L217.575,42.685 C217.855001,42.685 218.107499,42.6250006 218.3325,42.505 C218.557501,42.3849994 218.749999,42.222501 218.91,42.0175 C219.070001,41.812499 219.195,41.5750014 219.285,41.305 C219.375,41.0349986 219.42,40.7550015 219.42,40.465 C219.42,40.1649985 219.367501,39.8825013 219.2625,39.6175 C219.157499,39.3524987 219.017501,39.117501 218.8425,38.9125 C218.667499,38.707499 218.462501,38.5475006 218.2275,38.4325 C217.992499,38.3174994 217.745001,38.26 217.485,38.26 L214.35,38.26 L214.35,42.685 Z M231.635,46.51 L231.635,47.71 L224.405,47.71 L224.405,37.06 L231.5,37.06 L231.5,38.26 L225.755,38.26 L225.755,41.71 L230.75,41.71 L230.75,42.835 L225.755,42.835 L225.755,46.51 L231.635,46.51 Z M234.13,42.31 C234.13,41.6699968 234.242499,41.0325032 234.4675,40.3975 C234.692501,39.7624968 235.022498,39.1925025 235.4575,38.6875 C235.892502,38.1824975 236.424997,37.7750015 237.055,37.465 C237.685003,37.1549985 238.399996,37 239.2,37 C240.150005,37 240.964997,37.2149979 241.645,37.645 C242.325003,38.0750022 242.829998,38.6349966 243.16,39.325 L242.095,40.015 C241.934999,39.6749983 241.742501,39.3900012 241.5175,39.16 C241.292499,38.9299989 241.047501,38.7450007 240.7825,38.605 C240.517499,38.4649993 240.245001,38.3650003 239.965,38.305 C239.684999,38.2449997 239.410001,38.215 239.14,38.215 C238.549997,38.215 238.027502,38.3374988 237.5725,38.5825 C237.117498,38.8275012 236.735001,39.147498 236.425,39.5425 C236.114998,39.937502 235.882501,40.3824975 235.7275,40.8775 C235.572499,41.3725025 235.495,41.8699975 235.495,42.37 C235.495,42.9300028 235.587499,43.4624975 235.7725,43.9675 C235.957501,44.4725025 236.214998,44.919998 236.545,45.31 C236.875002,45.7000019 237.264998,46.0099989 237.715,46.24 C238.165002,46.4700011 238.654997,46.585 239.185,46.585 C239.465001,46.585 239.752498,46.5500003 240.0475,46.48 C240.342501,46.4099996 240.624999,46.2975008 240.895,46.1425 C241.165001,45.9874992 241.417499,45.7925012 241.6525,45.5575 C241.887501,45.3224988 242.079999,45.0400017 242.23,44.71 L243.355,45.325 C243.184999,45.725002 242.947501,46.0774985 242.6425,46.3825 C242.337498,46.6875015 241.992502,46.9449989 241.6075,47.155 C241.222498,47.365001 240.815002,47.5249994 240.385,47.635 C239.954998,47.7450006 239.535002,47.8 239.125,47.8 C238.394996,47.8 237.725003,47.6400016 237.115,47.32 C236.504997,46.9999984 235.977502,46.5825026 235.5325,46.0675 C235.087498,45.5524974 234.742501,44.9675033 234.4975,44.3125 C234.252499,43.6574967 234.13,42.9900034 234.13,42.31 Z M246.6,47.71 L246.6,37.06 L247.95,37.06 L247.95,47.71 L246.6,47.71 Z M260.225,44.965 C260.225,45.375002 260.142501,45.7499983 259.9775,46.09 C259.812499,46.4300017 259.587501,46.7199988 259.3025,46.96 C259.017498,47.2000012 258.687502,47.3849994 258.3125,47.515 C257.937498,47.6450007 257.535002,47.71 257.105,47.71 L252.05,47.71 L252.05,37.06 L257.345,37.06 C257.715002,37.06 258.049998,37.1399992 258.35,37.3 C258.650001,37.4600008 258.904999,37.6674987 259.115,37.9225 C259.325001,38.1775013 259.487499,38.4674984 259.6025,38.7925 C259.7175,39.1175016 259.775,39.4449983 259.775,39.775 C259.775,40.3050026 259.642501,40.7949978 259.3775,41.245 C259.112498,41.6950023 258.735002,42.0299989 258.245,42.25 C258.855003,42.4300009 259.337498,42.7624976 259.6925,43.2475 C260.047502,43.7325024 260.225,44.3049967 260.225,44.965 Z M258.86,44.725 C258.86,44.4849988 258.8175,44.2525011 258.7325,44.0275 C258.647499,43.8024989 258.532501,43.6050009 258.3875,43.435 C258.242499,43.2649992 258.070001,43.1300005 257.87,43.03 C257.669999,42.9299995 257.450001,42.88 257.21,42.88 L253.4,42.88 L253.4,46.54 L257.105,46.54 C257.355001,46.54 257.584999,46.4900005 257.795,46.39 C258.005001,46.2899995 258.189999,46.1575008 258.35,45.9925 C258.510001,45.8274992 258.634999,45.6350011 258.725,45.415 C258.815,45.1949989 258.86,44.9650012 258.86,44.725 Z M253.4,38.23 L253.4,41.785 L256.79,41.785 C257.030001,41.785 257.249999,41.7375005 257.45,41.6425 C257.650001,41.5474995 257.822499,41.4200008 257.9675,41.26 C258.112501,41.0999992 258.227499,40.9125011 258.3125,40.6975 C258.3975,40.4824989 258.44,40.2550012 258.44,40.015 C258.44,39.7649987 258.4,39.5300011 258.32,39.31 C258.239999,39.0899989 258.1325,38.9000008 257.9975,38.74 C257.862499,38.5799992 257.697501,38.4550005 257.5025,38.365 C257.307499,38.2749995 257.100001,38.23 256.88,38.23 L253.4,38.23 Z M263.665,47.71 L263.665,37.06 L265.015,37.06 L265.015,47.71 L263.665,47.71 Z M269.115,47.71 L269.115,37.06 L273.675,37.06 C274.145002,37.06 274.577498,37.157499 274.9725,37.3525 C275.367502,37.547501 275.707498,37.8074984 275.9925,38.1325 C276.277501,38.4575016 276.499999,38.822498 276.66,39.2275 C276.820001,39.632502 276.9,40.0449979 276.9,40.465 C276.9,40.8350019 276.8475,41.1924983 276.7425,41.5375 C276.637499,41.8825017 276.487501,42.1949986 276.2925,42.475 C276.097499,42.7550014 275.862501,42.994999 275.5875,43.195 C275.312498,43.395001 275.005001,43.5399995 274.665,43.63 L277.245,47.71 L275.715,47.71 L273.285,43.885 L270.465,43.885 L270.465,47.71 L269.115,47.71 Z M270.465,42.685 L273.69,42.685 C273.970001,42.685 274.222499,42.6250006 274.4475,42.505 C274.672501,42.3849994 274.864999,42.222501 275.025,42.0175 C275.185001,41.812499 275.309999,41.5750014 275.4,41.305 C275.49,41.0349986 275.535,40.7550015 275.535,40.465 C275.535,40.1649985 275.4825,39.8825013 275.3775,39.6175 C275.272499,39.3524987 275.132501,39.117501 274.9575,38.9125 C274.782499,38.707499 274.577501,38.5475006 274.3425,38.4325 C274.107499,38.3174994 273.860001,38.26 273.6,38.26 L270.465,38.26 L270.465,42.685 Z" id="RECIBIR" fill="#666666"></path>
                <g id="Group" transform="translate(415.000000, 0.000000)">
                    <circle id="Oval-4" stroke="#ED8C04" stroke-width="2" fill="#FFFFFF" cx="13.5" cy="13.5" r="13.5"></circle>
                    <circle id="Oval-4" fill="#ED8C04" cx="13.5" cy="13.5" r="5.78571429"></circle>
                </g>
            </g>
        </g>
    </g>
</svg>