<?xml version="1.0" encoding="utf-8"?>
<!-- Generator: Adobe Illustrator 21.1.0, SVG Export Plug-In . SVG Version: 6.00 Build 0)  -->
<svg version="1.1" id="Capa_1" xmlns="http://www.w3.org/2000/svg" xmlns:xlink="http://www.w3.org/1999/xlink" x="0px" y="0px"
	 viewBox="0 0 451 49" style="enable-background:new 0 0 451 49;" xml:space="preserve">
<style type="text/css">
	.st0{fill:#666666;}
	.st1{font-family:'Raleway-Medium';}
	.st2{font-size:15px;}
	.st3{letter-spacing:1;}
	.st4{fill:#ED8C04;}
	.st5{fill:none;stroke:#CCCCCC;stroke-width:2;stroke-linecap:round;}
	.st6{fill:none;stroke:#ED8C04;stroke-width:2;stroke-linecap:round;}
	.st7{fill:#ED8C04;stroke:#ED8C04;stroke-width:2;}
	.st8{fill:#FFFFFF;}
	.st9{fill:#FFFFFF;stroke:#ED8C04;stroke-width:2;}
</style>
<title>Group 3</title>
<desc>Created with Sketch.</desc>
<g id="Symbols">
	<g id="Group-3" transform="translate(422.000000, 14.000000)">
		<text transform="matrix(1 0 0 1 -397.3325 34.425)" class="st0 st1 st2 st3">PEDIR</text>
		<path id="RESERVAR" class="st4" d="M-57,34.7V24.1h4.7c0.5,0,0.9,0.1,1.4,0.3s0.8,0.5,1.1,0.8c0.3,0.3,0.5,0.7,0.7,1.1
			s0.3,0.9,0.3,1.3c0,0.7-0.2,1.3-0.5,1.9s-0.8,1-1.4,1.2l2.4,4h-2.3l-2.2-3.6h-2v3.6H-57z M-54.9,29.3h2.6c0.2,0,0.4,0,0.5-0.1
			c0.2-0.1,0.3-0.2,0.4-0.4c0.1-0.2,0.2-0.3,0.3-0.5c0.1-0.2,0.1-0.4,0.1-0.7c0-0.3,0-0.5-0.1-0.7c-0.1-0.2-0.2-0.4-0.3-0.5
			c-0.1-0.2-0.3-0.3-0.5-0.4c-0.2-0.1-0.4-0.1-0.5-0.1h-2.5V29.3z M-38.1,32.9v1.8h-7.4V24.1h7.3v1.8h-5.2v2.6h4.5v1.7h-4.5v2.8
			H-38.1z M-28.8,26.9c-0.1-0.1-0.2-0.2-0.4-0.3c-0.2-0.1-0.4-0.2-0.7-0.4c-0.3-0.1-0.6-0.2-0.9-0.3c-0.3-0.1-0.6-0.1-0.9-0.1
			c-0.6,0-1,0.1-1.3,0.3c-0.3,0.2-0.4,0.5-0.4,0.9c0,0.2,0.1,0.4,0.2,0.5s0.3,0.3,0.5,0.4c0.2,0.1,0.5,0.2,0.8,0.3
			c0.3,0.1,0.7,0.2,1.1,0.3c0.5,0.1,1,0.3,1.4,0.5c0.4,0.2,0.8,0.4,1.1,0.6c0.3,0.2,0.5,0.5,0.7,0.9c0.2,0.3,0.2,0.7,0.2,1.2
			c0,0.6-0.1,1.1-0.3,1.5c-0.2,0.4-0.5,0.7-0.9,1c-0.4,0.2-0.8,0.4-1.3,0.5c-0.5,0.1-1,0.2-1.5,0.2c-0.8,0-1.6-0.1-2.4-0.4
			s-1.5-0.6-2.1-1l0.9-1.8c0.1,0.1,0.3,0.2,0.5,0.4c0.2,0.1,0.5,0.3,0.8,0.4s0.7,0.3,1.1,0.4c0.4,0.1,0.8,0.2,1.2,0.2
			c1.1,0,1.7-0.4,1.7-1.1c0-0.2-0.1-0.4-0.2-0.6s-0.3-0.3-0.6-0.4c-0.2-0.1-0.5-0.2-0.9-0.3c-0.3-0.1-0.7-0.2-1.1-0.3
			c-0.5-0.1-1-0.3-1.3-0.5c-0.4-0.2-0.7-0.4-0.9-0.6c-0.2-0.2-0.4-0.5-0.6-0.8s-0.2-0.6-0.2-1.1c0-0.5,0.1-1,0.3-1.4
			c0.2-0.4,0.5-0.8,0.8-1s0.8-0.5,1.2-0.6c0.5-0.1,1-0.2,1.5-0.2c0.8,0,1.4,0.1,2.1,0.4s1.2,0.5,1.6,0.8L-28.8,26.9z M-17,32.9v1.8
			h-7.4V24.1h7.3v1.8h-5.2v2.6h4.5v1.7h-4.5v2.8H-17z M-13.8,34.7V24.1h4.7c0.5,0,0.9,0.1,1.4,0.3s0.8,0.5,1.1,0.8
			c0.3,0.3,0.5,0.7,0.7,1.1c0.2,0.4,0.3,0.9,0.3,1.3c0,0.7-0.2,1.3-0.5,1.9s-0.8,1-1.4,1.2l2.4,4h-2.3l-2.2-3.6h-2v3.6H-13.8z
			 M-11.8,29.3h2.6c0.2,0,0.4,0,0.5-0.1c0.2-0.1,0.3-0.2,0.4-0.4c0.1-0.2,0.2-0.3,0.3-0.5c0.1-0.2,0.1-0.4,0.1-0.7
			c0-0.3,0-0.5-0.1-0.7c-0.1-0.2-0.2-0.4-0.3-0.5c-0.1-0.2-0.3-0.3-0.5-0.4c-0.2-0.1-0.4-0.1-0.5-0.1h-2.5V29.3z M-1.5,24.1l2.9,8.1
			l2.8-8.1h2.2L2.3,34.7H0.5l-4.2-10.6H-1.5z M11.2,24.1h1.8l4.1,10.6H15l-1-2.7h-3.7l-1,2.7H7.2L11.2,24.1z M13.6,30.6l-1.5-4.2
			l-1.5,4.2H13.6z M19.9,34.7V24.1h4.7c0.5,0,0.9,0.1,1.4,0.3c0.4,0.2,0.8,0.5,1.1,0.8c0.3,0.3,0.5,0.7,0.7,1.1
			c0.2,0.4,0.3,0.9,0.3,1.3c0,0.7-0.2,1.3-0.5,1.9s-0.8,1-1.4,1.2l2.4,4h-2.3L24,31.2h-2v3.6H19.9z M21.9,29.3h2.6
			c0.2,0,0.4,0,0.5-0.1c0.2-0.1,0.3-0.2,0.4-0.4c0.1-0.2,0.2-0.3,0.3-0.5c0.1-0.2,0.1-0.4,0.1-0.7c0-0.3,0-0.5-0.1-0.7
			c-0.1-0.2-0.2-0.4-0.3-0.5c-0.1-0.2-0.3-0.3-0.5-0.4c-0.2-0.1-0.4-0.1-0.5-0.1h-2.5V29.3z"/>
		<path id="Path-3" class="st5" d="M-421,0H24"/>
		<path id="Path-3_1_" class="st6" d="M-421,0H24"/>
		<g id="Group-2" transform="translate(58.000000, 0.000000)">
			<g id="Group">
				<circle id="Oval-4" class="st7" cx="-429.5" cy="0.5" r="13.5"/>
			</g>
			<path id="Shape" class="st8" d="M-421-6c0.2,0.2,0.4,0.6,0.4,0.9s-0.1,0.7-0.4,0.9L-430.3,7c-0.2,0.2-0.6,0.4-0.9,0.4
				s-0.7-0.1-0.9-0.4l-5.1-5.1c-0.5-0.5-0.5-1.3,0-1.8c0.5-0.5,1.3-0.5,1.8,0l4.2,4.2l8.4-10.2c0.2-0.2,0.6-0.4,0.9-0.4
				S-421.3-6.2-421-6z"/>
		</g>
		<g id="Group-2_1_" transform="translate(241.000000, 0.000000)">
			<g id="Group_1_">
				<circle id="Oval-4_1_" class="st7" cx="-429.5" cy="0.5" r="13.5"/>
			</g>
			<path id="Shape_1_" class="st8" d="M-421-6c0.2,0.2,0.4,0.6,0.4,0.9s-0.1,0.7-0.4,0.9L-430.3,7c-0.2,0.2-0.6,0.4-0.9,0.4
				s-0.7-0.1-0.9-0.4l-5.1-5.1c-0.5-0.5-0.5-1.3,0-1.8c0.5-0.5,1.3-0.5,1.8,0l4.2,4.2l8.4-10.2c0.2-0.2,0.6-0.4,0.9-0.4
				S-421.3-6.2-421-6z"/>
		</g>
		<path id="RECIBIR" class="st0" d="M-230,34.7V24.1h4.6c0.5,0,0.9,0.1,1.3,0.3c0.4,0.2,0.7,0.5,1,0.8s0.5,0.7,0.7,1.1
			s0.2,0.8,0.2,1.2c0,0.4-0.1,0.7-0.2,1.1c-0.1,0.3-0.3,0.7-0.4,0.9c-0.2,0.3-0.4,0.5-0.7,0.7c-0.3,0.2-0.6,0.3-0.9,0.4l2.6,4.1
			h-1.5l-2.4-3.8h-2.8v3.8H-230z M-228.6,29.7h3.2c0.3,0,0.5-0.1,0.8-0.2c0.2-0.1,0.4-0.3,0.6-0.5c0.2-0.2,0.3-0.4,0.4-0.7
			s0.1-0.5,0.1-0.8c0-0.3-0.1-0.6-0.2-0.8c-0.1-0.3-0.2-0.5-0.4-0.7c-0.2-0.2-0.4-0.4-0.6-0.5c-0.2-0.1-0.5-0.2-0.7-0.2h-3.1V29.7z
			 M-211.4,33.5v1.2h-7.2V24.1h7.1v1.2h-5.7v3.5h5v1.1h-5v3.7H-211.4z M-208.9,29.3c0-0.6,0.1-1.3,0.3-1.9c0.2-0.6,0.6-1.2,1-1.7
			c0.4-0.5,1-0.9,1.6-1.2c0.6-0.3,1.3-0.5,2.1-0.5c1,0,1.8,0.2,2.4,0.6c0.7,0.4,1.2,1,1.5,1.7l-1.1,0.7c-0.2-0.3-0.4-0.6-0.6-0.9
			s-0.5-0.4-0.7-0.6s-0.5-0.2-0.8-0.3s-0.6-0.1-0.8-0.1c-0.6,0-1.1,0.1-1.6,0.4c-0.5,0.2-0.8,0.6-1.1,1c-0.3,0.4-0.5,0.8-0.7,1.3
			c-0.2,0.5-0.2,1-0.2,1.5c0,0.6,0.1,1.1,0.3,1.6c0.2,0.5,0.4,1,0.8,1.3c0.3,0.4,0.7,0.7,1.2,0.9c0.5,0.2,0.9,0.3,1.5,0.3
			c0.3,0,0.6,0,0.9-0.1s0.6-0.2,0.8-0.3c0.3-0.2,0.5-0.4,0.8-0.6s0.4-0.5,0.6-0.8l1.1,0.6c-0.2,0.4-0.4,0.8-0.7,1.1
			c-0.3,0.3-0.6,0.6-1,0.8c-0.4,0.2-0.8,0.4-1.2,0.5c-0.4,0.1-0.8,0.2-1.3,0.2c-0.7,0-1.4-0.2-2-0.5c-0.6-0.3-1.1-0.7-1.6-1.3
			s-0.8-1.1-1-1.8C-208.7,30.7-208.9,30-208.9,29.3z M-196.4,34.7V24.1h1.3v10.6H-196.4z M-182.8,32c0,0.4-0.1,0.8-0.2,1.1
			c-0.2,0.3-0.4,0.6-0.7,0.9s-0.6,0.4-1,0.6s-0.8,0.2-1.2,0.2h-5.1V24.1h5.3c0.4,0,0.7,0.1,1,0.2c0.3,0.2,0.6,0.4,0.8,0.6
			c0.2,0.3,0.4,0.5,0.5,0.9c0.1,0.3,0.2,0.7,0.2,1c0,0.5-0.1,1-0.4,1.5c-0.3,0.5-0.6,0.8-1.1,1c0.6,0.2,1.1,0.5,1.4,1
			C-183,30.7-182.8,31.3-182.8,32z M-184.1,31.7c0-0.2,0-0.5-0.1-0.7c-0.1-0.2-0.2-0.4-0.3-0.6c-0.1-0.2-0.3-0.3-0.5-0.4
			c-0.2-0.1-0.4-0.1-0.7-0.1h-3.8v3.7h3.7c0.2,0,0.5,0,0.7-0.2c0.2-0.1,0.4-0.2,0.6-0.4s0.3-0.4,0.4-0.6S-184.1,32-184.1,31.7z
			 M-189.6,25.2v3.6h3.4c0.2,0,0.5,0,0.7-0.1c0.2-0.1,0.4-0.2,0.5-0.4c0.1-0.2,0.3-0.3,0.3-0.6c0.1-0.2,0.1-0.4,0.1-0.7
			c0-0.2,0-0.5-0.1-0.7c-0.1-0.2-0.2-0.4-0.3-0.6c-0.1-0.2-0.3-0.3-0.5-0.4c-0.2-0.1-0.4-0.1-0.6-0.1H-189.6z M-179.3,34.7V24.1h1.4
			v10.6H-179.3z M-173.9,34.7V24.1h4.6c0.5,0,0.9,0.1,1.3,0.3c0.4,0.2,0.7,0.5,1,0.8s0.5,0.7,0.7,1.1s0.2,0.8,0.2,1.2
			c0,0.4-0.1,0.7-0.2,1.1c-0.1,0.3-0.3,0.7-0.4,0.9c-0.2,0.3-0.4,0.5-0.7,0.7s-0.6,0.3-0.9,0.4l2.6,4.1h-1.5l-2.4-3.8h-2.8v3.8
			H-173.9z M-172.5,29.7h3.2c0.3,0,0.5-0.1,0.8-0.2c0.2-0.1,0.4-0.3,0.6-0.5c0.2-0.2,0.3-0.4,0.4-0.7s0.1-0.5,0.1-0.8
			c0-0.3-0.1-0.6-0.2-0.8c-0.1-0.3-0.2-0.5-0.4-0.7c-0.2-0.2-0.4-0.4-0.6-0.5c-0.2-0.1-0.5-0.2-0.7-0.2h-3.1V29.7z"/>
		<g id="Group_2_" transform="translate(415.000000, 0.000000)">
			<circle id="Oval-4_2_" class="st9" cx="-429.5" cy="0.5" r="13.5"/>
			<circle id="Oval-4_3_" class="st4" cx="-429.5" cy="0.5" r="5.8"/>
		</g>
	</g>
</g>
</svg>
