<?xml version="1.0" encoding="UTF-8"?>
<svg width="32px" height="32px" viewBox="0 0 32 32" version="1.1" xmlns="http://www.w3.org/2000/svg" xmlns:xlink="http://www.w3.org/1999/xlink">
    <!-- Generator: Sketch 49.3 (51167) - http://www.bohemiancoding.com/sketch -->
    <title>Page 1</title>
    <desc>Created with Sketch.</desc>
    <defs>
        <polygon id="path-1" points="0 0.0001 32 0.0001 32 32 0 32"></polygon>
    </defs>
    <g id="Desktop" stroke="none" stroke-width="1" fill="none" fill-rule="evenodd">
        <g id="2.-Presupuestos" transform="translate(-130.000000, -139.000000)">
            <g id="Page-1" transform="translate(130.000000, 139.000000)">
                <g id="Group-3">
                    <mask id="mask-2" fill="white">
                        <use xlink:href="#path-1"></use>
                    </mask>
                    <g id="Clip-2"></g>
                    <path d="M26,6.0001 C25.447,6.0001 25,5.5521 25,5.0001 L25,1.0001 C25,0.4481 25.447,0.0001 26,0.0001 C26.553,0.0001 27,0.4481 27,1.0001 L27,5.0001 C27,5.5521 26.553,6.0001 26,6.0001 Z M6,6.0001 C5.448,6.0001 5,5.5521 5,5.0001 L5,1.0001 C5,0.4481 5.448,0.0001 6,0.0001 C6.552,0.0001 7,0.4481 7,1.0001 L7,5.0001 C7,5.5521 6.552,6.0001 6,6.0001 Z M31,10.0001 L1,10.0001 C0.448,10.0001 0,9.5521 0,9.0001 C0,8.4481 0.448,8.0001 1,8.0001 L31,8.0001 C31.553,8.0001 32,8.4481 32,9.0001 C32,9.5521 31.553,10.0001 31,10.0001 Z M2.505,4.0001 C2.227,4.0001 2,4.2271 2,4.5051 L2,29.4961 C2,29.7731 2.226,30.0001 2.504,30.0001 L29.496,30.0001 C29.774,30.0001 30,29.7731 30,29.4961 L30,4.5051 C30,4.2271 29.773,4.0001 29.495,4.0001 L2.505,4.0001 Z M29.496,32.0001 L2.504,32.0001 C1.124,32.0001 0,30.8771 0,29.4961 L0,4.5051 C0,3.1241 1.124,2.0001 2.505,2.0001 L29.495,2.0001 C30.876,2.0001 32,3.1241 32,4.5051 L32,29.4961 C32,30.8771 30.877,32.0001 29.496,32.0001 Z" id="Fill-1" fill="#9B9B9B" mask="url(#mask-2)"></path>
                </g>
                <path d="M6,17.0001 C6.552,17.0001 7,17.4481 7,18.0001 C7,18.5521 6.552,19.0001 6,19.0001 C5.448,19.0001 5,18.5521 5,18.0001 C5,17.4481 5.448,17.0001 6,17.0001" id="Fill-4" fill="#9B9B9B"></path>
                <path d="M6,21.0001 C6.552,21.0001 7,21.4471 7,22.0001 C7,22.5521 6.552,23.0001 6,23.0001 C5.448,23.0001 5,22.5521 5,22.0001 C5,21.4471 5.448,21.0001 6,21.0001" id="Fill-6" fill="#9B9B9B"></path>
                <path d="M6,25.0001 C6.552,25.0001 7,25.4471 7,26.0001 C7,26.5521 6.552,27.0001 6,27.0001 C5.448,27.0001 5,26.5521 5,26.0001 C5,25.4471 5.448,25.0001 6,25.0001" id="Fill-8" fill="#9B9B9B"></path>
                <path d="M22,13.0001 C22.553,13.0001 23,13.4481 23,14.0001 C23,14.5521 22.553,15.0001 22,15.0001 C21.447,15.0001 21,14.5521 21,14.0001 C21,13.4481 21.447,13.0001 22,13.0001" id="Fill-10" fill="#9B9B9B"></path>
                <path d="M22,17.0001 C22.553,17.0001 23,17.4481 23,18.0001 C23,18.5521 22.553,19.0001 22,19.0001 C21.447,19.0001 21,18.5521 21,18.0001 C21,17.4481 21.447,17.0001 22,17.0001" id="Fill-12" fill="#9B9B9B"></path>
                <path d="M22,21.0001 C22.553,21.0001 23,21.4471 23,22.0001 C23,22.5521 22.553,23.0001 22,23.0001 C21.447,23.0001 21,22.5521 21,22.0001 C21,21.4471 21.447,21.0001 22,21.0001" id="Fill-14" fill="#9B9B9B"></path>
                <path d="M22,25.0001 C22.553,25.0001 23,25.4471 23,26.0001 C23,26.5521 22.553,27.0001 22,27.0001 C21.447,27.0001 21,26.5521 21,26.0001 C21,25.4471 21.447,25.0001 22,25.0001" id="Fill-16" fill="#9B9B9B"></path>
                <path d="M26,13.0001 C26.553,13.0001 27,13.4481 27,14.0001 C27,14.5521 26.553,15.0001 26,15.0001 C25.447,15.0001 25,14.5521 25,14.0001 C25,13.4481 25.447,13.0001 26,13.0001" id="Fill-18" fill="#9B9B9B"></path>
                <path d="M26,17.0001 C26.553,17.0001 27,17.4481 27,18.0001 C27,18.5521 26.553,19.0001 26,19.0001 C25.447,19.0001 25,18.5521 25,18.0001 C25,17.4481 25.447,17.0001 26,17.0001" id="Fill-20" fill="#9B9B9B"></path>
                <path d="M26,21.0001 C26.553,21.0001 27,21.4471 27,22.0001 C27,22.5521 26.553,23.0001 26,23.0001 C25.447,23.0001 25,22.5521 25,22.0001 C25,21.4471 25.447,21.0001 26,21.0001" id="Fill-22" fill="#9B9B9B"></path>
                <path d="M14,13.0001 C14.552,13.0001 15,13.4481 15,14.0001 C15,14.5521 14.552,15.0001 14,15.0001 C13.448,15.0001 13,14.5521 13,14.0001 C13,13.4481 13.448,13.0001 14,13.0001" id="Fill-24" fill="#9B9B9B"></path>
                <path d="M14,17.0001 C14.552,17.0001 15,17.4481 15,18.0001 C15,18.5521 14.552,19.0001 14,19.0001 C13.448,19.0001 13,18.5521 13,18.0001 C13,17.4481 13.448,17.0001 14,17.0001" id="Fill-26" fill="#9B9B9B"></path>
                <path d="M14,21.0001 C14.552,21.0001 15,21.4471 15,22.0001 C15,22.5521 14.552,23.0001 14,23.0001 C13.448,23.0001 13,22.5521 13,22.0001 C13,21.4471 13.448,21.0001 14,21.0001" id="Fill-28" fill="#9B9B9B"></path>
                <path d="M14,25.0001 C14.552,25.0001 15,25.4471 15,26.0001 C15,26.5521 14.552,27.0001 14,27.0001 C13.448,27.0001 13,26.5521 13,26.0001 C13,25.4471 13.448,25.0001 14,25.0001" id="Fill-30" fill="#9B9B9B"></path>
                <path d="M10,13.0001 C10.552,13.0001 11,13.4481 11,14.0001 C11,14.5521 10.552,15.0001 10,15.0001 C9.448,15.0001 9,14.5521 9,14.0001 C9,13.4481 9.448,13.0001 10,13.0001" id="Fill-32" fill="#9B9B9B"></path>
                <path d="M10,17.0001 C10.552,17.0001 11,17.4481 11,18.0001 C11,18.5521 10.552,19.0001 10,19.0001 C9.448,19.0001 9,18.5521 9,18.0001 C9,17.4481 9.448,17.0001 10,17.0001" id="Fill-34" fill="#9B9B9B"></path>
                <path d="M10,21.0001 C10.552,21.0001 11,21.4471 11,22.0001 C11,22.5521 10.552,23.0001 10,23.0001 C9.448,23.0001 9,22.5521 9,22.0001 C9,21.4471 9.448,21.0001 10,21.0001" id="Fill-36" fill="#9B9B9B"></path>
                <path d="M10,25.0001 C10.552,25.0001 11,25.4471 11,26.0001 C11,26.5521 10.552,27.0001 10,27.0001 C9.448,27.0001 9,26.5521 9,26.0001 C9,25.4471 9.448,25.0001 10,25.0001" id="Fill-38" fill="#9B9B9B"></path>
                <path d="M18,13.0001 C18.553,13.0001 19,13.4481 19,14.0001 C19,14.5521 18.553,15.0001 18,15.0001 C17.447,15.0001 17,14.5521 17,14.0001 C17,13.4481 17.447,13.0001 18,13.0001" id="Fill-40" fill="#9B9B9B"></path>
                <path d="M18,17.0001 C18.553,17.0001 19,17.4481 19,18.0001 C19,18.5521 18.553,19.0001 18,19.0001 C17.447,19.0001 17,18.5521 17,18.0001 C17,17.4481 17.447,17.0001 18,17.0001" id="Fill-42" fill="#9B9B9B"></path>
                <path d="M18,21.0001 C18.553,21.0001 19,21.4471 19,22.0001 C19,22.5521 18.553,23.0001 18,23.0001 C17.447,23.0001 17,22.5521 17,22.0001 C17,21.4471 17.447,21.0001 18,21.0001" id="Fill-44" fill="#9B9B9B"></path>
                <path d="M18,25.0001 C18.553,25.0001 19,25.4471 19,26.0001 C19,26.5521 18.553,27.0001 18,27.0001 C17.447,27.0001 17,26.5521 17,26.0001 C17,25.4471 17.447,25.0001 18,25.0001" id="Fill-46" fill="#9B9B9B"></path>
            </g>
        </g>
    </g>
</svg>