<?xml version="1.0" encoding="UTF-8"?>
<svg width="66px" height="73px" viewBox="0 0 66 73" version="1.1" xmlns="http://www.w3.org/2000/svg" xmlns:xlink="http://www.w3.org/1999/xlink">
    <!-- Generator: Sketch 49.3 (51167) - http://www.bohemiancoding.com/sketch -->
    <title>Group 14</title>
    <desc>Created with Sketch.</desc>
    <defs>
        <polygon id="path-1" points="0 0 40.4890605 0 40.4890605 49.2943692 0 49.2943692"></polygon>
        <polygon id="path-3" points="0 0 40.4890605 0 40.4890605 49.2943692 0 49.2943692"></polygon>
        <polygon id="path-5" points="0 0 40.4890605 0 40.4890605 49.2943692 0 49.2943692"></polygon>
        <polygon id="path-7" points="0.00139634801 0.27090283 25.8281096 0.27090283 25.8281096 29.6781538 0.00139634801 29.6781538"></polygon>
    </defs>
    <g id="Desktop" stroke="none" stroke-width="1" fill="none" fill-rule="evenodd">
        <g id="1.3.-Filtros" transform="translate(-581.000000, -143.000000)">
            <g id="Group-14" style="mix-blend-mode: multiply;" transform="translate(575.000000, 132.000000)">
                <g id="Group-11">
                    <g id="Group-10" transform="translate(30.258260, 32.336561) rotate(-30.000000) translate(-30.258260, -32.336561) translate(9.758260, 7.336561)">
                        <path d="M4.97258861,6.40837155 L4.97258861,41.5890324 C4.74953661,43.7151486 5.69177851,44.7782067 7.79931428,44.7782067 C9.90685006,44.7782067 18.2822592,44.7782067 32.9255418,44.7782067 C34.1796789,44.4534419 34.8067474,43.3903838 34.8067474,41.5890324 C34.8067474,39.787681 34.8067474,31.1189272 34.8067474,15.5827709 L23.2277137,4.1978109 L6.83110058,4.1978109 C6.20639688,4.12347463 5.74046896,4.33438018 5.43331682,4.83052756 C5.12616468,5.32667495 4.97258861,5.85262295 4.97258861,6.40837155 Z" id="Path-8" fill="#FFFFFF"></path>
                        <g id="Page-1">
                            <mask id="mask-2" fill="white">
                                <use xlink:href="#path-1"></use>
                            </mask>
                            <g id="Clip-2"></g>
                            <path d="M11.1604462,21.3263527 L28.3942514,21.3263527 C28.5499785,21.3263527 28.7057057,21.4820191 28.7057057,21.6376855 C28.7057057,21.793352 28.5499785,21.9490184 28.3942514,21.9490184 L11.1604462,21.9490184 C11.004719,21.9490184 10.8489918,21.793352 10.8489918,21.6376855 C10.7970828,21.4301303 10.95281,21.3263527 11.1604462,21.3263527 Z M28.7057057,27.2935658 C28.7057057,27.4492322 28.5499785,27.6048986 28.3942514,27.6048986 L11.1604462,27.6048986 C11.004719,27.6048986 10.8489918,27.4492322 10.8489918,27.2935658 C10.8489918,27.1378994 11.004719,26.981714 11.1604462,26.981714 L28.3942514,26.981714 C28.5499785,26.981714 28.7057057,27.0860105 28.7057057,27.2935658 Z M28.7057057,38.6566962 C28.7057057,38.8128815 28.5499785,38.968548 28.3942514,38.968548 L11.1604462,38.968548 C11.004719,38.968548 10.8489918,38.8128815 10.8489918,38.6566962 C10.8489918,38.5015487 11.004719,38.3458823 11.1604462,38.3458823 L28.3942514,38.3458823 C28.5499785,38.3458823 28.7057057,38.5015487 28.7057057,38.6566962 Z M28.7057057,32.9489272 C28.7057057,33.1051125 28.5499785,33.2607789 28.3942514,33.2607789 L11.1604462,33.2607789 C11.004719,33.2607789 10.8489918,33.1051125 10.8489918,32.9489272 C10.8489918,32.7937796 11.004719,32.6381132 11.1604462,32.6381132 L28.3942514,32.6381132 C28.5499785,32.6381132 28.7057057,32.7418908 28.7057057,32.9489272 Z M34.3637924,42.9639863 C34.3637924,43.7942073 33.6889747,44.4687618 32.8584299,44.4687618 L6.8000858,44.4687618 C5.96954097,44.4687618 5.29472329,43.7942073 5.29472329,42.9639863 L5.29472329,5.70782096 C5.29472329,4.8776 5.96954097,4.20304547 6.8000858,4.20304547 L22.9438009,4.20304547 L22.9438009,15.2553619 C22.9438009,15.4110284 23.0995281,15.5666948 23.2552553,15.5666948 L34.3637924,15.5666948 L34.3637924,42.9639863 Z M33.8966109,14.9959179 L23.5667096,14.9959179 L23.5667096,4.67004476 L33.8966109,14.9959179 Z M34.986701,15.2553619 C34.986701,15.1515843 34.9347919,15.0996955 34.8828829,15.0478067 L23.4628915,3.68415738 C23.4628915,3.68415738 23.4109824,3.63226857 23.3590734,3.63226857 L23.3071643,3.63226857 L23.2552553,3.63226857 L6.8000858,3.63226857 C5.60617761,3.63226857 4.67181467,4.56626714 4.67181467,5.75970976 L4.67181467,42.9639863 C4.67181467,44.1574289 5.60617761,45.0914275 6.8000858,45.0914275 L32.8584299,45.0914275 C34.000429,45.0914275 34.986701,44.1574289 34.986701,42.9639863 L34.986701,15.2553619 C35.03861,15.3072507 34.986701,15.2553619 34.986701,15.2553619 Z" id="Fill-1" stroke="#ED8C04" fill="#ED8C04" mask="url(#mask-2)"></path>
                        </g>
                    </g>
                    <g id="Group-10" transform="translate(43.923486, 34.851998) rotate(-15.000000) translate(-43.923486, -34.851998) translate(23.423486, 9.851998)">
                        <path d="M4.97258861,6.40837155 L4.97258861,41.5890324 C4.74953661,43.7151486 5.69177851,44.7782067 7.79931428,44.7782067 C9.90685006,44.7782067 18.2822592,44.7782067 32.9255418,44.7782067 C34.1796789,44.4534419 34.8067474,43.3903838 34.8067474,41.5890324 C34.8067474,39.787681 34.8067474,31.1189272 34.8067474,15.5827709 L23.2277137,4.1978109 L6.83110058,4.1978109 C6.20639688,4.12347463 5.74046896,4.33438018 5.43331682,4.83052756 C5.12616468,5.32667495 4.97258861,5.85262295 4.97258861,6.40837155 Z" id="Path-8" fill="#FFFFFF"></path>
                        <g id="Page-1">
                            <mask id="mask-4" fill="white">
                                <use xlink:href="#path-3"></use>
                            </mask>
                            <g id="Clip-2"></g>
                            <path d="M11.1604462,21.3263527 L28.3942514,21.3263527 C28.5499785,21.3263527 28.7057057,21.4820191 28.7057057,21.6376855 C28.7057057,21.793352 28.5499785,21.9490184 28.3942514,21.9490184 L11.1604462,21.9490184 C11.004719,21.9490184 10.8489918,21.793352 10.8489918,21.6376855 C10.7970828,21.4301303 10.95281,21.3263527 11.1604462,21.3263527 Z M28.7057057,27.2935658 C28.7057057,27.4492322 28.5499785,27.6048986 28.3942514,27.6048986 L11.1604462,27.6048986 C11.004719,27.6048986 10.8489918,27.4492322 10.8489918,27.2935658 C10.8489918,27.1378994 11.004719,26.981714 11.1604462,26.981714 L28.3942514,26.981714 C28.5499785,26.981714 28.7057057,27.0860105 28.7057057,27.2935658 Z M28.7057057,38.6566962 C28.7057057,38.8128815 28.5499785,38.968548 28.3942514,38.968548 L11.1604462,38.968548 C11.004719,38.968548 10.8489918,38.8128815 10.8489918,38.6566962 C10.8489918,38.5015487 11.004719,38.3458823 11.1604462,38.3458823 L28.3942514,38.3458823 C28.5499785,38.3458823 28.7057057,38.5015487 28.7057057,38.6566962 Z M28.7057057,32.9489272 C28.7057057,33.1051125 28.5499785,33.2607789 28.3942514,33.2607789 L11.1604462,33.2607789 C11.004719,33.2607789 10.8489918,33.1051125 10.8489918,32.9489272 C10.8489918,32.7937796 11.004719,32.6381132 11.1604462,32.6381132 L28.3942514,32.6381132 C28.5499785,32.6381132 28.7057057,32.7418908 28.7057057,32.9489272 Z M34.3637924,42.9639863 C34.3637924,43.7942073 33.6889747,44.4687618 32.8584299,44.4687618 L6.8000858,44.4687618 C5.96954097,44.4687618 5.29472329,43.7942073 5.29472329,42.9639863 L5.29472329,5.70782096 C5.29472329,4.8776 5.96954097,4.20304547 6.8000858,4.20304547 L22.9438009,4.20304547 L22.9438009,15.2553619 C22.9438009,15.4110284 23.0995281,15.5666948 23.2552553,15.5666948 L34.3637924,15.5666948 L34.3637924,42.9639863 Z M33.8966109,14.9959179 L23.5667096,14.9959179 L23.5667096,4.67004476 L33.8966109,14.9959179 Z M34.986701,15.2553619 C34.986701,15.1515843 34.9347919,15.0996955 34.8828829,15.0478067 L23.4628915,3.68415738 C23.4628915,3.68415738 23.4109824,3.63226857 23.3590734,3.63226857 L23.3071643,3.63226857 L23.2552553,3.63226857 L6.8000858,3.63226857 C5.60617761,3.63226857 4.67181467,4.56626714 4.67181467,5.75970976 L4.67181467,42.9639863 C4.67181467,44.1574289 5.60617761,45.0914275 6.8000858,45.0914275 L32.8584299,45.0914275 C34.000429,45.0914275 34.986701,44.1574289 34.986701,42.9639863 L34.986701,15.2553619 C35.03861,15.3072507 34.986701,15.2553619 34.986701,15.2553619 Z" id="Fill-1" stroke="#ED8C04" fill="#ED8C04" mask="url(#mask-4)"></path>
                        </g>
                    </g>
                    <g id="Group-10" transform="translate(35.817246, 14.186743)">
                        <path d="M4.97258861,6.40837155 L4.97258861,41.5890324 C4.74953661,43.7151486 5.69177851,44.7782067 7.79931428,44.7782067 C9.90685006,44.7782067 18.2822592,44.7782067 32.9255418,44.7782067 C34.1796789,44.4534419 34.8067474,43.3903838 34.8067474,41.5890324 C34.8067474,39.787681 34.8067474,31.1189272 34.8067474,15.5827709 L23.2277137,4.1978109 L6.83110058,4.1978109 C6.20639688,4.12347463 5.74046896,4.33438018 5.43331682,4.83052756 C5.12616468,5.32667495 4.97258861,5.85262295 4.97258861,6.40837155 Z" id="Path-8" fill="#FFFFFF"></path>
                        <g id="Page-1">
                            <mask id="mask-6" fill="white">
                                <use xlink:href="#path-5"></use>
                            </mask>
                            <g id="Clip-2"></g>
                            <path d="M11.1604462,21.3263527 L28.3942514,21.3263527 C28.5499785,21.3263527 28.7057057,21.4820191 28.7057057,21.6376855 C28.7057057,21.793352 28.5499785,21.9490184 28.3942514,21.9490184 L11.1604462,21.9490184 C11.004719,21.9490184 10.8489918,21.793352 10.8489918,21.6376855 C10.7970828,21.4301303 10.95281,21.3263527 11.1604462,21.3263527 Z M28.7057057,27.2935658 C28.7057057,27.4492322 28.5499785,27.6048986 28.3942514,27.6048986 L11.1604462,27.6048986 C11.004719,27.6048986 10.8489918,27.4492322 10.8489918,27.2935658 C10.8489918,27.1378994 11.004719,26.981714 11.1604462,26.981714 L28.3942514,26.981714 C28.5499785,26.981714 28.7057057,27.0860105 28.7057057,27.2935658 Z M28.7057057,38.6566962 C28.7057057,38.8128815 28.5499785,38.968548 28.3942514,38.968548 L11.1604462,38.968548 C11.004719,38.968548 10.8489918,38.8128815 10.8489918,38.6566962 C10.8489918,38.5015487 11.004719,38.3458823 11.1604462,38.3458823 L28.3942514,38.3458823 C28.5499785,38.3458823 28.7057057,38.5015487 28.7057057,38.6566962 Z M28.7057057,32.9489272 C28.7057057,33.1051125 28.5499785,33.2607789 28.3942514,33.2607789 L11.1604462,33.2607789 C11.004719,33.2607789 10.8489918,33.1051125 10.8489918,32.9489272 C10.8489918,32.7937796 11.004719,32.6381132 11.1604462,32.6381132 L28.3942514,32.6381132 C28.5499785,32.6381132 28.7057057,32.7418908 28.7057057,32.9489272 Z M34.3637924,42.9639863 C34.3637924,43.7942073 33.6889747,44.4687618 32.8584299,44.4687618 L6.8000858,44.4687618 C5.96954097,44.4687618 5.29472329,43.7942073 5.29472329,42.9639863 L5.29472329,5.70782096 C5.29472329,4.8776 5.96954097,4.20304547 6.8000858,4.20304547 L22.9438009,4.20304547 L22.9438009,15.2553619 C22.9438009,15.4110284 23.0995281,15.5666948 23.2552553,15.5666948 L34.3637924,15.5666948 L34.3637924,42.9639863 Z M33.8966109,14.9959179 L23.5667096,14.9959179 L23.5667096,4.67004476 L33.8966109,14.9959179 Z M34.986701,15.2553619 C34.986701,15.1515843 34.9347919,15.0996955 34.8828829,15.0478067 L23.4628915,3.68415738 C23.4628915,3.68415738 23.4109824,3.63226857 23.3590734,3.63226857 L23.3071643,3.63226857 L23.2552553,3.63226857 L6.8000858,3.63226857 C5.60617761,3.63226857 4.67181467,4.56626714 4.67181467,5.75970976 L4.67181467,42.9639863 C4.67181467,44.1574289 5.60617761,45.0914275 6.8000858,45.0914275 L32.8584299,45.0914275 C34.000429,45.0914275 34.986701,44.1574289 34.986701,42.9639863 L34.986701,15.2553619 C35.03861,15.3072507 34.986701,15.2553619 34.986701,15.2553619 Z" id="Fill-1" stroke="#ED8C04" fill="#ED8C04" mask="url(#mask-6)"></path>
                        </g>
                    </g>
                </g>
                <g id="Group-12" transform="translate(28.000000, 48.000000)">
                    <ellipse id="Oval" fill="#FFFFFF" cx="9.55102041" cy="8.29757412" rx="8.48979592" ry="8.29757412"></ellipse>
                    <g id="Page-1" transform="translate(0.000000, 1.555795)">
                        <path d="M5.42751167,12.9649596 L5.42751167,11.6673834 C4.10906857,10.5858449 3.22597346,8.96691278 3.22597346,7.13059274 C3.22597346,3.88732749 5.98134044,1.18685685 9.28640313,1.18685685 C12.5955989,1.18685685 15.3509659,3.88732749 15.3509659,7.13059274 C15.3509659,8.53348724 14.7971371,9.93638174 13.914042,10.9072009 C14.3549007,10.9072009 14.6896778,11.0179202 15.1305365,11.1232386 C16.0136316,9.93638174 16.4489796,8.53348724 16.4489796,7.01987344 C16.4489796,3.13254595 13.2568869,0 9.28640313,0 C5.32005236,0 2.12244898,3.13254595 2.12244898,7.01987344 C2.12244898,9.50430644 3.44640281,11.6673834 5.42751167,12.9649596" id="Fill-1" fill="#ED8C04"></path>
                        <g id="Group-8" transform="translate(0.000000, 2.074394)">
                            <path d="M14.6570462,5.19785973 C14.6570462,2.47521822 12.421493,0.301188976 9.62879699,0.301188976 C6.83610097,0.301188976 4.60473684,2.47521822 4.60473684,5.19785973 C4.60473684,6.39446067 5.05156821,7.4848786 5.71762621,8.24994086 L5.71762621,5.19785973 C5.71762621,3.1300135 7.50634801,1.3848003 9.62879699,1.3848003 C11.7498496,1.3848003 13.5385714,3.1300135 13.5385714,5.19785973 L13.5385714,8.24994086 C14.2102148,7.4848786 14.6570462,6.39446067 14.6570462,5.19785973" id="Fill-3" fill="#ED8C04"></path>
                            <g id="Group-7" transform="translate(0.000000, 2.204043)">
                                <mask id="mask-8" fill="white">
                                    <use xlink:href="#path-7"></use>
                                </mask>
                                <g id="Clip-6"></g>
                                <path d="M24.7096348,16.2827575 L24.7096348,20.4198113 C24.7096348,24.6684934 20.9129646,28.5877358 16.3315467,28.5877358 C12.0866488,28.5877358 9.62907626,26.300717 7.62112782,23.1424528 C3.26312567,15.9533179 0.131117078,12.6875094 1.36548872,11.4909085 C2.59148228,10.2902236 5.60899033,12.9053208 7.95345865,15.2985226 L7.95345865,2.99354434 C7.95345865,2.12229906 8.73401719,1.36132075 9.62907626,1.36132075 C10.522739,1.36132075 11.3019012,2.12229906 11.3019012,2.99354434 L11.3019012,14.4327226 L12.4217723,14.4327226 L12.4217723,10.6196632 C12.4217723,9.7470566 13.2065199,8.98743962 14.0945972,8.98743962 C14.9896563,8.98743962 15.7758002,9.7470566 15.7758002,10.6196632 L15.7758002,13.3423047 L16.8872932,13.3423047 L16.8872932,11.7100811 C16.8872932,10.8374745 17.6734372,10.0710509 18.5684962,10.0710509 C19.4565736,10.0710509 20.2427175,10.8374745 20.2427175,11.7100811 L20.2427175,14.4327226 L21.3611923,14.4327226 L21.3611923,13.8841104 C21.3611923,13.0128651 22.1403545,12.2518868 23.0354135,12.2518868 C23.9290763,12.2518868 24.7096348,13.0128651 24.7096348,13.8841104 L24.7096348,16.2827575 Z M23.0354135,11.1614689 C22.3637701,11.1614689 21.8080236,11.3792802 21.3611923,11.7100811 C21.3611923,10.1826792 20.128217,8.98743962 18.5684962,8.98743962 C17.8968528,8.98743962 17.2266058,9.20525094 16.6638776,9.6354283 C16.2226316,8.55045566 15.213072,7.8970217 14.0945972,7.8970217 C13.4299356,7.8970217 12.8686037,8.11483302 12.4217723,8.43882736 L12.4217723,2.99354434 C12.4217723,1.46750377 11.1943824,0.27090283 9.62907626,0.27090283 C8.06795918,0.27090283 6.83638024,1.46750377 6.83638024,2.99354434 L6.83638024,12.6875094 C4.60501611,10.7258462 2.14465091,9.20525094 0.579344791,10.7258462 C-1.65201933,12.9053208 3.03831364,17.1553642 6.61156821,23.5780755 C9.18084855,28.0459302 12.7596885,29.6781538 16.3315467,29.6781538 C21.5846079,29.6781538 25.8281096,25.5411 25.8281096,20.4198113 L25.8281096,13.8841104 C25.8281096,12.3580698 24.6007197,11.1614689 23.0354135,11.1614689 Z" id="Fill-5" fill="#ED8C04" mask="url(#mask-8)"></path>
                            </g>
                        </g>
                    </g>
                </g>
            </g>
        </g>
    </g>
</svg>