<?xml version="1.0" encoding="UTF-8"?>
<svg width="28px" height="28px" viewBox="0 0 28 28" version="1.1" xmlns="http://www.w3.org/2000/svg" xmlns:xlink="http://www.w3.org/1999/xlink">
    <!-- Generator: Sketch 49.3 (51167) - http://www.bohemiancoding.com/sketch -->
    <title>Page 1</title>
    <desc>Created with Sketch.</desc>
    <defs>
        <polygon id="path-1" points="3.97903932e-13 2.13162821e-14 32 2.13162821e-14 32 32 3.97903932e-13 32"></polygon>
    </defs>
    <g id="Desktop" stroke="none" stroke-width="1" fill="none" fill-rule="evenodd">
        <g id="2.-Presupuestos" transform="translate(-404.000000, -144.000000)">
            <g id="Page-1" transform="translate(402.000000, 142.000000)">
                <g id="Group-3">
                    <mask id="mask-2" fill="white">
                        <use xlink:href="#path-1"></use>
                    </mask>
                    <g id="Clip-2"></g>
                    <path d="M15.9323626,27.9392929 C9.35586319,27.9392929 4.00511754,22.5882281 4.00511754,16.0120478 C4.00511754,9.43554835 9.35586319,4.08480271 15.9323626,4.08480271 C22.508543,4.08480271 27.8596077,9.43554835 27.8596077,16.0120478 C27.8596077,22.5882281 22.5088621,27.9392929 15.9323626,27.9392929 M15.9323626,3.12743186 C8.82803273,3.12743186 3.0477467,8.90739877 3.0477467,16.0120478 C3.0477467,23.1166968 8.8277136,28.8966637 15.9323626,28.8966637 C23.0370117,28.8966637 28.8169786,23.1166968 28.8169786,16.0120478 C28.8169786,8.90739877 23.0370117,3.12743186 15.9323626,3.12743186" id="Fill-1" stroke="#9B9B9B" stroke-width="0.5" fill="#9B9B9B" mask="url(#mask-2)"></path>
                </g>
                <path d="M16.5112869,7 C16.2415173,7 16.0225739,7.21133858 16.0225739,7.47244094 L16.0225739,16.0551181 L10.4887131,16.0551181 C10.2186176,16.0551181 10,16.2664567 10,16.5275591 C10,16.7883465 10.2186176,17 10.4887131,17 L16.5112869,17 C16.7810566,17 17,16.7883465 17,16.5275591 L17,7.47244094 C17,7.21133858 16.7810566,7 16.5112869,7" id="Fill-4" fill="#9B9B9B"></path>
            </g>
        </g>
    </g>
</svg>