<?xml version="1.0" encoding="UTF-8"?>
<svg width="68px" height="63px" viewBox="0 0 68 63" version="1.1" xmlns="http://www.w3.org/2000/svg" xmlns:xlink="http://www.w3.org/1999/xlink">
    <!-- Generator: Sketch 49.3 (51167) - http://www.bohemiancoding.com/sketch -->
    <title>Page 1</title>
    <desc>Created with Sketch.</desc>
    <defs>
        <polygon id="path-1" points="0.221711538 0.565384615 2.48325 0.565384615 2.48325 13.3267615 0.221711538 13.3267615"></polygon>
    </defs>
    <g id="Desktop" stroke="none" stroke-width="1" fill="none" fill-rule="evenodd">
        <g id="1.2-Filtros" transform="translate(-650.000000, -150.000000)">
            <g id="Page-1" transform="translate(650.000000, 150.000000)">
                <path d="M7.08717692,51.0459115 C7.73333077,36.7497577 19.5256385,25.3612962 33.9833308,25.3612962 C48.4410231,25.3612962 60.2333308,36.7497577 60.8794846,51.0459115 L7.08717692,51.0459115 Z M32.1256385,21.9689885 C32.1256385,20.9997577 32.9333308,20.1920654 33.9025615,20.1920654 C34.8709846,20.1920654 35.6786769,20.9997577 35.6786769,21.9689885 C35.6786769,22.3728346 35.5179462,22.6959115 35.3564077,23.0189885 L33.9025615,23.0189885 L32.4487154,23.0189885 C32.2064077,22.6959115 32.1256385,22.2920654 32.1256385,21.9689885 Z M37.9410231,23.1805269 C38.1017538,22.7766808 38.1833308,22.3728346 38.1833308,21.8882192 C38.1833308,19.5459115 36.2448692,17.6882192 33.9833308,17.6882192 C31.6410231,17.6882192 29.7833308,19.6266808 29.7833308,21.8882192 C29.7833308,22.3728346 29.8641,22.7766808 30.0256385,23.1805269 C15.7294846,25.1189885 4.74486923,37.3959115 4.74486923,52.1766808 L4.74486923,53.3882192 L63.3833308,53.3882192 L63.3833308,52.1766808 C63.2217923,37.4766808 52.2363692,25.1997577 37.9410231,23.1805269 Z" id="Fill-1" fill="#ED8C04"></path>
                <path d="M10.9639385,48.4611346 L10.7216308,48.4611346 C10.0754769,48.3004038 9.7524,47.7350192 9.91393846,47.0888654 C11.7716308,39.25425 17.7485538,32.5495962 26.0677846,29.0765192 C26.6331692,28.8350192 27.2793231,29.0765192 27.5216308,29.7226731 C27.7639385,30.2880577 27.5216308,30.9342115 26.8754769,31.1773269 C19.2831692,34.3265192 13.7100923,40.4657885 12.0139385,47.5726731 C11.9331692,48.0572885 11.4485538,48.4611346 10.9639385,48.4611346" id="Fill-3" fill="#ED8C04"></path>
                <path d="M5.39094231,60.0922269 L62.4140192,60.0922269 L64.6755577,57.1037654 L3.12940385,57.1037654 L5.39094231,60.0922269 Z M62.4947885,62.4345346 L5.31017308,62.4345346 C4.66401923,62.4345346 4.01786538,62.1114577 3.61401923,61.6268423 L0.302480769,57.3460731 C-0.0205961538,56.8614577 -0.101365385,56.2960731 0.140942308,55.7306885 C0.38325,55.2460731 0.948634615,54.9229962 1.51401923,54.9229962 L66.2909423,54.9229962 C66.8563269,54.9229962 67.4217115,55.2460731 67.6640192,55.7306885 C67.9063269,56.2153038 67.8255577,56.8614577 67.5024808,57.3460731 L64.1909423,61.6268423 C63.7870962,62.1114577 63.1409423,62.4345346 62.4947885,62.4345346 Z" id="Fill-5" fill="#ED8C04"></path>
                <g id="Group-9" transform="translate(32.307692, 0.242308)">
                    <mask id="mask-2" fill="white">
                        <use xlink:href="#path-1"></use>
                    </mask>
                    <g id="Clip-8"></g>
                    <path d="M1.35248077,13.3267615 C0.706326923,13.3267615 0.221711538,12.8421462 0.221711538,12.1959923 L0.221711538,1.69599231 C0.221711538,1.04983846 0.706326923,0.565223077 1.35248077,0.565223077 C1.99863462,0.565223077 2.48325,1.04983846 2.48325,1.61522308 L2.48325,12.1152231 C2.48325,12.7613769 1.91786538,13.3267615 1.35248077,13.3267615" id="Fill-7" fill="#ED8C04" mask="url(#mask-2)"></path>
                </g>
                <path d="M20.0907,16.8806885 C19.6868538,16.8806885 19.2830077,16.6383808 19.1214692,16.3153038 L13.8714692,7.18838077 C13.5483923,6.62299615 13.7099308,5.97684231 14.2753154,5.65376538 C14.8407,5.33068846 15.4868538,5.49222692 15.8099308,6.05761154 L21.0599308,15.1845346 C21.3830077,15.7499192 21.2214692,16.3960731 20.6560846,16.71915 C20.4945462,16.7999192 20.3330077,16.8806885 20.0907,16.8806885" id="Fill-10" fill="#ED8C04"></path>
                <path d="M47.1483923,16.8806885 C46.9868538,16.8806885 46.7445462,16.7999192 46.5830077,16.71915 C46.0184308,16.3960731 45.8560846,15.7499192 46.1791615,15.1845346 L51.4291615,6.05761154 C51.7522385,5.49222692 52.3983923,5.33068846 52.9637769,5.65376538 C53.5291615,5.97684231 53.6915077,6.62299615 53.3676231,7.18838077 L48.1176231,16.3153038 C47.9560846,16.6383808 47.5522385,16.8806885 47.1483923,16.8806885" id="Fill-12" fill="#ED8C04"></path>
            </g>
        </g>
    </g>
</svg>