<?xml version="1.0" encoding="UTF-8"?>
<svg width="86px" height="59px" viewBox="0 0 86 59" version="1.1" xmlns="http://www.w3.org/2000/svg" xmlns:xlink="http://www.w3.org/1999/xlink">
    <!-- Generator: Sketch 49.3 (51167) - http://www.bohemiancoding.com/sketch -->
    <title>Group 3</title>
    <desc>Created with Sketch.</desc>
    <defs>
        <polygon id="path-1" points="0 0 43 0 43 38 0 38"></polygon>
    </defs>
    <g id="Desktop" stroke="none" stroke-width="1" fill="none" fill-rule="evenodd">
        <g id="1.3-Filtros" transform="translate(-577.000000, -150.000000)">
            <g id="Group-3" transform="translate(566.000000, 150.000000)">
                <g id="Page-1" transform="translate(54.000000, 0.000000)">
                    <mask id="mask-2" fill="white">
                        <use xlink:href="#path-1"></use>
                    </mask>
                    <g id="Clip-2"></g>
                    <path d="M36.2441162,33.9379263 C36.1756074,34.3100082 35.7565375,34.5444413 35.3906712,34.4053587 L20.2801025,28.530192 C20.2035767,28.5000814 20.1241356,28.4843091 20.0454234,28.4692538 L42.1774177,1.54600685 L36.2441162,33.9379263 Z M17.8363782,35.9094587 L19.1555375,29.6521732 C19.2327921,29.2865436 19.651862,29.055695 20.0126266,29.1969285 L22.5868092,30.19775 L17.8363782,35.9094587 Z M16.2621329,37.0830582 L12.8519968,27.7982158 C12.7477759,27.5128813 12.5881649,27.2590913 12.4059606,27.0225074 L39.4611157,3.70967408 L18.7568744,28.8972555 C18.7473998,28.9080093 18.7452133,28.9216308 18.7371963,28.9338185 C18.5958058,29.0958426 18.4879408,29.2879774 18.4420253,29.5066383 L16.8532037,37.0414768 C16.8043729,37.2708915 16.5915583,37.2830791 16.5492869,37.2830791 C16.4851509,37.2830791 16.3284552,37.2637223 16.2621329,37.0830582 Z M11.1181405,26.0410427 L1.12824202,22.1567654 C0.89064759,22.0642826 0.741968865,21.8592432 0.729578971,21.6083209 C0.717917895,21.3573986 0.847647371,21.1394546 1.07576718,21.0261811 L41.7328392,0.798975291 L11.897975,26.5070413 C11.6618382,26.319208 11.4060233,26.1535993 11.1181405,26.0410427 Z M42.7633868,0.361653552 C42.4623853,0.00677771357 41.9361792,-0.104345024 41.5120075,0.106429717 L0.746341769,20.3866877 C0.262407095,20.6275731 -0.0232892793,21.1079101 0.0014905082,21.6420162 C0.026999113,22.1746884 0.355695707,22.6277824 0.860766082,22.8235018 L10.8506645,26.7077791 C11.4635999,26.9457969 11.9431616,27.4318692 12.1669086,28.041252 L15.5770446,37.3268113 C15.727181,37.7354562 16.1090812,38 16.5492869,38 C16.891831,38 17.1884596,37.8343913 17.3786809,37.5791674 C17.3874267,37.5705644 17.3990878,37.5669798 17.406376,37.5583767 L23.2981349,30.4744815 L35.1231953,35.0720951 C35.2842639,35.1344672 35.4518918,35.1660117 35.6224351,35.1660117 C36.2820147,35.1660117 36.8439329,34.7028809 36.9612724,34.0655382 L42.9834896,1.18611257 C43.0374221,0.890741164 42.957981,0.590351314 42.7633868,0.361653552 Z" id="Fill-1" stroke="#ED8C04" fill="#ED8C04" mask="url(#mask-2)"></path>
                </g>
                <path d="M33.2010761,0.181361321 C27.860339,2.24854303 25.3698614,2.10462774 22.1659547,6.67117456 C13.8468482,18.5284454 18.9758697,39.2310992 30.0858983,47.6083562 C34.2156061,50.7222657 43.6558755,56.2609074 48.5440256,54.7424819 C57.9847257,51.8098796 62.1435023,30.4526466 47.2302468,33.5268622 C39.9422337,35.0292118 40.481451,43.3663461 41.7049214,48.9654587 C43.7020706,58.1052494 46.2125037,62.5802161 54.9514153,66.1813613" id="Path-6" stroke="#ED8C04" stroke-width="2" stroke-linecap="round" stroke-dasharray="5" transform="translate(37.550692, 33.181361) scale(-1, 1) rotate(-109.000000) translate(-37.550692, -33.181361) "></path>
            </g>
        </g>
    </g>
</svg>