<?xml version="1.0" encoding="UTF-8"?>
<svg width="12px" height="17px" viewBox="0 0 12 17" version="1.1" xmlns="http://www.w3.org/2000/svg" xmlns:xlink="http://www.w3.org/1999/xlink">
    <!-- Generator: Sketch 49.3 (51167) - http://www.bohemiancoding.com/sketch -->
    <title>Page 1</title>
    <desc>Created with Sketch.</desc>
    <defs>
        <polygon id="path-1" points="0 0 12 0 12 17 0 17"></polygon>
    </defs>
    <g id="Symbols" stroke="none" stroke-width="1" fill="none" fill-rule="evenodd">
        <g id="Molecules/presupuesto-dashboard/seleccionado" transform="translate(-225.000000, -44.000000)">
            <g id="Page-1" transform="translate(225.000000, 44.000000)">
                <mask id="mask-2" fill="white">
                    <use xlink:href="#path-1"></use>
                </mask>
                <g id="Clip-2"></g>
                <path d="M6,3.73362758 C7.18864286,3.73362758 8.14285714,4.65749298 8.14285714,5.80786512 C8.14285714,6.95823726 7.18864286,7.88210266 6,7.88210266 C4.81157143,7.88210266 3.85714286,6.95823726 3.85714286,5.80786512 C3.85714286,4.65749298 4.81157143,3.73362758 6,3.73362758 M6,2.90393256 C4.34828571,2.90393256 3,4.20904282 3,5.80786512 C3,7.40668742 4.34828571,8.71179768 6,8.71179768 C7.65171429,8.71179768 9,7.40668742 9,5.80786512 C9,4.20904282 7.65171429,2.90393256 6,2.90393256 M6,0.829695017 C8.8365,0.829695017 11.1428571,3.13811398 11.1428571,6.01528888 C11.1428571,7.05178538 10.8261429,8.24488681 10.3257857,9.02936345 L6,15.8096311 L1.67421429,9.02936345 C1.17364286,8.24509423 0.857142857,7.05178538 0.857142857,6.01528888 C0.857142857,3.13811398 3.1635,0.829695017 6,0.829695017 M6,0 C2.68242857,0 0,2.70625772 0,6.01528888 C0,7.20839031 0.330428571,8.50209227 0.944142857,9.46370879 L5.6385,16.8077542 C5.76557143,17.0010732 6.03042857,17.0581147 6.23014286,16.9351124 C6.28307143,16.9025469 6.32785714,16.8589879 6.3615,16.8077542 L11.0558571,9.46370879 C11.6691429,8.50209227 12,7.20839031 12,6.01528888 C12,2.70625772 9.31735714,0 6,0" id="Fill-1" fill="#ED8C04" mask="url(#mask-2)"></path>
            </g>
        </g>
    </g>
</svg>