<?xml version="1.0" encoding="UTF-8"?>
<svg width="14px" height="19px" viewBox="0 0 14 19" version="1.1" xmlns="http://www.w3.org/2000/svg" xmlns:xlink="http://www.w3.org/1999/xlink">
    <!-- Generator: Sketch 49.3 (51167) - http://www.bohemiancoding.com/sketch -->
    <title>Page 1</title>
    <desc>Created with Sketch.</desc>
    <defs>
        <polygon id="path-1" points="0.18469908 0.208788889 6.57129691 0.208788889 6.57129691 18.6032523 0.18469908 18.6032523"></polygon>
    </defs>
    <g id="Symbols" stroke="none" stroke-width="1" fill="none" fill-rule="evenodd">
        <g id="Molecules/presupuesto-dashboard/seleccionado" transform="translate(-455.000000, -40.000000)">
            <g id="Group-4" transform="translate(455.000000, 40.000000)">
                <g id="Page-1">
                    <g id="Group-3" transform="translate(7.424242, 0.002428)">
                        <mask id="mask-2" fill="white">
                            <use xlink:href="#path-1"></use>
                        </mask>
                        <g id="Clip-2"></g>
                        <path d="M3.37800909,1.05304333 C3.76322121,1.05304333 4.22458485,1.32727667 4.67025152,2.06405444 C5.11549394,2.80104333 5.50494848,3.96679889 5.71070606,5.54738778 C5.78919091,6.15053222 5.54355455,6.50055444 5.14773636,6.92932111 C4.75191818,7.35808778 4.19361515,7.78875444 3.92082727,8.47951 C3.90152424,8.52848778 3.89155455,8.58126556 3.89134242,8.63383222 L3.89134242,16.7981322 C3.89134242,17.2026211 3.79016061,17.46651 3.68155455,17.6132322 C3.45055455,17.8891544 3.25519091,17.7650211 3.07446364,17.6132322 C2.96564545,17.46651 2.86446364,17.2026211 2.86446364,16.7981322 L2.86446364,8.63383222 C2.86446364,8.58105444 2.85428182,8.52806556 2.83476667,8.47887667 C2.56091818,7.78875444 2.00303939,7.35808778 1.60743333,6.92932111 C1.21182727,6.50076556 0.966615152,6.15074333 1.0451,5.54738778 C1.25085758,3.96679889 1.64031212,2.80104333 2.08576667,2.06426556 C2.53122121,1.32727667 2.99258485,1.05304333 3.37800909,1.05304333 Z M3.37800909,0.208598889 C2.59761515,0.208598889 1.89316061,0.745032222 1.35882727,1.62874333 C0.824493939,2.51266556 0.420190909,3.77785444 0.203827273,5.43866556 C0.0863121212,6.34074333 0.530493939,7.01059889 0.982524242,7.50058778 C1.40994848,7.96355444 1.8331303,8.33489889 2.01619091,8.72123222 L2.01619091,16.7981322 C2.01619091,17.34111 2.14940303,17.7878211 2.39228182,18.1148322 C2.97646364,18.7779322 3.8731,18.7540767 4.36373636,18.1148322 C4.60661515,17.7878211 4.73982727,17.34111 4.73982727,16.7981322 L4.73982727,8.72081 C4.92182727,8.33489889 5.34500909,7.96355444 5.77243333,7.50058778 C6.22488788,7.01059889 6.66970606,6.34074333 6.55219091,5.43866556 C6.33582727,3.77785444 5.93152424,2.51266556 5.39719091,1.62874333 C4.86285758,0.745032222 4.15840303,0.208598889 3.37800909,0.208598889 Z" id="Fill-1" fill="#ED8C04" mask="url(#mask-2)"></path>
                    </g>
                    <path d="M0.93549697,0.371935556 C0.756678788,0.398113333 0.603951515,0.550113333 0.577648485,0.72808 L0.0274060606,4.17193556 C-0.0769575758,4.81688 0.126678788,5.42889111 0.478163636,5.91360222 C0.774072727,6.32210222 1.16989091,6.65713556 1.60495152,6.89653556 L1.60495152,17.2344356 C1.60495152,18.0708578 2.29689091,18.7417689 3.13625455,18.7848356 C3.17995152,18.7994022 3.22640606,18.7848356 3.2688303,18.7848356 C4.0978,18.7322689 4.78019394,18.0643133 4.78019394,17.2344356 L4.78019394,6.89653556 C5.21525455,6.65713556 5.61107273,6.32210222 5.90698182,5.91360222 C6.25825455,5.42889111 6.46231515,4.81709111 6.35773939,4.17193556 L5.80092121,0.72808 C5.77058788,0.536391111 5.5917697,0.378691111 5.39661818,0.371935556 C5.14589091,0.364335556 4.92252727,0.620624444 4.9658,0.86678 L5.52261818,4.31042444 C5.58625455,4.70393556 5.46810303,5.07338 5.21758788,5.41875778 C4.96728485,5.76413556 4.58186061,6.06518 4.17692121,6.25011333 C4.03140606,6.31745778 3.93170909,6.47283556 3.93170909,6.63264667 L3.93170909,17.2344356 C3.93170909,17.6074689 3.61458788,17.9275133 3.20264848,17.9469356 C3.19564848,17.9467244 3.18928485,17.9469356 3.18270909,17.9469356 C2.7678,17.9275133 2.45343636,17.6074689 2.45343636,17.2344356 L2.45343636,6.63264667 C2.45343636,6.47283556 2.35373939,6.31745778 2.20822424,6.25011333 C1.80328485,6.06518 1.41786061,5.76413556 1.16755758,5.41875778 C0.917042424,5.07338 0.798678788,4.70393556 0.862527273,4.31042444 L1.41934545,0.86678 C1.46092121,0.631391111 1.26131515,0.383335556 1.02161818,0.371935556 C0.992981818,0.36898 0.964133333,0.36898 0.93549697,0.371935556 Z" id="Fill-4" fill="#ED8C04"></path>
                    <path d="M2.03888788,0.349663333 C1.80470606,0.353252222 1.61782727,0.54473 1.62100909,0.777796667 L1.62100909,5.10388556 C1.61697879,5.33695222 1.80364545,5.52927444 2.03782727,5.53328556 C2.27222121,5.53750778 2.46546364,5.35173 2.46949394,5.11866333 C2.46949394,5.11359667 2.46949394,5.10874111 2.46949394,5.10388556 L2.46949394,0.777796667 C2.47267576,0.54473 2.28558485,0.353041111 2.05140303,0.349663333 C2.04716061,0.349663333 2.0431303,0.349663333 2.03888788,0.349663333" id="Fill-6" fill="#ED8C04"></path>
                    <path d="M4.33130303,0.349663333 C4.09712121,0.353252222 3.91024242,0.54473 3.91342424,0.777796667 L3.91342424,5.10388556 C3.90939394,5.33695222 4.09606061,5.52927444 4.33024242,5.53328556 C4.56463636,5.53750778 4.75766667,5.35173 4.76190909,5.11845222 L4.76190909,5.10388556 L4.76190909,0.777796667 C4.76509091,0.54473 4.578,0.353041111 4.34360606,0.349663333 C4.33957576,0.349663333 4.33554545,0.349663333 4.33130303,0.349663333" id="Fill-8" fill="#ED8C04"></path>
                    <path d="M3.18618788,0.349663333 C2.95200606,0.353252222 2.76512727,0.54473 2.76830909,0.777796667 L2.76830909,5.10388556 C2.76385455,5.33695222 2.95030909,5.52948556 3.18449091,5.53391889 C3.41888485,5.53835222 3.61233939,5.35299667 3.61679394,5.11971889 C3.61679394,5.11444111 3.61679394,5.10916333 3.61679394,5.10388556 L3.61679394,0.777796667 C3.61997576,0.54473 3.43288485,0.353041111 3.19849091,0.349663333 C3.19446061,0.349663333 3.1904303,0.349663333 3.18618788,0.349663333" id="Fill-10" fill="#ED8C04"></path>
                </g>
            </g>
        </g>
    </g>
</svg>