<?xml version="1.0" encoding="UTF-8"?>
<svg width="447px" height="49px" viewBox="0 0 447 49" version="1.1" xmlns="http://www.w3.org/2000/svg" xmlns:xlink="http://www.w3.org/1999/xlink">
    <!-- Generator: Sketch 49.3 (51167) - http://www.bohemiancoding.com/sketch -->
    <title>Group 3</title>
    <desc>Created with Sketch.</desc>
    <defs></defs>
    <g id="Desktop" stroke="none" stroke-width="1" fill="none" fill-rule="evenodd">
        <g id="2.2-Presupuestos-descartado" transform="translate(-460.000000, -29.000000)">
            <g id="Molecules/headerweb/pedir" transform="translate(17.000000, 16.000000)">
                <g id="Group-3" transform="translate(444.000000, 14.000000)">
                    <path d="M24.9425001,48 L24.9425001,37.35 L29.3825001,37.35 C29.8525025,37.35 30.2849981,37.447499 30.6800001,37.6425 C31.0750021,37.837501 31.4149987,38.0974984 31.7000001,38.4225 C31.9850015,38.7475016 32.2074993,39.112498 32.3675001,39.5175 C32.5275009,39.922502 32.6075001,40.3349979 32.6075001,40.755 C32.6075001,41.1950022 32.5325009,41.6199979 32.3825001,42.03 C32.2324994,42.440002 32.0200015,42.8049984 31.7450001,43.125 C31.4699987,43.4450016 31.140002,43.699999 30.7550001,43.89 C30.3699982,44.0800009 29.9425025,44.175 29.4725001,44.175 L26.2925001,44.175 L26.2925001,48 L24.9425001,48 Z M26.2925001,42.975 L29.3975001,42.975 C29.6775015,42.975 29.929999,42.9175006 30.1550001,42.8025 C30.3800012,42.6874994 30.5724993,42.527501 30.7325001,42.3225 C30.8925009,42.117499 31.0174997,41.8800013 31.1075001,41.61 C31.1975006,41.3399986 31.2425001,41.0550015 31.2425001,40.755 C31.2425001,40.4449984 31.1900006,40.1550013 31.0850001,39.885 C30.9799996,39.6149986 30.840001,39.380001 30.6650001,39.18 C30.4899992,38.979999 30.2850013,38.8250005 30.0500001,38.715 C29.8149989,38.6049994 29.5675014,38.55 29.3075001,38.55 L26.2925001,38.55 L26.2925001,42.975 Z M43.0675001,46.8 L43.0675001,48 L35.8375001,48 L35.8375001,37.35 L42.9325001,37.35 L42.9325001,38.55 L37.1875001,38.55 L37.1875001,42 L42.1825001,42 L42.1825001,43.125 L37.1875001,43.125 L37.1875001,46.8 L43.0675001,46.8 Z M46.4625,48 L46.4625,37.35 L50.1525,37.35 C51.0025043,37.35 51.7499968,37.4899986 52.395,37.77 C53.0400032,38.0500014 53.5774979,38.4299976 54.0075,38.91 C54.4375022,39.3900024 54.7599989,39.9524968 54.975,40.5975 C55.1900011,41.2425032 55.2975,41.9299963 55.2975,42.66 C55.2975,43.470004 55.1775012,44.2024967 54.9375,44.8575 C54.6974988,45.5125033 54.3525023,46.0724977 53.9025,46.5375 C53.4524978,47.0025023 52.9100032,47.3624987 52.275,47.6175 C51.6399968,47.8725013 50.9325039,48 50.1525,48 L46.4625,48 Z M53.9325,42.66 C53.9325,42.059997 53.8500008,41.5075025 53.685,41.0025 C53.5199992,40.4974975 53.2750016,40.0650018 52.95,39.705 C52.6249984,39.3449982 52.2275024,39.062501 51.7575,38.8575 C51.2874977,38.652499 50.752503,38.55 50.1525,38.55 L47.8125,38.55 L47.8125,46.8 L50.1525,46.8 C50.7625031,46.8 51.3049976,46.695001 51.78,46.485 C52.2550024,46.2749989 52.6499984,45.9850018 52.965,45.615 C53.2800016,45.2449981 53.5199992,44.8075025 53.685,44.3025 C53.8500008,43.7974975 53.9325,43.2500029 53.9325,42.66 Z M58.7525,48 L58.7525,37.35 L60.1025,37.35 L60.1025,48 L58.7525,48 Z M64.2024999,48 L64.2024999,37.35 L68.7624999,37.35 C69.2325023,37.35 69.664998,37.447499 70.0599999,37.6425 C70.4550019,37.837501 70.7949985,38.0974984 71.0799999,38.4225 C71.3650014,38.7475016 71.5874991,39.112498 71.7474999,39.5175 C71.9075007,39.922502 71.9874999,40.3349979 71.9874999,40.755 C71.9874999,41.1250018 71.9350005,41.4824983 71.8299999,41.8275 C71.7249994,42.1725017 71.5750009,42.4849986 71.3799999,42.765 C71.184999,43.0450014 70.9500013,43.284999 70.6749999,43.485 C70.3999986,43.685001 70.0925016,43.8299995 69.7524999,43.92 L72.3324999,48 L70.8024999,48 L68.3724999,44.175 L65.5524999,44.175 L65.5524999,48 L64.2024999,48 Z M65.5524999,42.975 L68.7774999,42.975 C69.0575013,42.975 69.3099988,42.9150006 69.5349999,42.795 C69.7600011,42.6749994 69.9524991,42.512501 70.1124999,42.3075 C70.2725007,42.102499 70.3974995,41.8650013 70.4874999,41.595 C70.5775004,41.3249986 70.6224999,41.0450014 70.6224999,40.755 C70.6224999,40.4549985 70.5700005,40.1725013 70.4649999,39.9075 C70.3599994,39.6424987 70.2200008,39.407501 70.0449999,39.2025 C69.8699991,38.997499 69.6650011,38.8375006 69.4299999,38.7225 C69.1949988,38.6074994 68.9475012,38.55 68.6874999,38.55 L65.5524999,38.55 L65.5524999,42.975 Z" id="PEDIR" fill="#666666"></path>
                    <path d="M0,13 L445.001124,13" id="Path-3" stroke="#CCCCCC" stroke-width="2" stroke-linecap="round"></path>
                    <path d="M0,13 L213.190056,13" id="Path-3" stroke="#ED8C04" stroke-width="2" stroke-linecap="round"></path>
                    <circle id="Oval-4" stroke="#CCCCCC" stroke-width="2" fill="#FFFFFF" cx="398" cy="13" r="9"></circle>
                    <circle id="Oval-4" fill="#CCCCCC" cx="398" cy="13" r="4"></circle>
                    <g id="Group-2" transform="translate(30.000000, 0.000000)">
                        <circle id="Oval-4" stroke="#ED8C04" stroke-width="2" fill="#ED8C04" cx="13.5" cy="13.5" r="13.5"></circle>
                        <path d="M20.3510457,5.38163476 C20.1077949,5.13729276 19.7777135,5 19.4335135,5 C19.0893135,5 18.7592321,5.13729276 18.5159814,5.38163476 L7.38035326,14.7027698 C7.13683175,14.9468401 7,15.2780336 7,15.6233933 C7,15.968753 7.13683175,16.2999465 7.38035326,16.5440168 L12.4640649,21.6426879 C12.9719835,22.1435148 13.7873717,22.1397101 14.2906259,21.6341649 C14.7938801,21.1286196 14.7967111,20.3104802 14.2969677,19.8014409 L10.1318689,15.622309 L20.3510457,7.22288179 C20.5945672,6.97881147 20.7313989,6.64761798 20.7313989,6.30225827 C20.7313989,5.95689856 20.5945672,5.62570507 20.3510457,5.38163476 Z" id="Shape" fill="#FFFFFF" fill-rule="nonzero" transform="translate(13.865699, 13.507915) scale(-1, 1) rotate(-90.000000) translate(-13.865699, -13.507915) "></path>
                    </g>
                    <g id="Group" transform="translate(210.000000, 0.000000)">
                        <circle id="Oval-4" stroke="#ED8C04" stroke-width="2" fill="#FFFFFF" cx="13.5" cy="13.5" r="13.5"></circle>
                        <circle id="Oval-4" fill="#ED8C04" cx="13.5" cy="13.5" r="5.78571429"></circle>
                    </g>
                    <path d="M190,47.71 L190,37.06 L194.71,37.06 C195.200002,37.06 195.652498,37.162499 196.0675,37.3675 C196.482502,37.572501 196.839998,37.8424983 197.14,38.1775 C197.440002,38.5125017 197.674999,38.8924979 197.845,39.3175 C198.015001,39.7425021 198.1,40.1699979 198.1,40.6 C198.1,41.2900035 197.927502,41.9174972 197.5825,42.4825 C197.237498,43.0475028 196.770003,43.4549987 196.18,43.705 L198.61,47.71 L196.285,47.71 L194.11,44.14 L192.07,44.14 L192.07,47.71 L190,47.71 Z M192.07,42.325 L194.665,42.325 C194.855001,42.325 195.032499,42.2800004 195.1975,42.19 C195.362501,42.0999996 195.504999,41.9775008 195.625,41.8225 C195.745001,41.6674992 195.84,41.485001 195.91,41.275 C195.98,41.064999 196.015,40.8400012 196.015,40.6 C196.015,40.3499987 195.975,40.120001 195.895,39.91 C195.815,39.699999 195.707501,39.5175008 195.5725,39.3625 C195.437499,39.2074992 195.282501,39.0875004 195.1075,39.0025 C194.932499,38.9174996 194.755001,38.875 194.575,38.875 L192.07,38.875 L192.07,42.325 Z M208.92,45.895 L208.92,47.71 L201.525,47.71 L201.525,37.06 L208.785,37.06 L208.785,38.875 L203.595,38.875 L203.595,41.44 L208.08,41.44 L208.08,43.12 L203.595,43.12 L203.595,45.895 L208.92,45.895 Z M211.22,42.31 C211.22,41.6599968 211.337499,41.0175032 211.5725,40.3825 C211.807501,39.7474968 212.149998,39.1800025 212.6,38.68 C213.050002,38.1799975 213.599997,37.7750016 214.25,37.465 C214.900003,37.1549984 215.639996,37 216.47,37 C217.450005,37 218.297496,37.2149979 219.0125,37.645 C219.727503,38.0750022 220.259998,38.6349966 220.61,39.325 L219.02,40.42 C218.879999,40.1199985 218.710001,39.867501 218.51,39.6625 C218.309999,39.457499 218.095001,39.2950006 217.865,39.175 C217.634999,39.0549994 217.395001,38.9675003 217.145,38.9125 C216.894999,38.8574997 216.650001,38.83 216.41,38.83 C215.889997,38.83 215.437502,38.934999 215.0525,39.145 C214.667498,39.3550011 214.347501,39.6274983 214.0925,39.9625 C213.837499,40.2975017 213.645001,40.6774979 213.515,41.1025 C213.384999,41.5275021 213.32,41.9499979 213.32,42.37 C213.32,42.8400024 213.394999,43.2924978 213.545,43.7275 C213.695001,44.1625022 213.907499,44.5449984 214.1825,44.875 C214.457501,45.2050016 214.787498,45.469999 215.1725,45.67 C215.557502,45.870001 215.979998,45.97 216.44,45.97 C216.680001,45.97 216.929999,45.9400003 217.19,45.88 C217.450001,45.8199997 217.697499,45.7250007 217.9325,45.595 C218.167501,45.4649993 218.384999,45.297501 218.585,45.0925 C218.785001,44.887499 218.944999,44.6400014 219.065,44.35 L220.76,45.325 C220.589999,45.725002 220.347501,46.0774985 220.0325,46.3825 C219.717498,46.6875015 219.362502,46.944999 218.9675,47.155 C218.572498,47.3650011 218.150002,47.5249994 217.7,47.635 C217.249998,47.7450005 216.810002,47.8 216.38,47.8 C215.619996,47.8 214.925003,47.6400016 214.295,47.32 C213.664997,46.9999984 213.122502,46.5825026 212.6675,46.0675 C212.212498,45.5524974 211.857501,44.9675033 211.6025,44.3125 C211.347499,43.6574967 211.22,42.9900034 211.22,42.31 Z M223.705,47.71 L223.705,37.06 L225.775,37.06 L225.775,47.71 L223.705,47.71 Z M238.125,44.965 C238.125,45.4150023 238.035001,45.8099983 237.855,46.15 C237.674999,46.4900017 237.427501,46.7749988 237.1125,47.005 C236.797498,47.2350012 236.432502,47.4099994 236.0175,47.53 C235.602498,47.6500006 235.160002,47.71 234.69,47.71 L229.545,47.71 L229.545,37.06 L235.245,37.06 C235.615002,37.06 235.949998,37.1399992 236.25,37.3 C236.550001,37.4600008 236.804999,37.6674987 237.015,37.9225 C237.225001,38.1775013 237.387499,38.4674984 237.5025,38.7925 C237.6175,39.1175016 237.675,39.4449984 237.675,39.775 C237.675,40.2950026 237.545001,40.7824977 237.285,41.2375 C237.024999,41.6925023 236.645002,42.0299989 236.145,42.25 C236.755003,42.4300009 237.237498,42.7524977 237.5925,43.2175 C237.947502,43.6825023 238.125,44.2649965 238.125,44.965 Z M236.04,44.575 C236.04,44.3849991 236.0075,44.2025009 235.9425,44.0275 C235.877499,43.8524991 235.79,43.7000006 235.68,43.57 C235.569999,43.4399994 235.440001,43.3375004 235.29,43.2625 C235.139999,43.1874996 234.975001,43.15 234.795,43.15 L231.615,43.15 L231.615,45.955 L234.69,45.955 C234.880001,45.955 235.057499,45.9200004 235.2225,45.85 C235.387501,45.7799997 235.529999,45.6825006 235.65,45.5575 C235.77,45.4324994 235.864999,45.2850008 235.935,45.115 C236.005,44.9449992 236.04,44.765001 236.04,44.575 Z M231.615,38.83 L231.615,41.515 L234.375,41.515 C234.725002,41.515 235.022499,41.3950012 235.2675,41.155 C235.512501,40.9149988 235.635,40.5850021 235.635,40.165 C235.635,39.7549979 235.522501,39.4300012 235.2975,39.19 C235.072499,38.9499988 234.795001,38.83 234.465,38.83 L231.615,38.83 Z M241.295,47.71 L241.295,37.06 L243.365,37.06 L243.365,47.71 L241.295,47.71 Z M247.135,47.71 L247.135,37.06 L251.845,37.06 C252.335002,37.06 252.787498,37.162499 253.2025,37.3675 C253.617502,37.572501 253.974998,37.8424983 254.275,38.1775 C254.575001,38.5125017 254.809999,38.8924979 254.98,39.3175 C255.150001,39.7425021 255.235,40.1699979 255.235,40.6 C255.235,41.2900035 255.062501,41.9174972 254.7175,42.4825 C254.372498,43.0475028 253.905003,43.4549987 253.315,43.705 L255.745,47.71 L253.42,47.71 L251.245,44.14 L249.205,44.14 L249.205,47.71 L247.135,47.71 Z M249.205,42.325 L251.8,42.325 C251.990001,42.325 252.167499,42.2800004 252.3325,42.19 C252.497501,42.0999996 252.639999,41.9775008 252.76,41.8225 C252.88,41.6674992 252.974999,41.485001 253.045,41.275 C253.115,41.064999 253.15,40.8400012 253.15,40.6 C253.15,40.3499987 253.11,40.120001 253.03,39.91 C252.949999,39.699999 252.8425,39.5175008 252.7075,39.3625 C252.572499,39.2074992 252.417501,39.0875004 252.2425,39.0025 C252.067499,38.9174996 251.890001,38.875 251.71,38.875 L249.205,38.875 L249.205,42.325 Z" id="RECIBIR" fill="#ED8C04"></path>
                    <path d="M355,47.725 L355,37.075 L359.56,37.075 C360.030002,37.075 360.462498,37.172499 360.8575,37.3675 C361.252502,37.562501 361.592499,37.8224984 361.8775,38.1475 C362.162501,38.4725016 362.384999,38.837498 362.545,39.2425 C362.705001,39.647502 362.785,40.0599979 362.785,40.48 C362.785,40.8500019 362.732501,41.2074983 362.6275,41.5525 C362.522499,41.8975017 362.372501,42.2099986 362.1775,42.49 C361.982499,42.7700014 361.747501,43.009999 361.4725,43.21 C361.197499,43.410001 360.890002,43.5549995 360.55,43.645 L363.13,47.725 L361.6,47.725 L359.17,43.9 L356.35,43.9 L356.35,47.725 L355,47.725 Z M356.35,42.7 L359.575,42.7 C359.855001,42.7 360.107499,42.6400006 360.3325,42.52 C360.557501,42.3999994 360.749999,42.237501 360.91,42.0325 C361.070001,41.827499 361.195,41.5900014 361.285,41.32 C361.375,41.0499986 361.42,40.7700015 361.42,40.48 C361.42,40.1799985 361.367501,39.8975013 361.2625,39.6325 C361.157499,39.3674987 361.017501,39.132501 360.8425,38.9275 C360.667499,38.722499 360.462501,38.5625006 360.2275,38.4475 C359.992499,38.3324994 359.745001,38.275 359.485,38.275 L356.35,38.275 L356.35,42.7 Z M373.635,46.525 L373.635,47.725 L366.405,47.725 L366.405,37.075 L373.5,37.075 L373.5,38.275 L367.755,38.275 L367.755,41.725 L372.75,41.725 L372.75,42.85 L367.755,42.85 L367.755,46.525 L373.635,46.525 Z M383.285,39.31 C383.164999,39.1699993 383.005001,39.0350007 382.805,38.905 C382.604999,38.7749994 382.380001,38.6575005 382.13,38.5525 C381.879999,38.4474995 381.607501,38.3625003 381.3125,38.2975 C381.017498,38.2324997 380.710002,38.2 380.39,38.2 C379.559996,38.2 378.952502,38.3549985 378.5675,38.665 C378.182498,38.9750016 377.99,39.3999973 377.99,39.94 C377.99,40.2300014 378.044999,40.469999 378.155,40.66 C378.265,40.850001 378.437499,41.0124993 378.6725,41.1475 C378.907501,41.2825007 379.199998,41.3999995 379.55,41.5 C379.900002,41.6000005 380.314998,41.7049995 380.795,41.815 C381.345003,41.9350006 381.842498,42.0724992 382.2875,42.2275 C382.732502,42.3825008 383.112498,42.5749989 383.4275,42.805 C383.742501,43.0350012 383.982499,43.3149984 384.1475,43.645 C384.312501,43.9750017 384.395,44.3799976 384.395,44.86 C384.395,45.3700026 384.295001,45.8124981 384.095,46.1875 C383.894999,46.5625019 383.622502,46.8724988 383.2775,47.1175 C382.932498,47.3625012 382.525002,47.5424994 382.055,47.6575 C381.584998,47.7725006 381.075003,47.83 380.525,47.83 C379.704996,47.83 378.927504,47.7025013 378.1925,47.4475 C377.457496,47.1924987 376.790003,46.8200025 376.19,46.33 L376.835,45.19 C376.995001,45.3600009 377.202499,45.5299992 377.4575,45.7 C377.712501,45.8700009 378.002498,46.0224993 378.3275,46.1575 C378.652502,46.2925007 379.002498,46.4024996 379.3775,46.4875 C379.752502,46.5725004 380.144998,46.615 380.555,46.615 C381.315004,46.615 381.904998,46.4800014 382.325,46.21 C382.745002,45.9399987 382.955,45.5350027 382.955,44.995 C382.955,44.6949985 382.887501,44.442501 382.7525,44.2375 C382.617499,44.032499 382.420001,43.8550008 382.16,43.705 C381.899999,43.5549993 381.577502,43.4225006 381.1925,43.3075 C380.807498,43.1924994 380.370002,43.0750006 379.88,42.955 C379.339997,42.8249993 378.865002,42.6850008 378.455,42.535 C378.044998,42.3849992 377.702501,42.205001 377.4275,41.995 C377.152499,41.784999 376.945001,41.5300015 376.805,41.23 C376.664999,40.9299985 376.595,40.5700021 376.595,40.15 C376.595,39.6399975 376.689999,39.190002 376.88,38.8 C377.070001,38.4099981 377.334998,38.0800014 377.675,37.81 C378.015002,37.5399987 378.419998,37.3375007 378.89,37.2025 C379.360002,37.0674993 379.869997,37 380.42,37 C381.140004,37 381.789997,37.1099989 382.37,37.33 C382.950003,37.5500011 383.464998,37.8449982 383.915,38.215 L383.285,39.31 Z M394.945,46.525 L394.945,47.725 L387.715,47.725 L387.715,37.075 L394.81,37.075 L394.81,38.275 L389.065,38.275 L389.065,41.725 L394.06,41.725 L394.06,42.85 L389.065,42.85 L389.065,46.525 L394.945,46.525 Z M398.34,47.725 L398.34,37.075 L402.9,37.075 C403.370002,37.075 403.802498,37.172499 404.1975,37.3675 C404.592502,37.562501 404.932498,37.8224984 405.2175,38.1475 C405.502501,38.4725016 405.724999,38.837498 405.885,39.2425 C406.045001,39.647502 406.125,40.0599979 406.125,40.48 C406.125,40.8500019 406.0725,41.2074983 405.9675,41.5525 C405.862499,41.8975017 405.712501,42.2099986 405.5175,42.49 C405.322499,42.7700014 405.087501,43.009999 404.8125,43.21 C404.537498,43.410001 404.230002,43.5549995 403.89,43.645 L406.47,47.725 L404.94,47.725 L402.51,43.9 L399.69,43.9 L399.69,47.725 L398.34,47.725 Z M399.69,42.7 L402.915,42.7 C403.195001,42.7 403.447499,42.6400006 403.6725,42.52 C403.897501,42.3999994 404.089999,42.237501 404.25,42.0325 C404.410001,41.827499 404.534999,41.5900014 404.625,41.32 C404.715,41.0499986 404.76,40.7700015 404.76,40.48 C404.76,40.1799985 404.7075,39.8975013 404.6025,39.6325 C404.497499,39.3674987 404.357501,39.132501 404.1825,38.9275 C404.007499,38.722499 403.802501,38.5625006 403.5675,38.4475 C403.332499,38.3324994 403.085001,38.275 402.825,38.275 L399.69,38.275 L399.69,42.7 Z M409.745,37.075 L413.27,46.03 L416.78,37.075 L418.205,37.075 L413.855,47.725 L412.685,47.725 L408.32,37.075 L409.745,37.075 Z M423.565,37.075 L424.705,37.075 L429.055,47.725 L427.615,47.725 L426.355,44.605 L421.885,44.605 L420.64,47.725 L419.2,47.725 L423.565,37.075 Z M426.055,43.555 L424.135,38.635 L422.155,43.555 L426.055,43.555 Z M432.03,47.725 L432.03,37.075 L436.59,37.075 C437.060002,37.075 437.492498,37.172499 437.8875,37.3675 C438.282502,37.562501 438.622498,37.8224984 438.9075,38.1475 C439.192501,38.4725016 439.414999,38.837498 439.575,39.2425 C439.735,39.647502 439.815,40.0599979 439.815,40.48 C439.815,40.8500019 439.7625,41.2074983 439.6575,41.5525 C439.552499,41.8975017 439.402501,42.2099986 439.2075,42.49 C439.012499,42.7700014 438.777501,43.009999 438.5025,43.21 C438.227498,43.410001 437.920001,43.5549995 437.58,43.645 L440.16,47.725 L438.63,47.725 L436.2,43.9 L433.38,43.9 L433.38,47.725 L432.03,47.725 Z M433.38,42.7 L436.605,42.7 C436.885001,42.7 437.137499,42.6400006 437.3625,42.52 C437.587501,42.3999994 437.779999,42.237501 437.94,42.0325 C438.1,41.827499 438.224999,41.5900014 438.315,41.32 C438.405,41.0499986 438.45,40.7700015 438.45,40.48 C438.45,40.1799985 438.3975,39.8975013 438.2925,39.6325 C438.187499,39.3674987 438.047501,39.132501 437.8725,38.9275 C437.697499,38.722499 437.492501,38.5625006 437.2575,38.4475 C437.022498,38.3324994 436.775001,38.275 436.515,38.275 L433.38,38.275 L433.38,42.7 Z" id="RESERVAR" fill="#666666"></path>
                </g>
            </g>
        </g>
    </g>
</svg>