<?xml version="1.0" encoding="UTF-8"?>
<svg width="20px" height="24px" viewBox="0 0 20 24" version="1.1" xmlns="http://www.w3.org/2000/svg" xmlns:xlink="http://www.w3.org/1999/xlink">
    <!-- Generator: Sketch 49.3 (51167) - http://www.bohemiancoding.com/sketch -->
    <title>Page 1</title>
    <desc>Created with Sketch.</desc>
    <defs></defs>
    <g id="Desktop" stroke="none" stroke-width="1" fill="none" fill-rule="evenodd">
        <g id="2.2-Presupuestos" transform="translate(-578.000000, -144.000000)" fill="#9B9B9B">
            <g id="Group" transform="translate(130.000000, 139.000000)">
                <g id="Page-1" transform="translate(448.000000, 5.000000)">
                    <path d="M1.39217597,22.615917 L18.607824,22.615917 L18.607824,20.267128 C18.607824,17.5737024 16.2397327,15.384083 13.3273006,15.384083 L6.67269943,15.384083 C3.7602673,15.384083 1.39217597,17.5737024 1.39217597,20.267128 L1.39217597,22.615917 Z M19.303912,24 L0.696087986,24 C0.311847418,24 0,23.6899654 0,23.3079585 L0,20.267128 C0,16.8124567 2.99317834,14 6.67269943,14 L13.3273006,14 C17.0068217,14 20,16.8124567 20,20.267128 L20,23.3079585 C20,23.6899654 19.6895448,24 19.303912,24 Z" id="Fill-1"></path>
                    <path d="M10.500781,1.44178782 C7.77832512,1.44178782 5.5619368,3.48624294 5.5619368,6.00072089 C5.5619368,8.51375706 7.77832512,10.5582122 10.500781,10.5582122 C13.2232368,10.5582122 15.4380632,8.51375706 15.4380632,6.00072089 C15.4380632,3.48624294 13.2232368,1.44178782 10.500781,1.44178782 M10.500781,12 C6.91613601,12 4,9.30962393 4,6.00072089 C4,2.69181785 6.91613601,0 10.500781,0 C14.0854259,0 17,2.69181785 17,6.00072089 C17,9.30962393 14.0854259,12 10.500781,12" id="Fill-3"></path>
                </g>
            </g>
        </g>
    </g>
</svg>