<?xml version="1.0" encoding="UTF-8"?>
<svg width="76px" height="86px" viewBox="0 0 76 86" version="1.1" xmlns="http://www.w3.org/2000/svg" xmlns:xlink="http://www.w3.org/1999/xlink">
    <!-- Generator: Sketch 49.3 (51167) - http://www.bohemiancoding.com/sketch -->
    <title>Page 1</title>
    <desc>Created with Sketch.</desc>
    <defs>
        <polygon id="path-1" points="0.000226958684 0.0001 76 0.0001 76 86.0011 0.000226958684 86.0011"></polygon>
    </defs>
    <g id="Landing-page" stroke="none" stroke-width="1" fill="none" fill-rule="evenodd">
        <g id="Desktop-HD" transform="translate(-196.000000, -915.000000)">
            <g id="Group-16" transform="translate(59.000000, 915.000000)">
                <g id="Page-1" transform="translate(137.000000, 0.000000)">
                    <mask id="mask-2" fill="white">
                        <use xlink:href="#path-1"></use>
                    </mask>
                    <g id="Clip-2"></g>
                    <path d="M26.5314,50.9075 L38.0624,62.4705 L22.4064,66.5955 L26.5314,50.9075 Z M63.0004,32.4075 L66.5314,35.9075 L40.0004,61.5955 L36.9064,58.5015 L63.0004,32.4075 Z M58.0004,27.3765 L61.5944,30.9705 L35.5004,57.0635 L31.9064,53.5015 L58.0004,27.3765 Z M53.1874,22.5955 L56.5934,25.9705 L30.5004,52.0635 L27.4064,48.9705 L53.1874,22.5955 Z M61.5004,15.0015 C62.0374,15.0055 62.5304,15.1825 62.9374,15.5945 L73.3754,26.1885 C73.7874,26.6065 73.9954,27.1415 74.0004,27.6885 C74.0054,28.2555 73.8024,28.8365 73.3754,29.2515 L67.9374,34.5015 L54.5934,21.1575 L59.9694,15.6265 C60.4024,15.1865 60.9524,14.9965 61.5004,15.0015 Z M2.0004,2.0015 L24.0004,2.0015 L24.0004,52.6575 L24.0004,52.6885 L20.0314,67.7515 C19.8934,68.2855 20.2144,68.8315 20.7494,68.9695 C20.9134,69.0115 21.0854,69.0115 21.2504,68.9695 L24.0004,68.2515 L24.0004,84.0015 L2.0004,84.0015 L2.0004,69.0015 L13.0004,69.0015 C13.5524,69.0095 14.0064,68.5675 14.0144,68.0145 C14.0224,67.4635 13.5804,67.0095 13.0284,67.0015 L13.0004,67.0015 L2.0004,67.0015 L2.0004,52.0015 L13.0004,52.0015 C13.5524,52.0095 14.0064,51.5675 14.0144,51.0155 C14.0224,50.4635 13.5804,50.0095 13.0284,50.0015 C13.0194,50.0005 13.0094,50.0005 13.0004,50.0015 L2.0004,50.0015 L2.0004,35.0015 L13.0004,35.0015 C13.5524,35.0095 14.0064,34.5675 14.0144,34.0155 C14.0224,33.4635 13.5804,33.0095 13.0284,33.0015 C13.0194,33.0005 13.0094,33.0005 13.0004,33.0015 L2.0004,33.0015 L2.0004,18.0015 L13.0004,18.0015 C13.5524,18.0095 14.0064,17.5675 14.0144,17.0155 C14.0224,16.4635 13.5804,16.0095 13.0284,16.0015 C13.0194,16.0005 13.0094,16.0005 13.0004,16.0015 L2.0004,16.0015 L2.0004,2.0015 Z M0.8124,0.0015 C0.3344,0.0925 -0.0086,0.5145 0.0004,1.0015 L0.0004,85.0015 C0.0004,85.5535 0.4484,86.0015 1.0004,86.0015 L25.0004,86.0015 C25.5524,86.0015 26.0004,85.5535 26.0004,85.0015 L26.0004,67.7195 L40.2504,63.9705 C40.4154,63.9255 40.5654,63.8395 40.6874,63.7205 L74.7504,30.6885 C75.5974,29.8665 76.0104,28.7655 76.0004,27.6885 C75.9904,26.6475 75.5964,25.6085 74.8124,24.8135 L64.3754,14.2195 C63.5874,13.4205 62.5274,13.0095 61.5004,13.0015 C60.4274,12.9915 59.3454,13.4255 58.5314,14.2515 L26.0004,47.5635 L26.0004,1.0015 C26.0004,0.4495 25.5524,0.0015 25.0004,0.0015 L1.0004,0.0015 C0.9694,-0.0005 0.9374,-0.0005 0.9064,0.0015 C0.8754,-0.0005 0.8444,-0.0005 0.8124,0.0015 Z" id="Fill-1" fill="#ED8C04" mask="url(#mask-2)"></path>
                </g>
            </g>
        </g>
    </g>
</svg>