<?xml version="1.0" encoding="UTF-8"?>
<svg width="38px" height="44px" viewBox="0 0 38 44" version="1.1" xmlns="http://www.w3.org/2000/svg" xmlns:xlink="http://www.w3.org/1999/xlink">
    <!-- Generator: Sketch 49.3 (51167) - http://www.bohemiancoding.com/sketch -->
    <title>Group 2</title>
    <desc>Created with Sketch.</desc>
    <defs></defs>
    <g id="Landing-page" stroke="none" stroke-width="1" fill="none" fill-rule="evenodd">
        <g id="Desktop-HD" transform="translate(-621.000000, -780.000000)" fill="#ED8C04" fill-rule="nonzero" stroke="#FFFFFF" stroke-width="3">
            <g id="Group-2" transform="translate(623.000000, 781.000000)">
                <path d="M26.4546614,-4.98592892 C25.8061234,-5.63518883 24.9260837,-6 24.0084018,-6 C23.09072,-6 22.2106803,-5.63518883 21.5621423,-4.98592892 L8.01407108,8.56790494 C7.36481117,9.21644294 7,10.0964826 7,11.0141645 C7,11.9318463 7.36481117,12.811886 8.01407108,13.460424 L21.5679049,27.0084952 C22.9220818,28.3392809 25.0960125,28.329171 26.4377534,26.9858479 C27.7794943,25.6425248 27.7870421,23.4685837 26.4546614,22.1159761 L15.3499684,11.0112831 L26.4546614,-0.0934098145 C27.1039213,-0.741947823 27.4687324,-1.62198752 27.4687324,-2.53966937 C27.4687324,-3.45735122 27.1039213,-4.33739092 26.4546614,-4.98592892 Z" id="Shape" transform="translate(17.234366, 11.000000) scale(-1, 1) rotate(-90.000000) translate(-17.234366, -11.000000) "></path>
                <path d="M26.2202951,15.2484373 C25.5717571,14.5991774 24.6917174,14.2343662 23.7740356,14.2343662 C22.8563537,14.2343662 21.976314,14.5991774 21.327776,15.2484373 L7.77970486,28.8022712 C7.13044495,29.4508092 6.76563378,30.3308489 6.76563378,31.2485307 C6.76563378,32.1662126 7.13044495,33.0462523 7.77970486,33.6947903 L21.3335387,47.2428614 C22.6877156,48.5736472 24.8616463,48.5635373 26.2033872,47.2202141 C27.5451281,45.876891 27.5526759,43.7029499 26.2202951,42.3503423 L15.1156022,31.2456494 L26.2202951,20.1409564 C26.8695551,19.4924184 27.2343662,18.6123787 27.2343662,17.6946968 C27.2343662,16.777015 26.8695551,15.8969753 26.2202951,15.2484373 Z" id="Shape" transform="translate(17.000000, 31.234366) scale(-1, 1) rotate(-90.000000) translate(-17.000000, -31.234366) "></path>
            </g>
        </g>
    </g>
</svg>