<?xml version="1.0" encoding="UTF-8"?>
<svg width="125px" height="139px" viewBox="0 0 125 139" version="1.1" xmlns="http://www.w3.org/2000/svg" xmlns:xlink="http://www.w3.org/1999/xlink">
    <!-- Generator: Sketch 49.3 (51167) - http://www.bohemiancoding.com/sketch -->
    <title>Group 14</title>
    <desc>Created with Sketch.</desc>
    <defs>
        <polygon id="path-1" points="0 0 78 0 78 95 0 95"></polygon>
        <polygon id="path-3" points="0 0 78 0 78 95 0 95"></polygon>
        <polygon id="path-5" points="0 0 78 0 78 95 0 95"></polygon>
        <polygon id="path-7" points="0.00263157895 0.522375 48.6760526 0.522375 48.6760526 57.227625 0.00263157895 57.227625"></polygon>
    </defs>
    <g id="Landing-page" stroke="none" stroke-width="1" fill="none" fill-rule="evenodd">
        <g id="Desktop-HD" transform="translate(-1078.000000, -1434.000000)">
            <g id="Group-14" transform="translate(1066.000000, 1412.000000)">
                <g id="Group-11">
                    <g id="Group-10" transform="translate(57.524991, 60.636207) rotate(-30.000000) translate(-57.524991, -60.636207) translate(18.524991, 13.136207)">
                        <path d="M9.57942483,12.3501996 L9.57942483,80.1502918 C9.14972715,84.2477383 10.9649055,86.2964615 15.02496,86.2964615 C19.0850145,86.2964615 35.2197903,86.2964615 63.4292876,86.2964615 C65.8453153,85.6705755 67.0533291,83.6218522 67.0533291,80.1502918 C67.0533291,76.6787313 67.0533291,59.972328 67.0533291,30.0310819 L44.7469426,8.09001195 L13.1597483,8.09001195 C11.9562902,7.94675123 11.0587051,8.35320795 10.466993,9.30938211 C9.87528088,10.2655563 9.57942483,11.2791621 9.57942483,12.3501996 Z" id="Path-8" fill="#FFFFFF"></path>
                        <g id="Page-1">
                            <mask id="mask-2" fill="white">
                                <use xlink:href="#path-1"></use>
                            </mask>
                            <g id="Clip-2"></g>
                            <path d="M21.5,41.1001 L54.7,41.1001 C55,41.1001 55.3,41.4001 55.3,41.7001 C55.3,42.0001 55,42.3001 54.7,42.3001 L21.5,42.3001 C21.2,42.3001 20.9,42.0001 20.9,41.7001 C20.8,41.3001 21.1,41.1001 21.5,41.1001 Z M55.3,52.6001 C55.3,52.9001 55,53.2001 54.7,53.2001 L21.5,53.2001 C21.2,53.2001 20.9,52.9001 20.9,52.6001 C20.9,52.3001 21.2,51.9991 21.5,51.9991 L54.7,51.9991 C55,51.9991 55.3,52.2001 55.3,52.6001 Z M55.3,74.4991 C55.3,74.8001 55,75.1001 54.7,75.1001 L21.5,75.1001 C21.2,75.1001 20.9,74.8001 20.9,74.4991 C20.9,74.2001 21.2,73.9001 21.5,73.9001 L54.7,73.9001 C55,73.9001 55.3,74.2001 55.3,74.4991 Z M55.3,63.4991 C55.3,63.8001 55,64.1001 54.7,64.1001 L21.5,64.1001 C21.2,64.1001 20.9,63.8001 20.9,63.4991 C20.9,63.2001 21.2,62.9001 21.5,62.9001 L54.7,62.9001 C55,62.9001 55.3,63.1001 55.3,63.4991 Z M66.2,82.8001 C66.2,84.4001 64.9,85.7001 63.3,85.7001 L13.1,85.7001 C11.5,85.7001 10.2,84.4001 10.2,82.8001 L10.2,11.0001 C10.2,9.4001 11.5,8.1001 13.1,8.1001 L44.2,8.1001 L44.2,29.4001 C44.2,29.7001 44.5,30.0001 44.8,30.0001 L66.2,30.0001 L66.2,82.8001 Z M65.3,28.9001 L45.4,28.9001 L45.4,9.0001 L65.3,28.9001 Z M67.4,29.4001 C67.4,29.2001 67.3,29.1001 67.2,29.0001 L45.2,7.1001 C45.2,7.1001 45.1,7.0001 45,7.0001 L44.9,7.0001 L44.8,7.0001 L13.1,7.0001 C10.8,7.0001 9,8.8001 9,11.1001 L9,82.8001 C9,85.1001 10.8,86.9001 13.1,86.9001 L63.3,86.9001 C65.5,86.9001 67.4,85.1001 67.4,82.8001 L67.4,29.4001 C67.5,29.5001 67.4,29.4001 67.4,29.4001 Z" id="Fill-1" stroke="#ED8C04" fill="#ED8C04" mask="url(#mask-2)"></path>
                        </g>
                    </g>
                    <g id="Group-10" transform="translate(83.965012, 65.296994) rotate(-15.000000) translate(-83.965012, -65.296994) translate(44.965012, 17.796994)">
                        <path d="M9.57942483,12.3501996 L9.57942483,80.1502918 C9.14972715,84.2477383 10.9649055,86.2964615 15.02496,86.2964615 C19.0850145,86.2964615 35.2197903,86.2964615 63.4292876,86.2964615 C65.8453153,85.6705755 67.0533291,83.6218522 67.0533291,80.1502918 C67.0533291,76.6787313 67.0533291,59.972328 67.0533291,30.0310819 L44.7469426,8.09001195 L13.1597483,8.09001195 C11.9562902,7.94675123 11.0587051,8.35320795 10.466993,9.30938211 C9.87528088,10.2655563 9.57942483,11.2791621 9.57942483,12.3501996 Z" id="Path-8" fill="#FFFFFF"></path>
                        <g id="Page-1">
                            <mask id="mask-4" fill="white">
                                <use xlink:href="#path-3"></use>
                            </mask>
                            <g id="Clip-2"></g>
                            <path d="M21.5,41.1001 L54.7,41.1001 C55,41.1001 55.3,41.4001 55.3,41.7001 C55.3,42.0001 55,42.3001 54.7,42.3001 L21.5,42.3001 C21.2,42.3001 20.9,42.0001 20.9,41.7001 C20.8,41.3001 21.1,41.1001 21.5,41.1001 Z M55.3,52.6001 C55.3,52.9001 55,53.2001 54.7,53.2001 L21.5,53.2001 C21.2,53.2001 20.9,52.9001 20.9,52.6001 C20.9,52.3001 21.2,51.9991 21.5,51.9991 L54.7,51.9991 C55,51.9991 55.3,52.2001 55.3,52.6001 Z M55.3,74.4991 C55.3,74.8001 55,75.1001 54.7,75.1001 L21.5,75.1001 C21.2,75.1001 20.9,74.8001 20.9,74.4991 C20.9,74.2001 21.2,73.9001 21.5,73.9001 L54.7,73.9001 C55,73.9001 55.3,74.2001 55.3,74.4991 Z M55.3,63.4991 C55.3,63.8001 55,64.1001 54.7,64.1001 L21.5,64.1001 C21.2,64.1001 20.9,63.8001 20.9,63.4991 C20.9,63.2001 21.2,62.9001 21.5,62.9001 L54.7,62.9001 C55,62.9001 55.3,63.1001 55.3,63.4991 Z M66.2,82.8001 C66.2,84.4001 64.9,85.7001 63.3,85.7001 L13.1,85.7001 C11.5,85.7001 10.2,84.4001 10.2,82.8001 L10.2,11.0001 C10.2,9.4001 11.5,8.1001 13.1,8.1001 L44.2,8.1001 L44.2,29.4001 C44.2,29.7001 44.5,30.0001 44.8,30.0001 L66.2,30.0001 L66.2,82.8001 Z M65.3,28.9001 L45.4,28.9001 L45.4,9.0001 L65.3,28.9001 Z M67.4,29.4001 C67.4,29.2001 67.3,29.1001 67.2,29.0001 L45.2,7.1001 C45.2,7.1001 45.1,7.0001 45,7.0001 L44.9,7.0001 L44.8,7.0001 L13.1,7.0001 C10.8,7.0001 9,8.8001 9,11.1001 L9,82.8001 C9,85.1001 10.8,86.9001 13.1,86.9001 L63.3,86.9001 C65.5,86.9001 67.4,85.1001 67.4,82.8001 L67.4,29.4001 C67.5,29.5001 67.4,29.4001 67.4,29.4001 Z" id="Fill-1" stroke="#ED8C04" fill="#ED8C04" mask="url(#mask-4)"></path>
                        </g>
                    </g>
                    <g id="Group-10" transform="translate(69.000000, 26.000000)">
                        <path d="M9.57942483,12.3501996 L9.57942483,80.1502918 C9.14972715,84.2477383 10.9649055,86.2964615 15.02496,86.2964615 C19.0850145,86.2964615 35.2197903,86.2964615 63.4292876,86.2964615 C65.8453153,85.6705755 67.0533291,83.6218522 67.0533291,80.1502918 C67.0533291,76.6787313 67.0533291,59.972328 67.0533291,30.0310819 L44.7469426,8.09001195 L13.1597483,8.09001195 C11.9562902,7.94675123 11.0587051,8.35320795 10.466993,9.30938211 C9.87528088,10.2655563 9.57942483,11.2791621 9.57942483,12.3501996 Z" id="Path-8" fill="#FFFFFF"></path>
                        <g id="Page-1">
                            <mask id="mask-6" fill="white">
                                <use xlink:href="#path-5"></use>
                            </mask>
                            <g id="Clip-2"></g>
                            <path d="M21.5,41.1001 L54.7,41.1001 C55,41.1001 55.3,41.4001 55.3,41.7001 C55.3,42.0001 55,42.3001 54.7,42.3001 L21.5,42.3001 C21.2,42.3001 20.9,42.0001 20.9,41.7001 C20.8,41.3001 21.1,41.1001 21.5,41.1001 Z M55.3,52.6001 C55.3,52.9001 55,53.2001 54.7,53.2001 L21.5,53.2001 C21.2,53.2001 20.9,52.9001 20.9,52.6001 C20.9,52.3001 21.2,51.9991 21.5,51.9991 L54.7,51.9991 C55,51.9991 55.3,52.2001 55.3,52.6001 Z M55.3,74.4991 C55.3,74.8001 55,75.1001 54.7,75.1001 L21.5,75.1001 C21.2,75.1001 20.9,74.8001 20.9,74.4991 C20.9,74.2001 21.2,73.9001 21.5,73.9001 L54.7,73.9001 C55,73.9001 55.3,74.2001 55.3,74.4991 Z M55.3,63.4991 C55.3,63.8001 55,64.1001 54.7,64.1001 L21.5,64.1001 C21.2,64.1001 20.9,63.8001 20.9,63.4991 C20.9,63.2001 21.2,62.9001 21.5,62.9001 L54.7,62.9001 C55,62.9001 55.3,63.1001 55.3,63.4991 Z M66.2,82.8001 C66.2,84.4001 64.9,85.7001 63.3,85.7001 L13.1,85.7001 C11.5,85.7001 10.2,84.4001 10.2,82.8001 L10.2,11.0001 C10.2,9.4001 11.5,8.1001 13.1,8.1001 L44.2,8.1001 L44.2,29.4001 C44.2,29.7001 44.5,30.0001 44.8,30.0001 L66.2,30.0001 L66.2,82.8001 Z M65.3,28.9001 L45.4,28.9001 L45.4,9.0001 L65.3,28.9001 Z M67.4,29.4001 C67.4,29.2001 67.3,29.1001 67.2,29.0001 L45.2,7.1001 C45.2,7.1001 45.1,7.0001 45,7.0001 L44.9,7.0001 L44.8,7.0001 L13.1,7.0001 C10.8,7.0001 9,8.8001 9,11.1001 L9,82.8001 C9,85.1001 10.8,86.9001 13.1,86.9001 L63.3,86.9001 C65.5,86.9001 67.4,85.1001 67.4,82.8001 L67.4,29.4001 C67.5,29.5001 67.4,29.4001 67.4,29.4001 Z" id="Fill-1" stroke="#ED8C04" fill="#ED8C04" mask="url(#mask-6)"></path>
                        </g>
                    </g>
                </g>
                <g id="Group-12" transform="translate(54.000000, 92.000000)">
                    <circle id="Oval" fill="#FFFFFF" cx="18" cy="16" r="16"></circle>
                    <g id="Page-1" transform="translate(0.000000, 3.000000)">
                        <path d="M10.228772,25 L10.228772,22.4979171 C7.74401385,20.4124141 6.0797192,17.2906686 6.0797192,13.7497396 C6.0797192,7.4958342 11.2725262,2.28858571 17.5012982,2.28858571 C23.7378594,2.28858571 28.9306664,7.4958342 28.9306664,13.7497396 C28.9306664,16.4549052 27.8869122,19.1600708 26.2226176,21.0320767 C27.0534667,21.0320767 27.6843927,21.2455738 28.5152419,21.4486565 C30.1795365,19.1600708 31,16.4549052 31,13.5362424 C31,6.04040825 24.9841331,0 17.5012982,0 C10.0262525,0 4,6.04040825 4,13.5362424 C4,18.3269111 6.49514376,22.4979171 10.228772,25" id="Fill-1" fill="#ED8C04"></path>
                        <g id="Group-8" transform="translate(0.000000, 4.000000)">
                            <path d="M27.6228947,10.0229 C27.6228947,4.7729 23.4097368,0.580775 18.1465789,0.580775 C12.8834211,0.580775 8.67815789,4.7729 8.67815789,10.0229 C8.67815789,12.330275 9.52026316,14.4329 10.7755263,15.90815 L10.7755263,10.0229 C10.7755263,6.035525 14.1465789,2.670275 18.1465789,2.670275 C22.1439474,2.670275 25.515,6.035525 25.515,10.0229 L25.515,15.90815 C26.7807895,14.4329 27.6228947,12.330275 27.6228947,10.0229" id="Fill-3" fill="#ED8C04"></path>
                            <g id="Group-7" transform="translate(0.000000, 4.250000)">
                                <mask id="mask-8" fill="white">
                                    <use xlink:href="#path-7"></use>
                                </mask>
                                <g id="Clip-6"></g>
                                <path d="M46.5681579,31.397625 L46.5681579,39.375 C46.5681579,47.567625 39.4128947,55.125 30.7786842,55.125 C22.7786842,55.125 18.1471053,50.715 14.3628947,44.625 C6.14973684,30.762375 0.247105263,24.465 2.57342105,22.157625 C4.88394737,19.842375 10.5707895,24.885 14.9892105,29.49975 L14.9892105,5.772375 C14.9892105,4.092375 16.4602632,2.625 18.1471053,2.625 C19.8313158,2.625 21.2997368,4.092375 21.2997368,5.772375 L21.2997368,27.83025 L23.4102632,27.83025 L23.4102632,20.477625 C23.4102632,18.795 24.8892105,17.33025 26.5628947,17.33025 C28.2497368,17.33025 29.7313158,18.795 29.7313158,20.477625 L29.7313158,25.727625 L31.8260526,25.727625 L31.8260526,22.58025 C31.8260526,20.897625 33.3076316,19.41975 34.9944737,19.41975 C36.6681579,19.41975 38.1497368,20.897625 38.1497368,22.58025 L38.1497368,27.83025 L40.2576316,27.83025 L40.2576316,26.772375 C40.2576316,25.092375 41.7260526,23.625 43.4128947,23.625 C45.0971053,23.625 46.5681579,25.092375 46.5681579,26.772375 L46.5681579,31.397625 Z M43.4128947,21.522375 C42.1471053,21.522375 41.0997368,21.942375 40.2576316,22.58025 C40.2576316,19.635 37.9339474,17.33025 34.9944737,17.33025 C33.7286842,17.33025 32.4655263,17.75025 31.405,18.57975 C30.5734211,16.487625 28.6707895,15.227625 26.5628947,15.227625 C25.3102632,15.227625 24.2523684,15.647625 23.4102632,16.272375 L23.4102632,5.772375 C23.4102632,2.82975 21.0971053,0.522375 18.1471053,0.522375 C15.205,0.522375 12.8839474,2.82975 12.8839474,5.772375 L12.8839474,24.465 C8.67868421,20.682375 4.04184211,17.75025 1.09184211,20.682375 C-3.11342105,24.885 5.72605263,33.08025 12.4602632,45.465 C17.3023684,54.08025 24.0471053,57.227625 30.7786842,57.227625 C40.6786842,57.227625 48.6760526,49.25025 48.6760526,39.375 L48.6760526,26.772375 C48.6760526,23.82975 46.3628947,21.522375 43.4128947,21.522375 Z" id="Fill-5" fill="#ED8C04" mask="url(#mask-8)"></path>
                            </g>
                        </g>
                    </g>
                </g>
            </g>
        </g>
    </g>
</svg>