<svg id="Capa_1" data-name="Capa 1" xmlns="http://www.w3.org/2000/svg" viewBox="0 0 25.325 19.04089"><defs><style>.cls-1{fill:#edecec;fill-rule:evenodd;}</style></defs><title>comillas2</title><path class="cls-1" d="M211.29493,295.88788a5.17624,5.17624,0,0,1-5.153,5.153c-4.0847,0-5.907-3.64477-5.907-7.918s1.2568-6.40985,3.2049-8.42071c.9426-.87982,3.7704-2.70221,5.7185-2.70221a1.92436,1.92436,0,0,1,2.1366,1.88519c0,2.765-6.347,1.31971-6.6612,7.7295a4.28753,4.28753,0,0,1,2.1366-.56562A4.53846,4.53846,0,0,1,211.29493,295.88788Zm-14.265,0a5.17622,5.17622,0,0,1-5.1529,5.153c-4.08471,0-5.9071-3.64477-5.9071-7.918s1.25682-6.40985,3.2049-8.42071c.9426-.87982,3.7705-2.70221,5.7185-2.70221a1.9243,1.9243,0,0,1,2.1366,1.88519c0,2.765-6.3469,1.31971-6.6611,7.7295a4.28723,4.28723,0,0,1,2.1366-.56562A4.53838,4.53838,0,0,1,197.02993,295.88788Z" transform="translate(-185.96993 -282)"/></svg>