<?xml version="1.0" encoding="UTF-8"?>
<svg width="83px" height="84px" viewBox="0 0 83 84" version="1.1" xmlns="http://www.w3.org/2000/svg" xmlns:xlink="http://www.w3.org/1999/xlink">
    <!-- Generator: Sketch 49.3 (51167) - http://www.bohemiancoding.com/sketch -->
    <title>Page 1</title>
    <desc>Created with Sketch.</desc>
    <defs></defs>
    <g id="Landing-page" stroke="none" stroke-width="1" fill="none" fill-rule="evenodd">
        <g id="Desktop-HD" transform="translate(-1009.000000, -925.000000)" fill="#ED8C04">
            <g id="Page-1" transform="translate(1009.000000, 925.000000)">
                <path d="M48.0579,55.7897 C39.8959,55.7897 33.2539,49.1487 33.2539,40.9867 C33.2539,32.8247 39.8959,26.1837 48.0579,26.1837 C56.2199,26.1837 62.8609,32.8247 62.8609,40.9867 C62.8609,49.1487 56.2199,55.7897 48.0579,55.7897 M65.0729,40.9867 C65.0729,31.6027 57.4389,23.9707 48.0569,23.9707 C38.6729,23.9707 31.0399,31.6017 31.0399,40.9867 C31.0399,50.3697 38.6729,58.0027 48.0569,58.0027 C57.4399,58.0027 65.0729,50.3697 65.0729,40.9867" id="Fill-1"></path>
                <path d="M54.4261,49.4128 L41.6881,49.4128 C41.0451,49.4128 40.5171,48.9188 40.4611,48.2938 L41.2801,44.9228 L41.2801,44.7918 C41.2801,44.1118 41.8321,43.5598 42.5121,43.5598 L53.6011,43.5598 C54.2801,43.5598 54.8331,44.1128 54.8331,44.7918 L54.8331,44.9228 L55.6521,48.2938 C55.5981,48.9188 55.0691,49.4128 54.4261,49.4128 M48.0581,32.5588 C50.6551,32.5588 52.7701,34.6758 52.7701,37.2738 C52.7701,39.0468 51.7871,40.6568 50.2021,41.4688 L48.0611,42.5668 L45.9151,41.4688 C44.3301,40.6558 43.3461,39.0488 43.3461,37.2738 C43.3451,34.6758 45.4591,32.5588 48.0581,32.5588 M53.6611,41.3458 C54.5061,40.1878 54.9821,38.7718 54.9821,37.2738 C54.9821,33.4538 51.8761,30.3478 48.0571,30.3478 C44.2381,30.3478 41.1301,33.4528 41.1301,37.2738 C41.1301,38.7718 41.6071,40.1878 42.4511,41.3458 C40.6281,41.3788 39.1441,42.8338 39.0681,44.6448 L38.2411,48.0468 L38.2411,48.1798 C38.2411,50.0778 39.7871,51.6248 41.6861,51.6248 L54.4241,51.6248 C56.3251,51.6248 57.8711,50.0778 57.8711,48.1798 L57.8711,48.0468 L57.0431,44.6448 C56.9681,42.8348 55.4861,41.3778 53.6611,41.3458" id="Fill-3"></path>
                <path d="M77.515,31.3952 C76.622,31.8772 75.619,32.1332 74.611,32.1332 C72.886,32.1332 71.273,31.4102 70.131,30.1862 C69.779,29.8092 69.47,29.3872 69.219,28.9182 C68.963,28.4472 68.785,27.9552 68.663,27.4592 C68.018,24.8202 69.194,21.9732 71.692,20.6212 C72.585,20.1392 73.589,19.8832 74.597,19.8832 C76.851,19.8832 78.918,21.1132 79.99,23.0962 C81.595,26.0692 80.486,29.7902 77.515,31.3952 M81.938,22.0442 C80.479,19.3472 77.666,17.6712 74.597,17.6712 C73.224,17.6712 71.854,18.0192 70.64,18.6752 C67.062,20.6112 65.472,24.7982 66.665,28.5382 L63.394,30.3062 C63.984,31.1522 64.507,32.0442 64.956,32.9842 L68.137,31.2632 C69.704,33.1952 72.068,34.3472 74.611,34.3472 C75.984,34.3472 77.353,33.9992 78.568,33.3432 C82.611,31.1572 84.122,26.0902 81.938,22.0442" id="Fill-5"></path>
                <path d="M73.2249,79.8347 C71.8619,80.6527 70.3069,81.0847 68.7259,81.0847 C65.6189,81.0847 62.8099,79.4967 61.2129,76.8387 C58.9989,73.1507 59.8289,68.4817 62.9569,65.7467 C63.3429,65.4087 63.7559,65.0977 64.2099,64.8227 C64.6579,64.5557 65.1289,64.3327 65.6109,64.1467 C66.5979,63.7727 67.6469,63.5727 68.7069,63.5727 C71.8149,63.5727 74.6239,65.1607 76.2219,67.8207 C78.7079,71.9597 77.3639,77.3487 73.2249,79.8347 M68.7069,61.3597 C67.2449,61.3597 65.7989,61.6587 64.4559,62.2237 L60.2219,55.1717 C59.4359,55.8487 58.5949,56.4607 57.7049,56.9997 L61.8009,63.8177 C57.6319,67.2027 56.4719,73.2397 59.3149,77.9747 C61.2869,81.2567 64.8909,83.2957 68.7259,83.2957 C70.7069,83.2957 72.6589,82.7547 74.3639,81.7317 C79.5489,78.6167 81.2329,71.8627 78.1209,66.6817 C76.1479,63.3987 72.5399,61.3597 68.7069,61.3597" id="Fill-7"></path>
                <path d="M10.9041,39.0852 C10.0081,39.0852 9.1181,38.9442 8.2571,38.6692 C3.6941,37.2102 1.1681,32.3102 2.6261,27.7452 C3.7831,24.1322 7.1071,21.7022 10.9021,21.7022 C11.7961,21.7022 12.6871,21.8412 13.5481,22.1162 C17.6071,23.4152 20.0451,27.4342 19.5101,31.5182 C19.4441,32.0262 19.3381,32.5342 19.1771,33.0392 C19.0171,33.5412 18.8111,34.0162 18.5721,34.4712 C17.0841,37.2802 14.1691,39.0852 10.9041,39.0852 M20.7031,35.1532 L29.5981,37.9972 C29.7661,36.9622 30.0211,35.9562 30.3511,34.9832 L21.6491,32.2022 C22.5391,26.9442 19.4451,21.6792 14.2201,20.0112 C13.1421,19.6632 12.0251,19.4902 10.9021,19.4902 C6.1421,19.4902 1.9701,22.5372 0.5181,27.0742 C-1.3109,32.7992 1.8581,38.9472 7.5821,40.7772 C8.6611,41.1232 9.7781,41.2982 10.9031,41.2982 C15.1381,41.2972 18.9021,38.8812 20.7031,35.1532" id="Fill-9"></path>
                <path d="M48.0579,2.2121 C51.4329,2.2121 54.1799,4.9581 54.1799,8.3351 C54.1799,11.1771 52.2339,13.5641 49.6059,14.2511 C49.1109,14.3821 48.5929,14.4581 48.0579,14.4581 C47.5209,14.4581 47.0039,14.3821 46.5079,14.2511 C43.8799,13.5631 41.9329,11.1771 41.9329,8.3351 C41.9329,4.9581 44.6819,2.2121 48.0579,2.2121 M46.5079,16.5221 L46.5079,22.3561 C47.0189,22.3131 47.5359,22.2861 48.0579,22.2861 C48.5789,22.2861 49.0949,22.3131 49.6059,22.3561 L49.6059,16.5221 C53.4639,15.7921 56.3939,12.4011 56.3939,8.3341 C56.3939,3.7381 52.6529,0.0001 48.0579,0.0001 C43.4599,0.0001 39.7209,3.7381 39.7209,8.3341 C39.7209,12.4011 42.6489,15.7921 46.5079,16.5221" id="Fill-11"></path>
                <path d="M31.4061,70.071 C30.2341,71.327 28.6421,72.02 26.9241,72.02 C25.3711,72.02 23.8881,71.434 22.7511,70.375 C20.2811,68.074 20.1431,64.191 22.4431,61.723 C23.6151,60.465 25.2081,59.772 26.9251,59.772 C27.9491,59.772 28.9421,60.032 29.8241,60.508 C30.2811,60.756 30.7111,61.055 31.0961,61.416 C31.4891,61.779 31.8161,62.189 32.0891,62.623 C33.5431,64.917 33.3411,67.991 31.4061,70.071 M35.2941,54.637 L31.3731,58.846 C30.0501,58.01 28.5171,57.559 26.9251,57.559 C24.6191,57.559 22.3961,58.528 20.8251,60.213 C17.6921,63.576 17.8791,68.861 21.2411,71.994 C22.7911,73.437 24.8071,74.23 26.9231,74.23 C29.2291,74.23 31.4531,73.263 33.0251,71.578 C35.7961,68.601 35.9641,64.123 33.6381,60.961 L37.7301,56.566 C36.8651,55.993 36.0511,55.344 35.2941,54.637" id="Fill-13"></path>
            </g>
        </g>
    </g>
</svg>