<?xml version="1.0" encoding="UTF-8"?>
<svg width="115px" height="70px" viewBox="0 0 115 70" version="1.1" xmlns="http://www.w3.org/2000/svg" xmlns:xlink="http://www.w3.org/1999/xlink">
    <!-- Generator: Sketch 49.3 (51167) - http://www.bohemiancoding.com/sketch -->
    <title>logo</title>
    <desc>Created with Sketch.</desc>
    <defs></defs>
    <g id="Landing-page" stroke="none" stroke-width="1" fill="none" fill-rule="evenodd">
        <g id="Desktop-HD" transform="translate(-878.000000, -1960.000000)" fill-rule="nonzero">
            <g id="logo" transform="translate(878.000000, 1960.000000)">
                <g transform="translate(76.000000, 0.000000)" fill="#4FD053" id="brand/glyph">
                    <g transform="translate(0.143182, 0.000000)">
                        <path d="M30.8214068,1.07109432 C28.3953576,2.06594651 26.1694171,3.4907152 24.2510099,5.27664052 C22.7897995,7.06474596 20.6329986,8.14382052 18.3241056,8.24194524 C17.0336359,8.1205258 15.8576287,7.45113998 15.0953539,6.4041328 C13.5148461,5.08496683 12.0698104,4.63396992 10.8392721,4.98349253 C9.63002186,5.32378724 8.70874129,6.3046527 8.44593171,7.5316251 C8.22314621,8.41672491 7.66978393,9.18318144 6.89929189,9.67386041 C4.81619825,11.0635562 2.65236767,12.328571 0.4192098,13.4622345 C0.0240828434,13.7102827 -0.145257281,13.969606 0.148265602,14.11618 C2.72691556,12.4274506 5.53708321,11.1210054 8.49108907,10.2376065 C9.02168814,10.2376065 11.5730794,10.2376065 12.1714144,12.4249416 C12.4988054,15.1196481 14.4970188,18.062403 17.6580344,21.3885052 C18.7869686,23.4405411 17.9176893,24.3876346 17.8386639,24.5342086 C16.3597601,26.7328186 15.0389072,29.8446972 16.3033134,29.8446972 C16.6642281,29.5231716 16.886707,29.0747423 16.9242272,28.5931808 C16.9242272,28.4353319 16.9242272,28.3789573 16.9242272,28.3789573 C16.9330824,28.4500913 16.9330824,28.5220468 16.9242272,28.5931808 C16.6153299,29.6723502 16.753639,30.8302258 17.3080649,31.8065338 C18.9224407,31.7050595 17.4096689,27.6799121 18.6176285,26.0450482 C19.4137879,25.0984275 20.1134268,24.0748602 20.7061567,22.9895442 C22.4591221,19.6735105 22.5303569,15.722936 20.8980755,12.3460171 C24.6348476,14.2740289 26.9152946,10.7337031 28.8006146,6.35903311 C30.2357176,5.42978598 31.483986,4.24047417 32.48094,2.85253212 C32.48094,2.85253212 36.08224,0.947070172 36.08224,0.32694942 C36.08224,-0.293171333 33.1357218,0.112725887 30.8214068,1.07109432 Z" id="Combined-Shape"></path>
                        <path d="M33.2431239,5.62638081 C30.642252,5.79063738 28.0915844,6.41628372 25.7109066,7.47393792 C23.7603219,8.70979748 21.3756843,9.0619264 19.1498599,8.44277881 C18.6191039,8.07101426 19.4321769,12.2730801 20.3355912,13.1292651 C23.3055659,16.0921158 26.5691503,13.4672329 29.7649786,9.95236814 C31.4188457,9.52366955 32.9777074,8.79004914 34.3610991,7.78937451 C34.3610991,7.78937451 38.381293,7.11343893 38.5732686,6.52762817 C38.7652441,5.94181739 35.7952694,5.43486575 33.2431239,5.62638081 Z" id="Shape" opacity="0.5"></path>
                        <path d="M34.4034603,11.5084016 C31.9716396,10.5725781 29.3912808,10.0720887 26.7826729,10.0302649 C24.4618563,10.3142712 22.127342,9.61943708 20.3491003,8.11540587 C20.0212029,7.55550564 18.9244427,11.6875697 19.3767149,12.8409643 C20.8126793,16.7602662 24.9509704,15.7524457 29.3945451,13.9607648 C31.0685045,14.2709477 32.786035,14.2709477 34.4599943,13.9607648 C34.4599943,13.9607648 38.3382288,15.0133774 38.7565806,14.5766551 C39.1749325,14.1399329 36.7100487,12.370648 34.4034603,11.5084016 Z" id="Shape" opacity="0.8"></path>
                    </g>
                </g>
                <g id="type" transform="translate(0.000000, 7.000000)" fill="#25242F">
                    <path d="M32.7444675,26.3649582 C32.5752402,26.747644 32.3755153,27.1158861 32.1472531,27.4660701 C31.8520368,27.9204282 31.5247122,28.3527661 31.1678215,28.7597261 C30.7501372,29.2260303 30.26969,29.6310983 29.7404791,29.9631271 C29.1388483,30.3496713 28.4905789,30.6570308 27.8114766,30.8777118 C26.9993171,31.1291522 26.1526618,31.2489805 25.3031763,31.2327151 C24.5208255,31.2327151 23.8877782,31.2327151 23.4040345,31.1785621 C23.0184161,31.1654465 22.6373601,31.090288 22.2752994,30.9559329 C22.0350209,30.8796128 21.8377467,30.7048821 21.7318343,30.4745725 C21.6307284,30.205823 21.584025,29.919406 21.594475,29.6321918 L21.594475,7.12257692 C21.570281,6.54199396 21.7201128,5.96751761 22.0244693,5.47391761 C22.2882271,5.06686277 22.6341648,4.72037673 23.0397338,4.45704379 C23.395187,4.22975485 23.781403,4.0554628 24.1863854,3.93958139 C24.5626304,3.84330931 24.8313769,3.77110525 25.0105412,3.74102023 C25.121784,3.73319952 25.2261309,3.68385245 25.3031763,3.60262912 C25.3619754,3.53755846 25.3914736,3.45090074 25.3846883,3.36316857 C25.377903,3.27543639 25.3354374,3.19442835 25.2673434,3.13931975 C25.1754554,3.0725403 25.0640347,3.03865121 24.9508198,3.04304767 L11.0178083,3.04304767 C10.9006719,3.0368632 10.7849049,3.07079385 10.6893404,3.13931975 C10.6212218,3.19340572 10.5798086,3.27465824 10.5758696,3.36194893 C10.5701327,3.45140032 10.6027506,3.53903483 10.6654518,3.60262912 C10.735393,3.69075309 10.8401764,3.74353832 10.9521147,3.74703723 C11.1253069,3.77712225 11.4059976,3.83729231 11.7822427,3.94559839 C12.1852111,4.0618627 12.5694027,4.2361489 12.9229222,4.4630608 C13.3236717,4.72786565 13.6670102,5.07173639 13.9322145,5.47391761 C14.2381196,5.96930829 14.3899497,6.54556735 14.3681809,7.12859392 L14.3681809,28.609301 C14.3947061,29.1985311 14.2426496,29.7819452 13.9322145,30.2820283 C13.4226581,31.036732 12.6588068,31.5797198 11.7822427,31.8103476 C11.5092653,31.886781 11.2320821,31.947054 10.9521147,31.9908577 C10.8413134,32.0114578 10.7404632,32.0686121 10.6654518,32.1533168 C10.6032826,32.2122868 10.5704414,32.2961094 10.5758696,32.381963 C10.577265,32.4682611 10.6194122,32.5487189 10.6893404,32.5985752 C10.7818792,32.6736208 10.8993789,32.7102117 11.0178083,32.7008643 L33.2759883,32.7008643 C33.4026711,32.7192486 33.5305433,32.6763873 33.6210461,32.5852047 C33.7115489,32.494022 33.7540907,32.3651894 33.7358433,32.2375549 L33.7358433,25.7391897 C33.7494185,25.650351 33.7265423,25.5597706 33.672474,25.4882729 C33.6184058,25.4167752 33.5377973,25.3705117 33.4491804,25.3601184 C33.2548908,25.3528991 33.083568,25.4874332 33.0430747,25.6790197 L32.7444675,26.3649582 Z" id="Shape"></path>
                    <path d="M44.2935594,31.5450645 C43.7301141,30.9907577 43.2925718,30.32038 43.0109642,29.5799441 C42.6389716,28.6415536 42.383685,27.660519 42.2509078,26.6591421 C41.9217519,24.2954134 41.9217519,21.8970695 42.2509078,19.5333409 C42.3847429,18.5302382 42.6399884,17.5473558 43.0109642,16.6065659 C43.292295,15.8572371 43.7295947,15.1770485 44.2935594,14.6115804 C45.2958577,13.6678542 46.8540254,13.6678542 47.8563237,14.6115804 C48.4123332,15.1684592 48.8435639,15.8384723 49.121105,16.5767008 C49.4804031,17.5208845 49.7333551,18.5026052 49.8752235,19.5034758 C50.2250023,21.8657133 50.2250023,24.2670395 49.8752235,26.629277 C49.7344056,27.6284194 49.4814168,28.6082789 49.121105,29.550079 C48.8507923,30.3006929 48.4188988,30.9819342 47.8563237,31.5450645 C46.8528752,32.485857 45.2970079,32.485857 44.2935594,31.5450645 Z M42.1559007,13.769386 C40.9129324,14.2839833 39.7799745,15.0342862 38.8187781,15.9793998 C37.8715541,16.9041107 37.1095884,18.0031174 36.5742365,19.2167714 C36.0261425,20.4658901 35.7468865,21.8174929 35.7548007,23.1828501 C35.7417653,24.5318893 35.9961115,25.870017 36.5029812,27.1190639 C36.9844533,28.3069545 37.6925151,29.3885095 38.5871984,30.3026783 C39.4974758,31.2238099 40.5843353,31.9492754 41.7818105,32.435043 C43.0731843,32.9621278 44.4557419,33.2260606 45.8492998,33.2115343 C47.2745088,33.2253203 48.6879621,32.9511158 50.0058582,32.4051779 C52.5010573,31.3833105 54.5014673,29.4225167 55.5815844,26.9398736 C56.1278047,25.6901512 56.4069769,24.3389546 56.4010203,22.9737948 C56.4087109,21.6279644 56.1503517,20.2940227 55.6409638,19.0495271 C55.159764,17.8597255 54.4517162,16.7761627 53.5567467,15.8599396 C52.6476863,14.940121 51.5630433,14.2147867 50.3680726,13.7275749 C47.7266118,12.6598952 44.7764734,12.6641774 42.1380869,13.739521 L42.1559007,13.769386 Z" id="Shape"></path>
                    <path d="M65.3583716,0.328819575 C65.3743916,0.258295681 65.3619996,0.184211434 65.3239395,0.122971862 C65.2858794,0.0617322901 65.2252918,0.018390568 65.155593,0.00254417612 C65.0138524,-0.010672466 64.8721195,0.0279034165 64.756,0.111302642 C64.2290514,0.48278079 63.6792392,0.819811346 63.1099153,1.12033952 C62.5135078,1.44661492 61.8574595,1.72455322 61.2014113,2.04478649 C60.5453631,2.36501975 59.8833507,2.58857882 59.2273025,2.81818003 C58.630447,3.02719109 58.0232821,3.20466601 57.4082597,3.34988809 C57.2351944,3.35590717 57.0953745,3.49493404 57.0861996,3.67012135 C57.0982443,3.82959951 57.2266252,3.95445836 57.3844033,3.96014392 L57.7362838,4.05077598 L58.3744398,4.20787154 L58.9708473,4.35892497 C59.0742082,4.3886395 59.180001,4.40886166 59.2869433,4.41934634 C59.4491319,4.45240525 59.5616366,4.60264808 59.5493626,4.76979028 L59.5493626,29.3914986 C59.5752415,29.9053444 59.4417728,30.414516 59.1676617,30.8476537 C58.9369146,31.190986 58.6433563,31.4863357 58.3028709,31.7177214 C58.0073421,31.9133717 57.686109,32.0659206 57.3486189,32.1708816 C57.1407778,32.2390833 56.927146,32.287628 56.7104629,32.3158929 C56.6131246,32.3339839 56.5247743,32.3851306 56.4599717,32.4609042 C56.4107252,32.5191743 56.3909029,32.5972701 56.406295,32.672379 C56.4214832,32.75106 56.4637549,32.8217212 56.5255765,32.8717695 C56.6017364,32.9368312 56.7008999,32.9674064 56.799924,32.9563595 L68.0899179,32.9563595 C68.1866742,32.9631683 68.2824351,32.9329861 68.3583013,32.8717695 C68.420193,32.8207384 68.4641289,32.7507927 68.4835469,32.672379 C68.496418,32.5963684 68.4744722,32.5185527 68.4239061,32.4609042 C68.3564734,32.3884425 68.2692721,32.337961 68.173415,32.3158929 C67.9565258,32.2888229 67.7427826,32.240253 67.535259,32.1708816 C67.1994623,32.0663808 66.8801363,31.9137838 66.586971,31.7177214 C66.2432844,31.4882589 65.9474328,31.1926407 65.7162161,30.8476537 C65.4445677,30.4136546 65.313229,29.9046558 65.3404793,29.3914986 L65.3404793,0.328819575 L65.3583716,0.328819575 Z" id="Shape"></path>
                    <path d="M81.2752852,28.1816959 C81.2663581,28.4308462 81.2284854,28.6780501 81.1624555,28.9181604 C81.0817774,29.2532133 80.9451962,29.5717286 80.7586457,29.8598691 C80.5525041,30.1790999 80.2785533,30.447267 79.9569635,30.6446264 C79.5511155,30.8801702 79.0876318,30.993246 78.620827,30.9706025 C78.1373904,30.98427 77.6574937,30.8829826 77.2193675,30.6748093 C76.8507593,30.5019247 76.5242841,30.2483806 76.2632879,29.9323082 C76.0060501,29.6163595 75.814172,29.2508952 75.6991409,28.8577944 C75.5803621,28.4667533 75.5203021,28.0597329 75.5209897,27.6504755 C75.5158396,27.0865919 75.6103756,26.5263531 75.8000933,25.9964486 C75.9885957,25.4628389 76.2792342,24.9724825 76.6552212,24.5537026 C76.904502,24.2772891 77.1745203,24.0209696 77.4628417,23.787055 L78.3417226,23.08681 L79.2265418,22.3080893 C79.5175234,22.0545524 79.8203808,21.7829056 80.0876079,21.4871125 C80.2272752,21.3551977 80.3582059,21.2140356 80.4795413,21.0645509 C80.5686173,20.9498556 80.681447,20.8291237 80.8002142,20.690282 C80.8871477,20.6198293 81.0025722,20.597265 81.1090105,20.6299161 C81.2028165,20.6330451 81.2781454,20.7096198 81.2812235,20.8049773 L81.2812235,28.1816959 L81.2752852,28.1816959 Z M87.9144,31.037005 C87.729034,31.0540133 87.542549,31.0206825 87.3740074,30.9404195 C86.9851522,30.7025627 86.7568534,30.2662621 86.7801684,29.8055398 C86.7091287,29.0290183 86.6912708,28.2484166 86.7267234,27.4693777 C86.7267234,26.5216323 86.8157987,25.4410819 86.9048746,24.2156532 C86.9939506,22.9902245 87.0295808,21.6682104 87.0295808,20.2677204 C87.046598,19.204603 86.8818336,18.1465595 86.5426333,17.1407645 C86.2365043,16.249121 85.7038328,15.4556437 84.9986528,14.8408219 C84.1904607,14.173229 83.250884,13.6894961 82.2432421,13.4222222 C80.909056,13.0739913 79.5348973,12.9095325 78.1576324,12.9332581 C76.960887,12.9081903 75.7652952,13.0236499 74.5946013,13.2773439 C73.8059858,13.4478071 73.051184,13.7518641 72.3617684,14.1767965 C71.4508943,14.714227 70.8882441,15.701941 70.8831103,16.7725321 C70.8812472,17.1009824 70.933433,17.4274368 71.0375084,17.7383873 C71.1410754,18.0349665 71.3072854,18.3048885 71.5244559,18.5291812 C71.7414661,18.7632993 72.0044893,18.9484036 72.2964461,19.0724747 C72.6269077,19.2137559 72.9832382,19.2816728 73.3416017,19.2716823 C73.7464271,19.2703538 74.1480686,19.1989041 74.529279,19.0604015 C74.9122471,18.9289354 75.2570988,18.7028379 75.5328662,18.4024127 C75.8624123,18.0254006 76.1039734,17.5776219 76.2395341,17.0924717 C76.3879941,16.5914344 76.5483305,16.0964336 76.708667,15.6195426 C76.8581704,15.1737635 77.0944664,14.7631597 77.4034577,14.4122237 C77.7723321,14.0507155 78.2764673,13.8681607 78.7871017,13.9111863 C79.1331148,13.9127206 79.4720627,14.010866 79.7669351,14.1949063 C80.0783075,14.3934407 80.3486005,14.6518004 80.562679,14.9555172 C80.7987888,15.2974596 80.9773909,15.676891 81.0911951,16.0783238 C81.2143486,16.5119245 81.2763302,16.9611008 81.2752852,17.4124112 C81.2770091,18.0308165 81.1683593,18.6444104 80.9546124,19.2233896 C80.7345187,19.7989025 80.3364659,20.2861603 79.8203808,20.6118063 C79.3147432,20.9526742 78.7568343,21.2056411 78.1695097,21.360344 C77.5875479,21.5132711 76.9937089,21.6400396 76.3879941,21.7406495 C75.7941551,21.8432716 75.2003168,21.9458937 74.558971,22.0364426 C73.9500487,22.1239252 73.3525541,22.2798182 72.7774554,22.5012604 C71.7734871,22.8928849 70.892971,23.5542829 70.2298878,24.4148608 C69.5646538,25.2730749 69.2158998,26.3409112 69.2441158,27.4331581 C69.2459653,28.1635835 69.3704809,28.8883264 69.6122957,29.5761492 C69.8585141,30.3052605 70.264651,30.9678904 70.7999729,31.513896 C71.4219615,32.1277505 72.1618742,32.6045229 72.9734221,32.9143859 C74.0351145,33.3033796 75.1588763,33.487629 76.2870409,33.4576795 C76.9727283,33.4673968 77.6569407,33.3903413 78.3239078,33.2282888 C78.8509316,33.1036964 79.3613287,32.9152123 79.8441345,32.6668856 C80.1893594,32.48787 80.5156858,32.2734635 80.8180297,32.0270065 L81.2277778,31.6648109 C81.2987506,31.5934022 81.3902861,31.5468774 81.4890674,31.5320058 C81.5946816,31.5195338 81.6950832,31.5817667 81.7325408,31.6829206 C82.0003246,32.2065514 82.4132443,32.6388923 82.9202181,32.9264591 C83.5732088,33.3009925 84.3145555,33.4867849 85.0639751,33.463716 C85.6043712,33.4695589 86.1432578,33.4046346 86.6673395,33.270545 C87.0797111,33.1577876 87.4781552,32.9977993 87.8550167,32.793654 C88.1440803,32.6354918 88.4066493,32.4317429 88.6329452,32.1899946 C88.7957657,32.0168559 88.9373395,31.8242926 89.0545705,31.6165181 C89.1605019,31.4757908 89.1605019,31.2803545 89.0545705,31.1396272 C88.9309697,31.0121743 88.7487451,30.9635494 88.5794995,31.0128587 C88.3608665,31.040093 88.1404952,31.0501838 87.920339,31.0430417 L87.9144,31.037005 Z" id="Shape"></path>
                    <path d="M13.267784,40.1810631 C13.3238228,40.1882827 13.3703644,40.2285517 13.3863923,40.2836861 C13.3863923,40.3259426 13.4516269,40.5372251 13.5524439,40.929607 C13.6532609,41.3219889 13.7777996,41.8230304 13.92606,42.4387681 L14.430145,44.5274472 C14.6139879,45.3061743 14.8096915,46.0909381 15.0231864,46.8877751 L15.6162277,49.2420665 C15.806001,50.0087204 15.9779829,50.6968979 16.1262433,51.3005623 L16.4879985,52.7735036 C16.5243476,52.9783994 16.575892,53.1801982 16.6421892,53.377168 C16.6673245,53.4522592 16.7362417,53.5030587 16.8141712,53.5039376 C16.8931813,53.5021235 16.9633654,53.4521147 16.9920836,53.377168 C16.9920836,53.377168 17.0454573,53.2322885 17.1522047,52.9727128 C17.2589522,52.7131371 17.3894213,52.3690484 17.5554728,51.9525199 C17.7215244,51.5359915 17.9053672,51.0228767 18.1485142,50.4614687 C18.3916611,49.9000607 18.5873647,49.302433 18.8305117,48.6504754 L19.5777438,46.6946025 L20.3190454,44.7266564 C20.5562619,44.0867721 20.7934785,43.4891443 21.0069734,42.9156631 C21.2204682,42.3421818 21.4221023,41.847177 21.6000147,41.4065019 C21.7779271,40.9658269 21.890605,40.6157015 21.9973524,40.3500892 C22.1040998,40.0844767 22.163404,39.9395973 22.1752648,39.9033775 C22.1871256,39.8671576 22.2523602,39.7947178 22.2938731,39.8128278 C22.3392108,39.8373563 22.3651135,39.8876928 22.3591076,39.9395973 L22.3591076,51.3005623 C22.3730011,51.6303214 22.2882129,51.9566037 22.1159606,52.2362422 C21.970492,52.4604078 21.7830846,52.6532234 21.5644322,52.8036868 C21.3711682,52.9333293 21.1590182,53.0311181 20.9358084,53.0934457 C20.728244,53.1477756 20.5681228,53.1779588 20.4791666,53.1960687 C20.4182043,53.2058277 20.3620086,53.2354881 20.3190454,53.2805817 C20.2844131,53.3128143 20.2668163,53.3598333 20.2716021,53.4073513 C20.2710308,53.4580831 20.2955404,53.5057124 20.3368367,53.5341208 C20.3867406,53.5754834 20.4507185,53.5950206 20.514749,53.5884506 L27.9633481,53.5884506 C28.0271303,53.5926109 28.090261,53.5733324 28.1412605,53.5341208 C28.1795303,53.5037224 28.2015025,53.4567543 28.2005646,53.4073513 C28.20015,53.3617055 28.1856256,53.3173516 28.1590517,53.2805817 C28.1169669,53.2375494 28.0633208,53.2081456 28.004861,53.1960687 C27.8981136,53.1960687 27.7498532,53.1477756 27.5422888,53.0934457 C27.3188735,53.0316986 27.1066359,52.9338695 26.913665,52.8036868 C26.6919543,52.6549893 26.5022869,52.4619244 26.3562061,52.2362422 C26.1738351,51.9601818 26.080551,51.6331142 26.0893376,51.3005623 L26.0893376,39.299713 C26.0738362,38.9744032 26.1566236,38.6520688 26.3265541,38.3761064 C26.4700236,38.148271 26.660187,37.9547013 26.8840129,37.8086618 C27.0789553,37.6821453 27.2906278,37.5845766 27.5126367,37.5189028 C27.7202012,37.4706097 27.8743919,37.4283532 27.975209,37.4162799 C28.0353141,37.4091583 28.0904734,37.3789251 28.1293997,37.3317668 C28.1562326,37.2905922 28.1706615,37.2423338 28.1709126,37.192924 C28.1693874,37.1440956 28.1478875,37.0981371 28.1116084,37.0661545 C28.0579613,37.0333094 27.9962865,37.0165682 27.9336961,37.0178614 L22.7979582,37.0178614 C22.5937885,36.9948303 22.3996411,37.1134054 22.3235251,37.3076203 L22.0092132,38.1527505 L21.5525714,39.3600794 C21.3805894,39.8067911 21.202677,40.2897227 21.0129038,40.7907642 C20.8231306,41.2918057 20.6392877,41.8109571 20.4495146,42.3180352 C20.2597413,42.8251134 20.0758985,43.308045 19.9039165,43.7728666 C19.7319345,44.2376882 19.565883,44.6602534 19.4354138,45.022452 L19.0855195,45.9279487 L18.9253983,46.3505138 C18.9253983,46.3988069 18.8898159,46.4108803 18.8601638,46.4048436 C18.8263723,46.3998561 18.7998289,46.3728373 18.7949292,46.3384405 L18.6763209,45.8675822 C18.6170168,45.6261164 18.5517822,45.3182476 18.4568957,44.937939 C18.3620091,44.5576303 18.261192,44.1471386 18.1485142,43.6762802 C18.0358363,43.205422 17.9231585,42.7526737 17.7867589,42.2455955 L17.4250037,40.7485077 C17.3063955,40.2474661 17.1937176,39.7705713 17.0810398,39.3298962 C16.968362,38.8892211 16.8734753,38.4908026 16.7904495,38.1225673 L16.6006763,37.3076203 C16.5815702,37.2163408 16.5256044,37.1374617 16.4464856,37.0903011 C16.3559496,37.044932 16.2567813,37.0202109 16.1558953,37.0178614 L10.7117759,37.0178614 C10.6489398,37.0143335 10.5866306,37.031247 10.5338636,37.0661545 C10.4952073,37.0914285 10.4709134,37.1341422 10.468629,37.1808508 C10.4638431,37.2283688 10.48144,37.2753878 10.5160723,37.3076203 C10.5561467,37.3581664 10.6096783,37.3958906 10.670263,37.4162799 L11.0082966,37.5068296 C11.1511223,37.5496794 11.2916648,37.6000527 11.4293559,37.6577456 C11.5835861,37.730263 11.7340246,37.8108594 11.8800674,37.8992115 C12.0319104,38.0005793 12.1695618,38.1224203 12.2892659,38.2614101 C12.4159606,38.4085288 12.5145172,38.578462 12.5798561,38.7624517 C12.6581403,38.9787949 12.6963451,39.2080362 12.692534,39.4385558 C12.6787282,40.3790134 12.5974631,41.3171888 12.4493871,42.2455955 C12.2809159,43.3147799 12.0592284,44.3745689 11.7851807,45.4208705 C11.5005209,46.5195398 11.1506265,47.6302824 10.7473584,48.7410251 C10.3440903,49.8517676 9.88744848,50.932327 9.39522423,51.9706298 C8.91893258,52.974082 8.38424533,53.9477118 7.79401264,54.8863291 C7.27635185,55.7328611 6.68061768,56.5272523 6.01488864,57.2587305 C5.45394305,57.8798253 4.80895984,58.4164375 4.09936515,58.8524046 C3.50200066,59.2306597 2.8159919,59.4391067 2.11267671,59.4560691 C1.89472335,59.4568369 1.67690951,59.4447433 1.46033125,59.4198492 C1.30126227,59.3869672 1.14469803,59.342586 0.991828605,59.287043 C0.873313803,59.2314773 0.760146263,59.1647856 0.653795049,59.0878337 C0.56483885,59.0033208 0.469952238,58.9127711 0.3632048,58.8222214 C0.311878612,58.7353761 0.204676566,58.7016002 0.114127442,58.7437451 C0.034638977,58.7988128 -0.00865758585,58.8939159 0.00144959027,58.9912474 C0.00360662742,59.4601937 0.0654012027,59.9268822 0.185292401,60.3796757 C0.306935065,60.8274917 0.507913769,61.2489241 0.77833373,61.6232244 C1.09076404,62.0051104 1.47873781,62.3157012 1.91697308,62.5347578 C2.47920306,62.7764604 3.08606616,62.8917707 3.69609705,62.8728099 C5.00762201,62.8913306 6.28817607,62.4667403 7.3373708,61.665481 C8.59401095,60.6169291 9.57435028,59.2663408 10.1898995,57.7356254 C11.1332218,55.4821255 11.7966223,53.1176178 12.1647272,50.6968979 C12.7240118,47.2600975 13.0607944,43.7895968 13.1728975,40.3078326 C13.1847583,40.2353929 13.2144104,40.1810631 13.267784,40.1810631 Z" id="Shape"></path>
                    <path d="M34.3415258,45.689812 C34.4773999,45.2324883 34.6250891,44.7450776 34.7905011,44.2275798 C34.955913,43.7100819 35.1213249,43.1805493 35.2808294,42.6449992 C35.4403337,42.1094491 35.5998381,41.6340732 35.7357122,41.2008192 C35.8715863,40.7675653 35.9838301,40.4125377 36.0724436,40.1357365 C36.1142709,39.986838 36.1635654,39.8402217 36.2201329,39.6964651 C36.2318236,39.6513761 36.2692279,39.6180387 36.314654,39.6122213 C36.3619168,39.6008835 36.409335,39.6304001 36.4209903,39.6784129 C36.4457861,39.7866655 36.4773576,39.8931909 36.5155113,39.9973359 C36.5804946,40.2019281 36.6750157,40.4666944 36.7754444,40.7916349 C36.8758731,41.1165754 37.0058396,41.4896552 37.1417137,41.9108744 C37.2775878,42.3320936 37.4193695,42.7533127 37.5611511,43.1865667 C37.7029328,43.6198207 37.8447145,44.0470573 37.9805886,44.4682764 C38.1164627,44.8894956 38.2405216,45.2685928 38.3527655,45.5995507 C38.4650092,45.9305087 38.5477152,46.2012924 38.618606,46.4299542 L38.7308499,46.7849818 C38.7308499,46.8812604 38.7308499,46.9293998 38.6363287,46.9293998 L34.0934079,46.9293998 C33.9870716,46.9293998 33.9516262,46.8752431 33.9988868,46.772947 C34.0934079,46.5021632 34.1997441,46.1471356 34.3415258,45.689812 Z M45.7726727,53.1273388 C45.5566523,53.0120671 45.3577565,52.8661993 45.1819157,52.6940848 C44.9766255,52.4990871 44.7960333,52.2787511 44.6443269,52.0381865 C44.4680331,51.7533598 44.325269,51.4483846 44.2189819,51.1295565 C44.1539986,50.9550514 44.0417548,50.6180761 43.8822504,50.1186306 L43.2914935,48.3134056 C43.0670058,47.6274201 42.8129803,46.8692256 42.5471398,46.0448395 C42.2812991,45.2204535 42.0036434,44.39005 41.7318952,43.5536291 C41.460147,42.7172082 41.1883988,41.9108744 40.9343733,41.1466625 C40.6803478,40.3824506 40.4499526,39.666378 40.2490952,39.0465841 C40.0482378,38.4267902 39.882826,37.9393795 39.7646746,37.5602822 C39.6465232,37.181185 39.5697247,36.9585406 39.5697247,36.9585406 C39.5401947,36.8825503 39.4886891,36.8174958 39.4220355,36.7720007 C39.3211846,36.7480726 39.2151437,36.7653545 39.126657,36.82014 C38.9129186,36.9151591 38.6939745,36.9975342 38.4709168,37.0668541 C38.2346141,37.1450805 37.9864961,37.2172895 37.7501933,37.2774637 L37.041285,37.4579861 C36.8108898,37.5181603 36.6100325,37.5542648 36.4505281,37.5903693 C36.3656561,37.5967928 36.2849799,37.6305062 36.2201329,37.6866479 C36.1653642,37.7443258 36.1248638,37.8144568 36.1019815,37.8912401 C36.1019815,37.8912401 36.0251831,38.119902 35.8952166,38.4929818 C35.76525,38.8660616 35.5939305,39.377542 35.3871656,39.9913185 L34.6723497,42.0913969 L33.84529,44.4983635 L33.0005075,46.9594869 C32.7169442,47.7618091 32.4629187,48.4999455 32.2384311,49.1738962 L31.6476742,50.8647902 L31.3345729,51.7312982 C31.246514,51.9605123 31.1293334,52.176978 30.9860264,52.3751617 C30.8532928,52.5500658 30.6960471,52.7041529 30.5193284,52.8324854 C30.3488672,52.9551273 30.1643737,53.0561617 29.9699244,53.1333562 C29.778554,53.2171661 29.5810305,53.2855729 29.3791675,53.3379484 C29.3249717,53.3544959 29.2773724,53.3882241 29.2432934,53.4342271 C29.2190013,53.4693779 29.2065632,53.5116089 29.207848,53.5545754 C29.2144774,53.5983279 29.2352704,53.6385692 29.2669236,53.6689063 C29.3103744,53.6988715 29.3622035,53.7136535 29.4146129,53.7110282 L33.8275672,53.7110282 C33.8779804,53.7123645 33.9275458,53.6976391 33.9693489,53.6689063 C34.0039262,53.6416264 34.028817,53.6035961 34.0402398,53.5605928 C34.0546431,53.5176845 34.0546431,53.4711179 34.0402398,53.4282096 C34.0061523,53.3806494 33.9553657,53.3483176 33.8984581,53.3379484 L33.378592,53.2537046 C33.1957803,53.2077275 33.0219808,53.1304036 32.8646334,53.0250427 C32.7023247,52.9208851 32.57147,52.773019 32.486549,52.5978062 C32.3930026,52.3790859 32.3804106,52.1332519 32.4511036,51.9058033 C32.480445,51.7836765 32.5159374,51.6631688 32.5574398,51.5447583 C32.6165155,51.352201 32.6814988,51.135574 32.7642047,50.8768251 C32.8469107,50.6180761 32.9296167,50.3472924 33.0182302,50.0464216 C33.1068438,49.7455507 33.1954573,49.4446799 33.2899784,49.1979658 L33.5026509,48.4698584 C33.5676342,48.2592488 33.6208023,48.0967786 33.6503402,47.9944825 C33.6716822,47.9348327 33.7301307,47.8976231 33.7921218,47.9042213 L38.9376148,47.9042213 C39.0010547,47.9068234 39.0557627,47.9504345 39.0734889,48.0125348 C39.0924252,48.1099194 39.1221533,48.2047997 39.1621024,48.2953534 C39.2211782,48.4457887 39.2802538,48.6383461 39.3570523,48.8549731 C39.4338506,49.0716001 39.5047415,49.3122967 39.5933551,49.5710456 C39.6819686,49.8297945 39.7705821,50.0825261 39.8532881,50.3232227 C39.9359941,50.5639194 40.0009773,50.7985986 40.0718682,50.9911559 C40.142759,51.1837133 40.1900196,51.3461835 40.2372801,51.4484796 C40.3635943,51.739613 40.376269,52.0688293 40.2727255,52.3691444 C40.1790705,52.5973413 40.0258365,52.7950468 39.8296578,52.9407989 C39.653916,53.0821822 39.4534597,53.1883576 39.2389009,53.2537046 C39.0380435,53.3138788 38.8962618,53.3620181 38.8194634,53.3740529 C38.7563199,53.3924304 38.6991886,53.4277623 38.6540514,53.476349 C38.6218378,53.507064 38.6102801,53.5541546 38.6245137,53.5966973 C38.6374919,53.6405387 38.664534,53.6786778 38.701312,53.7050108 C38.7418702,53.7363515 38.7923538,53.7513497 38.8430937,53.7471327 L46.3397993,53.7471327 C46.3997624,53.7517605 46.4591255,53.7323248 46.5052113,53.692976 C46.5410545,53.6601593 46.5641185,53.6153092 46.5701945,53.5666102 C46.5850518,53.5217178 46.5850518,53.4731021 46.5701945,53.4282096 C46.541434,53.3844936 46.4968139,53.3541938 46.4461355,53.3439658 C46.2119218,53.3080121 45.9846809,53.2349174 45.7726727,53.1273388 Z" id="Shape"></path>
                    <path d="M53.3399651,45.1897883 L53.3399651,39.7675061 C53.3298146,39.4530976 53.3724971,39.1392108 53.4662472,38.8388279 C53.5434706,38.6034231 53.6729624,38.3883915 53.8450934,38.2097233 C54.0150295,38.0439085 54.2206962,37.9189099 54.4464366,37.8442435 C54.6934239,37.7665662 54.9511529,37.7281492 55.2101426,37.7304056 C55.4999395,37.7283991 55.7868721,37.787618 56.052023,37.9041582 C56.3136255,38.0281328 56.5346309,38.223403 56.6894469,38.4673566 C56.8824427,38.7801821 57.0169129,39.1252802 57.0863333,39.4859069 C57.1897324,40.0066904 57.2381037,40.5368317 57.2306557,41.0676555 C57.2401942,41.6852912 57.1817147,42.3021064 57.0562662,42.9070374 C56.9673889,43.3409951 56.8133151,43.7591111 56.5992454,44.1472722 C56.4376663,44.4463387 56.211796,44.7061639 55.9377678,44.9081891 C55.7030191,45.0819992 55.4408547,45.2156401 55.1620351,45.3036263 C54.9004581,45.3856597 54.6299034,45.435952 54.3562352,45.4534131 C54.0916442,45.4534131 53.8491024,45.4534131 53.6286099,45.4534131 C53.5534836,45.4643476 53.4774059,45.441029 53.4214385,45.3899129 C53.3654711,45.3387967 53.3355524,45.2653068 53.3399651,45.1897883 Z M61.9692402,52.3795549 C61.8401796,52.391747 61.7099749,52.381612 61.5843806,52.3495976 C61.4493237,52.3150336 61.3225631,52.2539218 61.2115478,52.1698534 C61.0796365,52.0718366 60.9810061,51.9359309 60.9289165,51.7804077 C60.813423,51.501857 60.7443618,51.2063833 60.7244598,50.9056528 C60.6883792,50.5341815 60.658312,50.0668467 60.6282449,49.4916653 C60.6138019,49.00039 60.5716413,48.5103128 60.5019628,48.0237546 C60.4524785,47.6225041 60.3323759,47.2330889 60.1471703,46.873392 C60.0134639,46.6452917 59.8404339,46.4424704 59.6360286,46.2742448 C59.4524655,46.121872 59.25044,45.9930478 59.0346854,45.8907906 C58.8573855,45.8099758 58.6745116,45.7418988 58.487463,45.6870805 L58.1446974,45.5972085 C58.0845631,45.5972085 58.0605094,45.5972085 58.0725362,45.5372937 C58.0897587,45.4886385 58.1350478,45.4553895 58.1867914,45.4534131 C58.7966348,45.29245 59.3687471,45.0135458 59.8705524,44.6325814 C60.6936848,43.9536595 61.2198055,42.9826015 61.3378299,41.9244361 C61.380221,41.5066059 61.3619935,41.0848708 61.283709,40.6722184 C61.20689,40.2558311 61.0712417,39.8523896 60.880809,39.4739239 C60.6974894,39.1137622 60.4510783,38.7891193 60.1531838,38.5152884 C59.805419,38.2100979 59.4143388,37.9577326 58.9925914,37.7663544 C58.5947024,37.5973365 58.1792466,37.4727529 57.7538243,37.3948831 C57.3189006,37.3181152 56.878523,37.2760414 56.4368827,37.2690621 L55.0718336,37.2690621 L47.5851106,37.2690621 C47.5194385,37.2648541 47.4547112,37.2863511 47.4047076,37.3289769 C47.3652991,37.3566261 47.3408924,37.4008397 47.3385599,37.4488064 C47.3310773,37.4987108 47.3465367,37.5493203 47.3806539,37.5866102 C47.4196684,37.6396135 47.4832149,37.6690095 47.54903,37.6644993 L48.0060508,37.7783373 C48.2321829,37.8407558 48.4472183,37.9377747 48.6434746,38.065928 C48.8728747,38.224786 49.0672763,38.428672 49.2147507,38.6650752 C49.3839268,38.9447162 49.4675228,39.2674677 49.455288,39.5937534 L49.455288,51.5766976 C49.4710863,51.9014686 49.3871807,52.2233254 49.2147507,52.4993843 C49.0603763,52.7185755 48.8667036,52.9074785 48.6434746,53.0565912 C48.448376,53.1868299 48.2329923,53.284006 48.0060508,53.3441819 C47.7955807,53.3981052 47.6392315,53.4280626 47.54903,53.446037 C47.48534,53.4553192 47.4263209,53.484721 47.3806539,53.5299176 C47.3467397,53.5648987 47.3311696,53.6136545 47.3385599,53.6617299 C47.3389141,53.7102321 47.3637857,53.755288 47.4047076,53.7815594 C47.4574939,53.81832 47.520732,53.8372222 47.5851106,53.8354826 L55.2041291,53.8354826 C55.2682378,53.8353085 55.3309139,53.8165744 55.384532,53.7815594 C55.421075,53.7514522 55.4447292,53.7086016 55.4506798,53.6617299 C55.4511178,53.6144439 55.4363682,53.5682573 55.4085858,53.5299176 C55.3624405,53.4853889 55.3036503,53.4561013 55.2402097,53.446037 C55.0842342,53.4199155 54.9296904,53.38592 54.7771754,53.3441819 C54.5503081,53.2837991 54.3349575,53.1866379 54.1397516,53.0565912 C53.9194828,52.9079612 53.7296772,52.7188487 53.5805024,52.4993843 C53.4047634,52.224751 53.3205797,51.9018276 53.3399651,51.5766976 L53.3399651,46.7295967 C53.3202564,46.5346279 53.3762006,46.3395381 53.4963144,46.1843727 C53.6689523,46.0568182 53.8845263,46.0009737 54.0976576,46.0285945 C54.3326351,46.0313522 54.5658218,46.069738 54.7892023,46.1424324 C55.0610277,46.2452521 55.2942117,46.4294436 55.4566933,46.6696819 C55.7116692,47.0502972 55.8988261,47.4718892 56.009929,47.9159082 C56.2001765,48.6484214 56.3249414,49.3962823 56.3827618,50.1507272 C56.414719,50.5905452 56.4689087,51.0284784 56.5451244,51.4628597 C56.5996335,51.8102885 56.7007627,52.1488415 56.8457961,52.469427 C56.9754174,52.7880716 57.1652748,53.0789367 57.4050452,53.3262075 C57.621033,53.5500647 57.8730617,53.736371 58.1507109,53.8774229 C58.4298231,54.0064775 58.72219,54.1049165 59.0226585,54.171005 C59.3222735,54.2254895 59.6261252,54.2535582 59.9306867,54.2548857 C60.2720483,54.2533076 60.6117169,54.2069752 60.9409433,54.1170818 C61.2275729,54.0239224 61.5020998,53.8972162 61.7587701,53.7396191 C61.9825693,53.5993039 62.1850687,53.427808 62.3601133,53.2303439 C62.5085233,53.0682536 62.6157547,52.8730655 62.6728118,52.6611541 C62.721535,52.5586115 62.6914169,52.4360786 62.6006506,52.367572 C62.5144168,52.3298743 62.41628,52.3298743 62.3300461,52.367572 C62.2104618,52.3856486 62.0888247,52.3856486 61.9692402,52.367572 L61.9692402,52.3795549 Z" id="Shape"></path>
                    <path d="M76.8443917,52.1819079 C76.7172647,52.1941256 76.5890101,52.1839693 76.4652971,52.1518877 C76.3322635,52.1172512 76.207402,52.0560112 76.0980495,51.9717664 C75.9678387,51.8738194 75.8706174,51.737532 75.8196521,51.5815037 C75.706191,51.3022704 75.6381761,51.0062276 75.6182585,50.7049135 C75.5708718,50.3326628 75.5412547,49.8643476 75.5234845,49.2879595 C75.505715,48.7115714 75.4464814,48.2852844 75.3813246,47.8289772 C75.329,47.4272522 75.2150829,47.0362785 75.0436935,46.670197 C74.8696473,46.3492833 74.6501233,46.0559687 74.3921246,45.7996109 C74.1504721,45.5595674 73.8749938,45.3572261 73.5747025,45.1992067 C73.2782048,45.0497848 72.9635133,44.9407669 72.638813,44.8749884 C72.3185407,44.8132224 71.9933953,44.7810688 71.6673839,44.7789237 L71.4067565,44.7789237 L71.1757458,44.7789237 C71.1378364,44.7949345 71.0951882,44.7949345 71.0572788,44.7789237 C71.0276621,44.7789237 71.0572788,44.7248874 71.0572788,44.6648469 C71.1208943,44.5264261 71.1962042,44.3938429 71.2823661,44.2685801 L71.8747011,43.3739778 L72.6151197,42.1731693 L73.4147724,40.8762962 L74.1492675,39.6754878 L74.6882922,38.8109057 C74.9840729,38.3075415 75.4241847,37.9075111 75.9499657,37.6641335 C76.1398338,37.5795911 76.3385484,37.5171502 76.5423009,37.4780082 C76.7200012,37.441984 76.879932,37.4239719 76.9983986,37.4119638 C77.0598366,37.408573 77.117401,37.3804791 77.1583295,37.3339112 C77.1902013,37.3000466 77.2072803,37.254602 77.2057161,37.2078264 C77.1978461,37.1580752 77.1751028,37.1119703 77.1405593,37.0757374 C77.0899457,37.0355201 77.0271557,37.0143051 76.962859,37.015697 L72.4314963,37.015697 C72.3667882,37.0113143 72.3024067,37.0281552 72.2478721,37.0637294 C72.2081383,37.0933287 72.1840968,37.1398518 72.1827153,37.1898142 C72.1769568,37.238969 72.1945393,37.2879792 72.230102,37.3219031 C72.2730549,37.3683129 72.3331782,37.3944309 72.3959559,37.3939517 L72.7691266,37.4539921 C72.9195988,37.4763819 73.065574,37.5230007 73.2015317,37.5920851 C73.327521,37.6645041 73.4271998,37.7760654 73.4858523,37.9102993 C73.5463115,38.1103906 73.5249699,38.3267097 73.4266187,38.5107035 C73.3555387,38.6788168 73.2311482,38.9129744 73.0830644,39.2011684 C72.9349806,39.4893625 72.7632035,39.8015726 72.5736562,40.1798273 C72.3841089,40.558082 72.1767922,40.9063165 71.9813217,41.2905751 L71.3889864,42.3532906 C71.1935158,42.6835129 71.0158154,42.9536949 70.8677316,43.2298808 C70.7196478,43.5060668 70.6071042,43.6621719 70.5478707,43.7582365 C70.4886372,43.8543012 70.3583235,44.0584386 70.2753966,44.1845236 C70.1982099,44.3002405 70.1109881,44.4087437 70.0147692,44.5087418 C69.9345999,44.5961221 69.8404846,44.6691925 69.7363717,44.7248874 C69.6317325,44.7782577 69.5158621,44.8050443 69.3987408,44.8029399 C69.2360597,44.8242212 69.0775717,44.7403011 69.0018763,44.5927984 C68.9311121,44.4178278 68.8987721,44.2293402 68.9071027,44.0404265 L68.9071027,39.2371926 C68.8889853,38.9227932 68.9721376,38.6109385 69.1440367,38.3485944 C69.2900679,38.1312194 69.4773312,37.9454871 69.6949083,37.8022266 C69.8889105,37.6779223 70.1007026,37.5847605 70.3227834,37.5260406 L70.7788813,37.4179679 C70.8419605,37.4200127 70.9026931,37.3936299 70.9447352,37.3459193 C70.9742179,37.3082484 70.9908461,37.261898 70.992122,37.2138304 C70.9831256,37.1662156 70.960459,37.1223535 70.9269651,37.0877455 C70.8733819,37.0550778 70.8117805,37.038427 70.7492646,37.0397132 L63.1792232,37.0397132 C63.1164191,37.0357757 63.0540535,37.0526331 63.0015227,37.0877455 C62.9671457,37.1216548 62.9477534,37.1682111 62.9477534,37.2168324 C62.9477534,37.2654538 62.9671457,37.31201 63.0015227,37.3459193 C63.0399528,37.3990338 63.1025473,37.4284915 63.1673765,37.4239719 C63.2562268,37.4239719 63.4043106,37.4780082 63.6175511,37.5380487 C63.8392956,37.6033677 64.0507161,37.7004095 64.2454262,37.8262427 C64.4671494,37.9708883 64.658404,38.1586265 64.8081445,38.3786146 C64.9748061,38.65442 65.0572435,38.9740387 65.0450785,39.2972331 L65.0450785,51.1492126 C65.0614026,51.4747442 64.9786957,51.7975038 64.8081445,52.0738351 C64.6572938,52.2961896 64.4663763,52.4876708 64.2454262,52.6382151 C64.0525865,52.7675136 63.8406312,52.8648008 63.6175511,52.9264091 C63.4102338,52.9804455 63.2562268,53.0104658 63.1673765,53.0224738 C63.1045116,53.0313568 63.0462526,53.0608831 63.0015227,53.1065304 C62.9663446,53.1404874 62.9507078,53.1903008 62.9600593,53.2386193 C62.9604082,53.2872232 62.9849072,53.3323737 63.0252161,53.3587002 C63.0750605,53.3998394 63.1389623,53.4192711 63.2029166,53.4127365 L70.7078012,53.4127365 C70.7713876,53.4158482 70.8341055,53.3967765 70.8855017,53.3587002 C70.9194958,53.3268968 70.9423648,53.2847505 70.9506585,53.2386193 C70.9493826,53.1905517 70.9327545,53.1442013 70.9032717,53.1065304 C70.8578177,53.0619084 70.7999082,53.0325592 70.7374179,53.0224738 C70.6426443,53.0224738 70.4945605,52.9804455 70.2813199,52.9264091 C70.0583423,52.864513 69.8464306,52.7672458 69.6534448,52.6382151 C69.4344471,52.4893056 69.2471308,52.2973961 69.1025733,52.0738351 C68.9283263,51.7991305 68.8453055,51.4751462 68.8656393,51.1492126 L68.8656393,46.5501162 C68.8633465,46.4626598 68.8753555,46.3754221 68.9011794,46.2919423 C68.9251343,46.1964609 68.9674016,46.1066945 69.0255698,46.0277645 C69.0801447,45.9470672 69.1533482,45.8811109 69.2388103,45.8356352 C69.345985,45.7834814 69.4634816,45.7567872 69.5823646,45.7575826 C69.6973831,45.7604146 69.8121193,45.7704404 69.925919,45.7876028 C70.0556404,45.8139939 70.1786263,45.8671281 70.2872433,45.9437079 C70.425174,46.0494107 70.5452105,46.177166 70.6426443,46.3219626 C70.7807379,46.5421774 70.8883623,46.7805605 70.9625052,47.0304396 C71.0694079,47.4016513 71.156411,47.7784557 71.2231326,48.1591996 C71.3001362,48.6095027 71.365293,49.1678787 71.4245265,49.8043071 C71.4549564,50.2511207 71.5083389,50.6960232 71.584457,51.1372045 C71.6374604,51.4931544 71.7308795,51.8417009 71.8628544,52.1759038 C71.9875426,52.5007286 72.1725332,52.7982999 72.4078029,53.052494 C72.6132872,53.278976 72.8557445,53.4678659 73.1245279,53.6108699 C73.3887086,53.7490758 73.6694434,53.8520014 73.9597202,53.9170761 C74.2528536,53.9716644 74.5501863,53.9997935 74.848223,54.0011327 C75.4775973,54.0086277 76.0953569,53.8291239 76.6252279,53.4847851 C76.8465758,53.3454247 77.0462117,53.173423 77.2175631,52.9744415 C77.358161,52.8080318 77.463056,52.613786 77.525577,52.4040574 C77.5787825,52.3018935 77.5482556,52.1755418 77.4544971,52.1098594 C77.37156,52.0723567 77.2768061,52.0723567 77.1938698,52.1098594 C77.0816313,52.1516131 76.963804,52.1759045 76.8443917,52.1819079 Z" id="Shape"></path>
                    <path d="M90.138802,50.1169078 C90.0370066,50.3084785 89.9198993,50.4912998 89.7886522,50.6635426 C89.6224882,50.8874382 89.4420853,51.1001354 89.2485897,51.3002821 C89.0281292,51.5322713 88.7787499,51.7342029 88.5067467,51.9009797 C88.2068264,52.0895168 87.8835336,52.2369715 87.5453178,52.339489 C87.1616478,52.4624497 86.7607413,52.5212886 86.3583683,52.5136913 C85.6317424,52.5539168 84.9064204,52.4136861 84.2455979,52.1052169 C83.7871657,51.8864043 83.4971895,51.4167952 83.5037549,50.9038216 L83.5037549,45.9000106 C83.5073824,45.8586774 83.5291728,45.8211834 83.5631022,45.797892 C83.5977982,45.7630276 83.6447771,45.743575 83.6936668,45.7438292 L85.2248315,45.7438292 C85.5325304,45.7319277 85.8372087,45.8090243 86.1031737,45.9660873 C86.3130054,46.1011138 86.494503,46.2766556 86.6373015,46.4826872 C86.7624299,46.6667726 86.8585329,46.8694237 86.9221694,47.0833848 C86.9755821,47.2756081 87.01119,47.4197755 87.0289947,47.5098801 C87.0329516,47.5669536 87.0610794,47.619513 87.106146,47.6540476 C87.1444724,47.6804773 87.1904343,47.693165 87.2367106,47.6900895 C87.2824453,47.6862965 87.3249674,47.6647769 87.3554059,47.6300197 C87.3954411,47.5859293 87.4167554,47.5276806 87.4147532,47.4678313 L87.4147532,43.1007597 C87.4152954,43.0465084 87.393846,42.9944029 87.3554059,42.9565923 C87.3253651,42.9213142 87.2826186,42.8996808 87.2367106,42.8965225 C87.1906134,42.895102 87.1451484,42.9076527 87.106146,42.9325644 C87.061357,42.9646654 87.033066,43.0153291 87.0289947,43.0707248 C87.0007655,43.2166574 86.9651101,43.3610172 86.9221694,43.5032271 C86.8588968,43.717331 86.7627679,43.9200374 86.6373015,44.1039247 C86.4962657,44.3098572 86.314351,44.4837568 86.1031737,44.6145177 C85.8357402,44.766778 85.5313171,44.8396461 85.2248315,44.8247618 L83.6936668,44.8247618 C83.644078,44.8291105 83.5954616,44.8089801 83.5631022,44.7706991 C83.5277488,44.7337358 83.5085101,44.6839711 83.5096896,44.6325386 L83.5096896,39.4064694 C83.5018685,39.1086495 83.5671188,38.8135129 83.6996015,38.5474718 C83.8175467,38.305452 83.9954347,38.0984941 84.2159246,37.9467741 C84.4567838,37.7856625 84.7272545,37.6753403 85.0111809,37.6223974 C85.3505452,37.548823 85.6967691,37.5125708 86.0438264,37.5142719 C86.515357,37.5027564 86.9835513,37.5971246 87.4147532,37.7905928 C87.7654992,37.9518534 88.0897428,38.166595 88.3761821,38.4273323 C88.600849,38.636948 88.8000743,38.8728788 88.9696572,39.1301485 C89.1120911,39.3584135 89.2070471,39.5266089 89.2604597,39.6287275 C89.2956024,39.7284538 89.393886,39.7906285 89.4978496,39.7789019 C89.543818,39.7715902 89.5849033,39.7457496 89.6117379,39.707271 C89.6385726,39.6687923 89.6488705,39.6209551 89.6402836,39.5746647 L89.6402836,37.1718742 C89.6402836,37.0637487 89.5571969,37.0156929 89.3910236,37.0156929 L77.8360714,37.0156929 C77.7711756,37.010813 77.707053,37.0324475 77.6580288,37.0757626 C77.6191363,37.1034834 77.5950489,37.1478115 77.5927468,37.1959021 C77.5854651,37.2422901 77.600967,37.2893602 77.6342901,37.3220486 C77.6751704,37.3729454 77.7357072,37.4035821 77.8004627,37.4061463 C77.889484,37.4061463 78.0437873,37.4602091 78.2515039,37.5082649 C78.4736465,37.5736927 78.6854638,37.6707771 78.8805869,37.7965997 C79.1050855,37.9458101 79.2969716,38.1400311 79.444388,38.3672625 C79.6110417,38.6433441 79.6936113,38.9630169 79.6817779,39.2863298 L79.6817779,51.2041705 C79.6964455,51.5334742 79.6137969,51.8597287 79.444388,52.1412587 C79.2933297,52.3621274 79.1019643,52.5517441 78.8805869,52.6999075 C78.6800801,52.8396804 78.457214,52.9433244 78.2218299,53.0062633 C78.014114,53.0603261 77.85981,53.090361 77.7707894,53.1023749 C77.7088883,53.1180376 77.6517928,53.1489969 77.6046161,53.1924796 C77.5708263,53.2242988 77.5516321,53.2689086 77.5516321,53.3156226 C77.5516321,53.3623365 77.5708263,53.4069463 77.6046161,53.4387656 C77.6542358,53.4805331 77.7185181,53.5000524 77.7826587,53.4928284 L90.3880612,53.4928284 C90.4653534,53.4971355 90.540058,53.4639619 90.5892671,53.4034806 C90.6384761,53.3429992 90.6563182,53.2624273 90.6373211,53.1864726 L90.6373211,49.7925311 C90.6458225,49.7437342 90.6340992,49.693547 90.6049063,49.6537712 C90.5757142,49.6139953 90.5316286,49.5881407 90.4830172,49.5822869 C90.3758999,49.5768154 90.2805505,49.6504677 90.2574973,49.7564893 C90.2753013,49.8345799 90.215954,49.9547195 90.138802,50.1169078 Z" id="Shape"></path>
                    <path d="M104.228255,37.0150154 L90.4004138,37.0150154 C90.2290437,37.0150154 90.1463124,37.0630025 90.1463124,37.1709734 L90.1463124,40.4100996 C90.1340799,40.4605932 90.1439628,40.5139896 90.1734146,40.5565339 C90.2028671,40.5990783 90.2490096,40.626611 90.2999554,40.6320397 C90.3533112,40.6387917 90.4071065,40.6235538 90.4493086,40.5897343 C90.4915107,40.5559148 90.5185971,40.5063361 90.5245101,40.4520883 C90.5699593,40.3258359 90.6252893,40.2034782 90.6899714,40.0861869 C90.7883881,39.8785426 90.900938,39.6781112 91.0268035,39.4863488 C91.1812988,39.2480188 91.3552514,39.0232885 91.5468247,38.81453 C91.7645903,38.5775988 92.0062234,38.3644915 92.2677633,38.1787015 C92.5575906,37.9769287 92.8738664,37.8174175 93.2073479,37.7048294 C93.5877406,37.5733248 93.9873893,37.5084175 94.3892142,37.5128812 C94.5965568,37.501513 94.802469,37.5537667 94.9801477,37.6628407 C95.1161155,37.7589141 95.2226237,37.891976 95.2874331,38.0467371 C95.3493752,38.2225912 95.3871565,38.4062687 95.3997105,38.5925899 C95.3997105,38.7965349 95.3997105,39.0004798 95.3997105,39.1924281 L95.3997105,51.1891917 C95.4145651,51.5226377 95.3301379,51.8528952 95.157428,52.136936 C95.0102547,52.3635214 94.8192626,52.5573917 94.5960412,52.7067823 C94.4046435,52.8377612 94.1928879,52.9350957 93.9696515,52.9947046 C93.7628252,53.04869 93.6091822,53.0846803 93.5264515,53.0966771 C93.4636025,53.1051137 93.4053491,53.1346792 93.3609902,53.1806545 C93.3246631,53.2139733 93.3069576,53.2633966 93.3137158,53.3126188 C93.3164673,53.3636073 93.3427483,53.4102919 93.3846274,53.4385849 C93.4336934,53.4809341 93.4979785,53.5005103 93.5619077,53.4925703 L101.049033,53.4925703 C101.114516,53.497628 101.179589,53.4784513 101.232222,53.4385849 C101.266242,53.40446 101.288959,53.3604369 101.297225,53.3126188 C101.297655,53.2652782 101.283161,53.2190383 101.25586,53.1806545 C101.210513,53.1360745 101.152741,53.106753 101.090398,53.0966771 C100.995849,53.0966771 100.848116,53.0426916 100.63538,52.9947046 C100.412257,52.9347747 100.200551,52.8374636 100.00899,52.7067823 C99.7879496,52.5586828 99.6005879,52.364408 99.4594226,52.136936 C99.2846227,51.8538052 99.2000229,51.5228743 99.2171401,51.1891917 L99.2171401,38.610585 C99.2248497,38.4651943 99.244617,38.3207219 99.2762335,38.1787015 C99.3015443,38.0471292 99.3538968,37.9224512 99.4298759,37.8128002 C99.5122944,37.7094097 99.6175727,37.6272063 99.7371612,37.5728649 C99.8912545,37.502609 100.05874,37.4677879 100.227636,37.4708925 C100.629461,37.4664288 101.029109,37.5313362 101.409503,37.6628407 C101.742156,37.7774582 102.058166,37.9368357 102.349087,38.1367128 C102.612528,38.3223762 102.856134,38.5354763 103.075935,38.7725414 C103.267745,38.9810946 103.441713,39.2058458 103.595956,39.4443601 C103.721987,39.6360191 103.834543,39.8364625 103.932788,40.0441983 C104.00961,40.2181514 104.068702,40.338119 104.104159,40.4100996 C104.110072,40.4643474 104.137158,40.5139262 104.17936,40.5477456 C104.221562,40.5815651 104.275358,40.596803 104.328713,40.590051 C104.380727,40.5862517 104.428455,40.5593991 104.459195,40.5166395 C104.489934,40.4738799 104.500568,40.4195509 104.488265,40.3681109 L104.488265,37.1529783 C104.482356,37.0690009 104.423263,37.0150154 104.228255,37.0150154 Z" id="Shape"></path>
                </g>
            </g>
        </g>
    </g>
</svg>