<?xml version="1.0" encoding="UTF-8"?>
<svg width="90px" height="40px" viewBox="0 0 90 40" version="1.1" xmlns="http://www.w3.org/2000/svg" xmlns:xlink="http://www.w3.org/1999/xlink">
    <!-- Generator: Sketch 49.3 (51167) - http://www.bohemiancoding.com/sketch -->
    <title>Page 1</title>
    <desc>Created with Sketch.</desc>
    <defs>
        <polygon id="path-1" points="0.152703704 0.0315875 4.91648148 0.0315875 4.91648148 6.88043125 0.152703704 6.88043125"></polygon>
    </defs>
    <g id="Landing-page" stroke="none" stroke-width="1" fill="none" fill-rule="evenodd">
        <g id="Desktop-HD" transform="translate(-34.000000, -56.000000)">
            <g id="Page-1" transform="translate(34.000000, 56.000000)">
                <g id="Group-3" transform="translate(85.000000, 8.000000)">
                    <mask id="mask-2" fill="white">
                        <use xlink:href="#path-1"></use>
                    </mask>
                    <g id="Clip-2"></g>
                    <path d="M2.2277037,2.46474375 C2.51492593,2.28099375 2.79474074,2.014775 2.79474074,1.5834 C2.79474074,1.19774375 2.56177778,0.9494625 2.2352963,0.9494625 C1.91622222,0.9494625 1.69103704,1.2067125 1.69103704,1.5834 C1.69103704,1.93165 1.91622222,2.272025 2.12640741,2.52905625 L2.2277037,2.46474375 Z M2.42955556,4.51136875 L1.86992593,3.7310875 C1.43474074,3.98811875 1.10048148,4.35605625 1.10048148,4.9062125 C1.10048148,5.53118125 1.49677778,5.92580625 2.00992593,5.92580625 C2.46048148,5.92580625 2.76362963,5.632025 2.95788889,5.2374 C2.78714815,5.02586875 2.60807407,4.76861875 2.42955556,4.51136875 Z M4.83103704,3.2354 C4.60585185,3.90586875 4.36455556,4.5024 4.05381481,5.0899625 C4.34122222,5.44805625 4.62918519,5.82474375 4.91659259,6.192025 C4.67548148,6.41230625 4.44251852,6.6509625 4.20140741,6.8714625 C3.98362963,6.6045875 3.72751852,6.29286875 3.53307407,6.00805625 C3.15974074,6.53130625 2.66233333,6.88043125 1.97881481,6.88043125 C0.844185185,6.88043125 0.152703704,6.0634 0.152703704,4.92480625 C0.152703704,3.9979625 0.665111111,3.4104 1.35696296,2.98799375 C1.06955556,2.620275 0.813259259,2.1613375 0.813259259,1.61118125 C0.813259259,0.71999375 1.3802963,0.0315875 2.26622222,0.0315875 C3.08251852,0.0315875 3.65714815,0.67449375 3.65714815,1.52805625 C3.65714815,2.2532125 3.26862963,2.8132125 2.64733333,3.19886875 L3.18307407,3.94261875 C3.27677778,4.07124375 3.36233333,4.18105625 3.4477037,4.30968125 C3.6027037,3.9515875 3.76603704,3.54799375 3.89048148,3.15315 L4.83103704,3.2354 Z" id="Fill-1" fill="#FEFEFE" mask="url(#mask-2)"></path>
                </g>
                <path d="M17.9202923,24.3489334 C16.8360176,27.3410293 13.9240846,30 9.36950665,30 C3.73086217,30 0,25.933339 0,20.5134698 C0,15.1165192 3.70505602,11 9.42361633,11 C13.9498907,11 16.99356,13.4028442 18,16.8551234 L14.3207501,16.8551234 C13.4477113,14.9643311 11.7253587,13.7880391 9.39760206,13.7880391 C5.63843637,13.7880391 3.46801401,16.7280653 3.46801401,20.5134698 C3.46801401,24.3217929 5.74415835,27.2119609 9.50332405,27.2119609 C11.9648981,27.2119609 13.4737256,25.9084099 14.3746517,24.3489334 L17.9202923,24.3489334 Z" id="Fill-4" fill="#FEFEFE"></path>
                <polygon id="Fill-6" fill="#FEFEFE" points="79.3775663 4.59039479 79.3775663 1 76.1147709 1 76.1147709 4.59039479 74 4.59039479 74 6.89196049 76.1147709 6.89196049 76.1147709 14 79.3775663 14 79.3775663 6.89196049 82 6.89196049 82 4.59039479"></polygon>
                <path d="M62.3610649,10.716128 C62.6279293,8.58950592 64.0936915,7.43531877 66.1193867,7.43531877 C68.1995867,7.43531877 69.5324409,8.87120174 69.7473159,10.716128 L62.3610649,10.716128 Z M66.1474777,5 C61.8812123,5 59,8.05110019 59,12.1518095 C59,13.1848956 59.1748349,14.1414121 59.4972523,15 L62.958732,15 C62.5784556,14.4182719 62.3296198,13.7233014 62.2545708,12.9449101 L72.9737957,12.9721125 C72.9737957,12.9199242 73,12.5880551 73,12.1248086 C72.9737957,8.20343355 70.626941,5 66.1474777,5 Z" id="Fill-8" fill="#FEFEFE"></path>
                <path d="M46.3609056,10.716128 C46.6279836,8.58950592 48.0937678,7.43531877 50.12138,7.43531877 C52.1995148,7.43531877 53.534695,8.87120174 53.7474769,10.716128 L46.3609056,10.716128 Z M50.1475847,5 C45.8812554,5 43,8.05110019 43,12.1518095 C43,13.1848956 43.1748375,14.1414121 43.4972597,15 L46.9587913,15 C46.5782995,14.4182719 46.3296697,13.7233014 46.2546195,12.9449101 L56.974005,12.9721125 C56.974005,12.9199242 57,12.5880551 57,12.1248086 C56.974005,8.20343355 54.6269055,5 50.1475847,5 Z" id="Fill-10" fill="#FEFEFE"></path>
                <path d="M32.6478121,10.6168413 C32.2427633,11.9482539 31.5419062,14.2993721 31,16 L33.8549803,16 L35.7709838,9.76160441 C36.6289508,6.91551403 37.4615511,4.04190034 37.7477446,3.01749577 L37.7731113,3.01749577 C37.7731113,4.66755241 37.7223779,7.82646882 37.7223779,9.99096541 L37.7223779,16 L41,16 L41,0 L35.9530512,0 L32.6478121,10.6168413 Z" id="Fill-12" fill="#FEFEFE"></path>
                <path d="M26.5494426,16.6324282 C24.7473471,16.6324282 23.5995883,17.4806812 22.8252101,18.6463517 C22.8500653,17.5865565 22.8793392,4.21562985 22.8565092,2.67668632 L22.8793392,2.67668632 C23.2320992,3.95010791 23.4896729,5.27563348 24.0272822,7.10385838 L26.3386335,14.9023672 L29.0038496,14.9023672 C28.5671342,13.3302855 28.0694775,11.365965 27.6809996,10.0742028 L24.6832759,0 L20,0 L20.0165701,31 L22.8728953,31 L22.8728953,23.311118 C22.8728953,20.9797769 23.7385934,19.3349581 25.6588893,19.3349581 C27.6040404,19.3349581 28.1663208,21.0856522 28.1663208,23.8421619 L28.1663208,31 L31,31 L31,22.2769579 C31,18.8578939 29.3601078,16.6324282 26.5494426,16.6324282" id="Fill-14" fill="#FEFEFE"></path>
                <path d="M44.7475256,22.3827202 C44.5326505,20.322871 43.1993771,18.719541 41.1193867,18.719541 C39.0936915,18.719541 37.6281389,20.0080999 37.3612746,22.3827202 L44.7475256,22.3827202 Z M37.2547804,24.8716391 C37.4673495,27.3346833 39.013192,29.1081111 41.2801761,29.1081111 C42.8543192,29.1081111 43.8943144,28.3926201 44.4804516,27.2485094 L47.7612267,27.2485094 C46.9080155,29.9959501 44.5867361,32 41.1996766,32 C36.8271267,32 34,28.6792665 34,23.9860502 C34,19.4069074 36.8814219,16 41.1476873,16 C45.6267314,16 47.9740054,19.5770053 48,23.9556756 C48,24.4731691 47.9740054,24.8437395 47.9740054,24.9017887 L37.2547804,24.8716391 Z" id="Fill-16" fill="#FEFEFE"></path>
                <path d="M60.7475256,22.3827202 C60.5345372,20.322871 59.1993771,18.719541 57.121483,18.719541 C55.0934819,18.719541 53.6281389,20.0080999 53.3610649,22.3827202 L60.7475256,22.3827202 Z M53.2545708,24.8716391 C53.4673495,27.3346833 55.013192,29.1081111 57.2799665,29.1081111 C58.8541096,29.1081111 59.8943144,28.3926201 60.4804516,27.2485094 L63.761017,27.2485094 C62.9078059,29.9959501 60.5867361,32 57.1996766,32 C52.826917,32 50,28.6792665 50,23.9860502 C50,19.4069074 52.8812123,16 57.1474777,16 C61.6267314,16 63.9740054,19.5770053 64,23.9556756 C64,24.4731691 63.9740054,24.8437395 63.9740054,24.9017887 L53.2545708,24.8716391 Z" id="Fill-18" fill="#FEFEFE"></path>
                <path d="M71.4089387,16.3113884 L71.4089387,17.2480089 C71.4089387,17.5616478 71.4089387,17.8730363 71.3774931,18.1590554 C71.9132334,16.7796987 73.3632261,16 75.1409521,16 C75.527151,16 75.7922259,16.0253694 76,16.0507387 L76,19.0703064 C75.7344592,18.9919479 75.3196098,18.9665785 74.9625273,18.9665785 C72.1496579,18.9665785 71.6453632,20.7356822 71.6453632,23.5455436 L71.6453632,30 L68.0314456,30 L68.0314456,18.7840828 C68.0314456,17.9239796 68.0314456,17.1440763 68,16.3113884 L71.4089387,16.3113884 Z" id="Fill-20" fill="#FEFEFE"></path>
                <path d="M78.9004363,26.7795311 C79.2536692,28.2714157 80.2643792,29.1889089 81.7784609,29.1889089 C83.0888536,29.1889089 84.1241571,28.4722723 84.1241571,27.3257439 C84.1241571,26.2635257 83.1402221,25.97633 81.7784609,25.5466637 L80.3137644,25.0890442 C78.1691789,24.4283138 76.4539865,23.3965284 76.4539865,20.6438233 C76.4539865,17.8911181 78.598572,16 81.5501785,16 C84.401428,16 86.5460135,17.7182146 86.7719159,20.7022092 L84.0481952,20.7022092 C83.6701706,19.4693417 82.7869893,18.7806583 81.4744149,18.7806583 C80.1124554,18.7806583 79.4303848,19.5254734 79.4303848,20.4429666 C79.4303848,21.4188458 80.1370488,21.7621731 81.4744149,22.163661 L82.9389131,22.5933273 C85.6628322,23.4244815 87,24.4587466 87,27.0385482 C87,30.0200631 84.8042443,32 81.7270924,32 C78.4464498,32 76.505355,30.3072588 76,26.7795311 L78.9004363,26.7795311 Z" id="Fill-22" fill="#FEFEFE"></path>
                <path d="M38,33 L40.650465,33 C43.0105478,35.5250227 45.8426057,37.0454959 49.9349968,37.0454959 C54.0527652,37.0454959 57.0173255,35.5530027 59.3772004,33 L62,33 C60.0330563,37.2463603 55.1013443,40 49.9092036,40 C44.7940266,40 39.9157732,37.1878981 38,33" id="Fill-24" fill="#FEFEFE"></path>
            </g>
        </g>
    </g>
</svg>