<?xml version="1.0" encoding="UTF-8"?>
<svg width="181px" height="229px" viewBox="0 0 181 229" version="1.1" xmlns="http://www.w3.org/2000/svg" xmlns:xlink="http://www.w3.org/1999/xlink">
    <!-- Generator: Sketch 49.3 (51167) - http://www.bohemiancoding.com/sketch -->
    <title>Group 8</title>
    <desc>Created with Sketch.</desc>
    <defs>
        <polygon id="path-1" points="0 0 73 0 73 75 0 75"></polygon>
    </defs>
    <g id="Landing-page" stroke="none" stroke-width="1" fill="none" fill-rule="evenodd">
        <g id="Desktop-HD" transform="translate(-77.000000, -1368.000000)">
            <g id="Group-8" transform="translate(79.000000, 1368.000000)">
                <g id="Page-1" transform="translate(0.000000, 44.000000)">
                    <path d="M63.28597,77.1866438 C64.3978764,75.8217635 64.1881953,73.8183552 62.8171708,72.7110075 C61.4461463,71.6036598 59.4328668,71.8128255 58.3213866,73.1777058 C57.0300579,74.763207 55.3176623,75.6359328 53.5,75.6359328 C51.6814853,75.6359328 49.9699421,74.7627828 48.6786134,73.1777058 C47.5671332,71.8128255 45.5538537,71.6040841 44.1828292,72.7110075 C42.8118047,73.8183552 42.6021236,75.8217635 43.71403,77.1866438 C46.2059108,80.2452145 49.7730464,82 53.5004262,82 C57.2269536,82 60.7940892,80.2452145 63.28597,77.1866438" id="Fill-1" fill="#000000"></path>
                    <path d="M63.28597,77.1866438 C64.3978764,75.8217635 64.1881953,73.8183552 62.8171708,72.7110075 C61.4461463,71.6036598 59.4328668,71.8128255 58.3213866,73.1777058 C57.0300579,74.763207 55.3176623,75.6359328 53.5,75.6359328 C51.6814853,75.6359328 49.9699421,74.7627828 48.6786134,73.1777058 C47.5671332,71.8128255 45.5538537,71.6040841 44.1828292,72.7110075 C42.8118047,73.8183552 42.6021236,75.8217635 43.71403,77.1866438 C46.2059108,80.2452145 49.7730464,82 53.5004262,82 C57.2269536,82 60.7940892,80.2452145 63.28597,77.1866438 Z" id="Stroke-3" stroke="#FFFFFF" stroke-width="4" fill="#ED8C04"></path>
                    <path d="M39,54 C37.3432,54 36,55.4247529 36,57.182146 L36,60.817854 C36,62.5752471 37.3432,64 39,64 C40.6572,64 42,62.5752471 42,60.817854 L42,57.182146 C42,55.4247529 40.6572,54 39,54" id="Fill-5" fill="#000000"></path>
                    <path d="M39,54 C37.3432,54 36,55.4247529 36,57.182146 L36,60.817854 C36,62.5752471 37.3432,64 39,64 C40.6572,64 42,62.5752471 42,60.817854 L42,57.182146 C42,55.4247529 40.6572,54 39,54 Z" id="Stroke-7" stroke="#FFFFFF" stroke-width="4" fill="#ED8C04"></path>
                    <path d="M68,64 C69.6572,64 71,62.5752471 71,60.817854 L71,57.182146 C71,55.4247529 69.6572,54 68,54 C66.3432,54 65,55.4247529 65,57.182146 L65,60.817854 C65,62.5752471 66.3428,64 68,64" id="Fill-9" fill="#000000"></path>
                    <path d="M68,64 C69.6572,64 71,62.5752471 71,60.817854 L71,57.182146 C71,55.4247529 69.6572,54 68,54 C66.3432,54 65,55.4247529 65,57.182146 L65,60.817854 C65,62.5752471 66.3428,64 68,64 Z" id="Stroke-11" stroke="#FFFFFF" stroke-width="4" fill="#ED8C04"></path>
                    <path d="M53.5006296,133.417301 C42.1614358,133.417301 32.22663,125.976614 28.9733693,115.192205 L35.7615237,112.470012 C39.7106825,110.88652 42.262169,107.108106 42.262169,102.84366 L42.262169,98.2219509 C45.865897,99.4275593 49.6618575,100.064659 53.5006296,100.064659 C57.3389819,100.064659 61.1345227,99.4275593 64.7386705,98.2219509 L64.7386705,102.84366 C64.7386705,107.108106 67.2901569,110.88652 71.2393157,112.469592 L78.0274702,115.191784 C74.7742095,125.976614 64.8394036,133.417301 53.5006296,133.417301 M16.2092213,66.3513866 C16.8027074,66.675407 17.4276726,66.9493515 18.0841169,67.1530215 C18.2159094,68.9124103 18.4765564,70.6574917 18.8635395,72.3672254 C20.6167159,80.1129967 24.9935708,87.1429774 31.1878194,92.162769 C32.6929404,93.3822641 34.2937579,94.4671013 35.965928,95.4172806 L35.965928,100.438335 C23.845213,97.7729512 16.5571704,93.6759865 13.7143972,91.8261244 C14.2264574,87.8655008 15.3924434,78.1743446 16.2092213,66.3513866 M53.5006296,6.3125069 C73.5796823,6.3125069 89.9148201,22.6902663 89.9148201,42.8211921 C89.9148201,64.0037114 92.4574924,85.4155698 93.2860225,91.8257036 C90.4352746,93.6801945 83.1480714,97.7746344 71.034072,100.438756 L71.034072,95.4172806 C72.7066618,94.4671013 74.3074793,93.3826849 75.8126003,92.1631898 C82.0068489,87.1433982 86.3841235,80.1129967 88.1364605,72.3676462 C88.7211324,69.7868446 89.0174557,67.1252483 89.0174557,64.4569192 C89.0174557,46.618543 76.1500563,44.0575193 63.7057361,41.5806567 C55.7881113,40.0047392 47.6001859,38.3749586 41.0806532,33.1456057 C40.338166,32.5501656 39.3669307,32.3229305 38.4389266,32.5274421 C37.5100831,32.7319536 36.7239449,33.3459092 36.2987671,34.1984616 C36.2353892,34.3251242 29.7347439,46.8773386 21.1312944,46.8773386 C19.6790583,46.8773386 18.2964959,47.1803187 17.0411092,47.7248413 C17.0696502,46.0937983 17.0864391,44.4572848 17.0864391,42.8220337 C17.0860194,22.6902663 33.4215768,6.3125069 53.5006296,6.3125069 M35.1457924,87.2536493 C30.0470166,83.1217577 26.4449675,77.3382036 25.0032244,70.9701504 C24.5226434,68.8467646 24.2787852,66.6552083 24.2787852,64.4560775 C24.2787852,62.7131002 22.8693607,61.3000345 21.1308746,61.3000345 C18.9000553,61.3000345 17.0855996,59.4808913 17.0855996,57.2443088 C17.0855996,55.0077263 18.8996356,53.1885831 21.1308746,53.1885831 C30.3374639,53.1885831 37.0248852,44.8961852 40.0829754,40.1810568 C47.166194,44.723234 55.2454115,46.3311327 62.4797298,47.77113 C75.7802817,50.4184189 82.7212148,52.363383 82.7212148,64.4560775 C82.7212148,66.6552083 82.4773566,68.8467646 81.9967756,70.9701504 C80.5550325,77.3386244 76.9534031,83.1217577 71.8542076,87.2536493 C66.6076899,91.5054705 60.260243,93.7525731 53.4997901,93.7525731 C46.7389176,93.7525731 40.3923101,91.5054705 35.1457924,87.2536493 M98.2391549,116.499648 L73.577164,106.609451 C73.4441123,106.556009 73.3207142,106.488259 73.1956373,106.422613 C90.2291914,102.536051 98.296237,96.0383899 98.6542594,95.7446675 C99.5054544,95.0448675 99.9310519,93.9495102 99.7753353,92.8566777 C99.739659,92.6067191 96.2102216,67.5515246 96.2102216,42.8207712 C96.2102216,19.2093612 77.049939,0 53.4997901,0 C29.9492216,0 10.7901981,19.209782 10.7901981,42.8207712 C10.7901981,67.5338507 7.26076075,92.6067191 7.22508443,92.8566777 C7.06936779,93.9495102 7.4949653,95.0448675 8.34616033,95.7438259 C8.7041827,96.0379691 16.7708086,102.535631 33.8047825,106.421772 C33.6792858,106.487417 33.5558877,106.555588 33.422836,106.60903 L8.76168453,116.499227 C3.43919727,118.633554 0,123.726145 0,129.47351 L0,147.392681 C0,148.230084 0.331999639,149.032982 0.922127948,149.625055 C1.5130957,150.216708 2.31308472,150.548724 3.14791061,150.548724 L3.14916978,150.548724 L3.59617308,150.548724 L3.59617308,179.843957 C3.59617308,181.586934 5.00559759,183 6.74408369,183 C8.48256979,183 9.8919943,181.586934 9.8919943,179.843957 L9.8919943,150.547041 L17.9825443,150.547041 L17.9825443,179.843957 C17.9825443,181.586934 19.3915491,183 21.1304549,183 C22.868941,183 24.2783655,181.586934 24.2783655,179.843957 L24.2783655,140.179229 C24.2783655,138.436251 22.868941,137.023186 21.1304549,137.023186 C19.3915491,137.023186 17.9825443,138.436251 17.9825443,140.179229 L17.9825443,144.234954 L6.74282453,144.234954 L6.29582122,144.234954 L6.29582122,129.47351 C6.29582122,126.322517 8.18120982,123.53005 11.0995328,122.359789 L23.1153175,117.540722 C27.3293205,130.694688 39.5600025,139.728967 53.5002099,139.728967 C67.4399975,139.728967 79.6710992,130.694688 83.8842628,117.540722 L95.9004672,122.359789 C98.8187902,123.53005 100.704179,126.322517 100.704179,129.47351 L100.704179,144.234954 L89.017036,144.234954 L89.017036,140.179229 C89.017036,138.436251 87.6076115,137.023186 85.8691254,137.023186 C84.1306393,137.023186 82.7212148,138.436251 82.7212148,140.179229 L82.7212148,179.843957 C82.7212148,181.586934 84.1306393,183 85.8691254,183 C87.6076115,183 89.017036,181.586934 89.017036,179.843957 L89.017036,150.547041 L97.107586,150.547041 L97.107586,179.843957 C97.107586,181.586934 98.5170105,183 100.255497,183 C101.993983,183 103.403407,181.586934 103.403407,179.843957 L103.403407,150.547041 L103.852089,150.547041 C105.590156,150.547041 107,149.134396 107,147.390998 L107,129.47351 C107.00042,123.726987 103.561222,118.634396 98.2391549,116.499648" id="Fill-13" fill="#000000"></path>
                    <path d="M53.5006296,133.417301 C42.1614358,133.417301 32.22663,125.976614 28.9733693,115.192205 L35.7615237,112.470012 C39.7106825,110.88652 42.262169,107.108106 42.262169,102.84366 L42.262169,98.2219509 C45.865897,99.4275593 49.6618575,100.064659 53.5006296,100.064659 C57.3389819,100.064659 61.1345227,99.4275593 64.7386705,98.2219509 L64.7386705,102.84366 C64.7386705,107.108106 67.2901569,110.88652 71.2393157,112.469592 L78.0274702,115.191784 C74.7742095,125.976614 64.8394036,133.417301 53.5006296,133.417301 Z M16.2092213,66.3513866 C16.8027074,66.675407 17.4276726,66.9493515 18.0841169,67.1530215 C18.2159094,68.9124103 18.4765564,70.6574917 18.8635395,72.3672254 C20.6167159,80.1129967 24.9935708,87.1429774 31.1878194,92.162769 C32.6929404,93.3822641 34.2937579,94.4671013 35.965928,95.4172806 L35.965928,100.438335 C23.845213,97.7729512 16.5571704,93.6759865 13.7143972,91.8261244 C14.2264574,87.8655008 15.3924434,78.1743446 16.2092213,66.3513866 Z M53.5006296,6.3125069 C73.5796823,6.3125069 89.9148201,22.6902663 89.9148201,42.8211921 C89.9148201,64.0037114 92.4574924,85.4155698 93.2860225,91.8257036 C90.4352746,93.6801945 83.1480714,97.7746344 71.034072,100.438756 L71.034072,95.4172806 C72.7066618,94.4671013 74.3074793,93.3826849 75.8126003,92.1631898 C82.0068489,87.1433982 86.3841235,80.1129967 88.1364605,72.3676462 C88.7211324,69.7868446 89.0174557,67.1252483 89.0174557,64.4569192 C89.0174557,46.618543 76.1500563,44.0575193 63.7057361,41.5806567 C55.7881113,40.0047392 47.6001859,38.3749586 41.0806532,33.1456057 C40.338166,32.5501656 39.3669307,32.3229305 38.4389266,32.5274421 C37.5100831,32.7319536 36.7239449,33.3459092 36.2987671,34.1984616 C36.2353892,34.3251242 29.7347439,46.8773386 21.1312944,46.8773386 C19.6790583,46.8773386 18.2964959,47.1803187 17.0411092,47.7248413 C17.0696502,46.0937983 17.0864391,44.4572848 17.0864391,42.8220337 C17.0860194,22.6902663 33.4215768,6.3125069 53.5006296,6.3125069 Z M35.1457924,87.2536493 C30.0470166,83.1217577 26.4449675,77.3382036 25.0032244,70.9701504 C24.5226434,68.8467646 24.2787852,66.6552083 24.2787852,64.4560775 C24.2787852,62.7131002 22.8693607,61.3000345 21.1308746,61.3000345 C18.9000553,61.3000345 17.0855996,59.4808913 17.0855996,57.2443088 C17.0855996,55.0077263 18.8996356,53.1885831 21.1308746,53.1885831 C30.3374639,53.1885831 37.0248852,44.8961852 40.0829754,40.1810568 C47.166194,44.723234 55.2454115,46.3311327 62.4797298,47.77113 C75.7802817,50.4184189 82.7212148,52.363383 82.7212148,64.4560775 C82.7212148,66.6552083 82.4773566,68.8467646 81.9967756,70.9701504 C80.5550325,77.3386244 76.9534031,83.1217577 71.8542076,87.2536493 C66.6076899,91.5054705 60.260243,93.7525731 53.4997901,93.7525731 C46.7389176,93.7525731 40.3923101,91.5054705 35.1457924,87.2536493 Z M98.2391549,116.499648 L73.577164,106.609451 C73.4441123,106.556009 73.3207142,106.488259 73.1956373,106.422613 C90.2291914,102.536051 98.296237,96.0383899 98.6542594,95.7446675 C99.5054544,95.0448675 99.9310519,93.9495102 99.7753353,92.8566777 C99.739659,92.6067191 96.2102216,67.5515246 96.2102216,42.8207712 C96.2102216,19.2093612 77.049939,0 53.4997901,0 C29.9492216,0 10.7901981,19.209782 10.7901981,42.8207712 C10.7901981,67.5338507 7.26076075,92.6067191 7.22508443,92.8566777 C7.06936779,93.9495102 7.4949653,95.0448675 8.34616033,95.7438259 C8.7041827,96.0379691 16.7708086,102.535631 33.8047825,106.421772 C33.6792858,106.487417 33.5558877,106.555588 33.422836,106.60903 L8.76168453,116.499227 C3.43919727,118.633554 0,123.726145 0,129.47351 L0,147.392681 C0,148.230084 0.331999639,149.032982 0.922127948,149.625055 C1.5130957,150.216708 2.31308472,150.548724 3.14791061,150.548724 L3.14916978,150.548724 L3.59617308,150.548724 L3.59617308,179.843957 C3.59617308,181.586934 5.00559759,183 6.74408369,183 C8.48256979,183 9.8919943,181.586934 9.8919943,179.843957 L9.8919943,150.547041 L17.9825443,150.547041 L17.9825443,179.843957 C17.9825443,181.586934 19.3915491,183 21.1304549,183 C22.868941,183 24.2783655,181.586934 24.2783655,179.843957 L24.2783655,140.179229 C24.2783655,138.436251 22.868941,137.023186 21.1304549,137.023186 C19.3915491,137.023186 17.9825443,138.436251 17.9825443,140.179229 L17.9825443,144.234954 L6.74282453,144.234954 L6.29582122,144.234954 L6.29582122,129.47351 C6.29582122,126.322517 8.18120982,123.53005 11.0995328,122.359789 L23.1153175,117.540722 C27.3293205,130.694688 39.5600025,139.728967 53.5002099,139.728967 C67.4399975,139.728967 79.6710992,130.694688 83.8842628,117.540722 L95.9004672,122.359789 C98.8187902,123.53005 100.704179,126.322517 100.704179,129.47351 L100.704179,144.234954 L89.017036,144.234954 L89.017036,140.179229 C89.017036,138.436251 87.6076115,137.023186 85.8691254,137.023186 C84.1306393,137.023186 82.7212148,138.436251 82.7212148,140.179229 L82.7212148,179.843957 C82.7212148,181.586934 84.1306393,183 85.8691254,183 C87.6076115,183 89.017036,181.586934 89.017036,179.843957 L89.017036,150.547041 L97.107586,150.547041 L97.107586,179.843957 C97.107586,181.586934 98.5170105,183 100.255497,183 C101.993983,183 103.403407,181.586934 103.403407,179.843957 L103.403407,150.547041 L103.852089,150.547041 C105.590156,150.547041 107,149.134396 107,147.390998 L107,129.47351 C107.00042,123.726987 103.561222,118.634396 98.2391549,116.499648 Z" id="Stroke-15" stroke="#FFFFFF" stroke-width="4" fill="#ED8C04"></path>
                </g>
                <g id="Page-1" transform="translate(106.000000, 0.000000)">
                    <mask id="mask-2" fill="white">
                        <use xlink:href="#path-1"></use>
                    </mask>
                    <g id="Clip-2"></g>
                    <path d="M66.9547517,53.3035162 C57.919595,70.2093132 36.9496906,76.562504 20.2052417,67.4632745 C20.1599971,67.4394649 20.1108181,67.4374808 20.0636063,67.4196236 C19.9986901,67.3968061 19.9367246,67.3700203 19.8688577,67.3600996 C19.8039415,67.351171 19.741976,67.3600996 19.6780434,67.3640679 C19.6160779,67.3690282 19.5560796,67.3680361 19.4950977,67.3829171 C19.4272307,67.4007743 19.3672324,67.4364887 19.3042833,67.4682348 C19.2610059,67.4890682 19.2128105,67.4979968 19.1724837,67.5267667 C16.162732,69.6696293 12.7605322,71.2559429 9.03080065,72.2718185 C11.1464791,70.0158603 13.006427,67.4176394 14.4916313,64.6081085 C14.5073685,64.5773544 14.5073685,64.5446163 14.5191715,64.5128701 C14.5447445,64.45037 14.5634325,64.3878698 14.5762191,64.3214014 C14.588022,64.2598933 14.5949071,64.2013614 14.5939235,64.1388613 C14.5939235,64.074377 14.5870384,64.0128689 14.5742519,63.9493766 C14.5614654,63.8878686 14.5457281,63.8303287 14.5221222,63.7727889 C14.4994999,63.7132649 14.4699925,63.6606854 14.4355673,63.6081059 C14.3991748,63.549574 14.3588481,63.5009628 14.3106527,63.4513595 C14.2880304,63.428542 14.2762275,63.3977879 14.2506544,63.3769546 C1.79165919,52.9632376 -1.65676879,34.9036678 6.05153985,20.434385 C10.4274828,12.1873402 17.7108853,6.16450741 26.5611292,3.4760085 C35.3749807,0.797430262 44.6924245,1.74882157 52.7971155,6.15557881 C69.5887763,15.2220701 75.9397459,36.3739097 66.9547517,53.3035162 M25.9936041,1.57620208 C16.6397678,4.41747915 8.94227854,10.7825747 4.31749007,19.4958905 C-3.69966238,34.5465241 -0.289593978,53.2687939 12.3720185,64.360092 C10.4658424,67.7727991 7.98820691,70.8382831 5.16041728,73.2509876 C5.12795917,73.2787655 5.11320548,73.316464 5.08468169,73.347218 C5.03943706,73.3968213 4.99714316,73.4464246 4.9627179,73.5019803 C4.93025979,73.5585281 4.90665389,73.6150758 4.88599873,73.6745998 C4.86436,73.7351158 4.84567199,73.7906715 4.8358362,73.8541638 C4.82501684,73.9216242 4.82698399,73.9890847 4.82993473,74.0565452 C4.83190189,74.0972199 4.82009894,74.1349184 4.82698399,74.1755931 C4.83091831,74.1994027 4.84468842,74.218252 4.85058989,74.2410695 C4.86337642,74.2926569 4.883048,74.3402761 4.90370316,74.3888873 C4.93321053,74.458332 4.96665221,74.5248004 5.00992969,74.5823402 C5.02468337,74.6041657 5.02861769,74.6289673 5.04533853,74.6488086 C5.0610758,74.6666658 5.08271453,74.6716261 5.0984518,74.6894833 C5.16533517,74.7579359 5.24008717,74.8144837 5.32369139,74.8611108 C5.35713308,74.87996 5.38565687,74.9037696 5.42204929,74.9186506 C5.53909519,74.9682539 5.66400972,75 5.79580931,75 L5.79679289,75 L5.79777647,75 C5.85187331,75 5.90597016,74.9950397 5.96105058,74.985119 C11.1248403,74.0962279 15.7752019,72.2390803 19.8078758,69.4801447 C25.1359232,72.2628899 30.8465829,73.5982107 36.4874085,73.5982107 C49.485405,73.5982107 62.0929207,66.5783516 68.6868343,54.2400265 C78.1832896,36.3441477 71.4713465,13.98794 53.7265977,4.40656643 C45.1625753,-0.250191451 35.3120316,-1.25416226 25.9936041,1.57620208" id="Fill-1" fill="#ED8C04" mask="url(#mask-2)"></path>
                </g>
            </g>
        </g>
    </g>
</svg>