<?xml version="1.0" encoding="UTF-8"?>
<svg width="76px" height="86px" viewBox="0 0 76 86" version="1.1" xmlns="http://www.w3.org/2000/svg" xmlns:xlink="http://www.w3.org/1999/xlink">
    <!-- Generator: Sketch 49.3 (51167) - http://www.bohemiancoding.com/sketch -->
    <title>noun_650288_cc</title>
    <desc>Created with Sketch.</desc>
    <defs></defs>
    <g id="Landing-page" stroke="none" stroke-width="1" fill="none" fill-rule="evenodd">
        <g id="Desktop-HD" transform="translate(-599.000000, -916.000000)" fill="#ED8C04" fill-rule="nonzero">
            <g id="noun_650288_cc" transform="translate(599.000000, 915.000000)">
                <g id="Group" transform="translate(0.000000, 0.637820)">
                    <path d="M30.8125,0.36218 C30.2602153,0.413956695 29.8544733,0.90364525 29.90625,1.45593 C29.9580267,2.00821475 30.4477153,2.4139567 31,2.36218 L37,2.36218 L37,10.39343 C16.48501,10.921668 0,27.720131 0,48.36218 C0,69.33718 17.025024,86.36218 38,86.36218 C58.974976,86.36218 76,69.33718 76,48.36218 C76,27.720131 59.51499,10.921668 39,10.39343 L39,2.36218 L45,2.36218 C45.3606359,2.36728029 45.6960814,2.1778047 45.8778877,1.86630715 C46.0596941,1.5548096 46.0596941,1.1695504 45.8778877,0.85805285 C45.6960814,0.546555296 45.3606359,0.35707971 45,0.36218 L31,0.36218 C30.9376379,0.356308283 30.8748621,0.356308283 30.8125,0.36218 Z M38,12.36218 C47.580242,12.36218 56.267864,16.108324 62.71875,22.20593 L59.28125,25.64343 C59.0299264,25.9001918 58.9347078,26.2715463 59.0314741,26.6175614 C59.1282405,26.9635765 59.4022847,27.2316633 59.7503427,27.3208024 C60.0984007,27.4099416 60.4675732,27.3065854 60.71875,27.04968 L64.15625,23.61218 C70.048277,29.837751 73.716245,38.172205 73.96875,47.36218 L69,47.36218 C68.93768,47.35218 68.874816,47.35218 68.8125,47.36218 C68.288901,47.41118 67.857163,47.93243 67.90625,48.45593 C67.95534,48.97953 68.476401,49.41128 69,49.36218 L73.96875,49.36218 C73.716468,58.544039 70.039192,66.857154 64.15625,73.08093 L60.71875,69.64343 C60.5028835,69.4114852 60.1898737,69.2955556 59.875,69.33093 C59.4857456,69.3688128 59.1542886,69.6301166 59.0265887,69.9997743 C58.8988888,70.3694319 58.9983798,70.7796087 59.28125,71.04968 L62.75,74.51843 C56.524428,80.410449 48.189973,84.078425 39,84.33093 L39,79.36218 C39.02258,78.78398 38.449075,78.25823 37.875,78.33093 C37.383789,78.39293 36.980764,78.86748 37,79.36218 L37,84.33093 C17.572484,83.797138 2,67.91901 2,48.36218 C2,28.46808 18.105904,12.36218 38,12.36218 Z M37.875,18.33093 C37.383772,18.39253 36.980739,18.86749 37,19.36218 L37,41.45593 C33.617271,41.944871 31,44.848204 31,48.36218 C31,52.21628 34.145852,55.36218 38,55.36218 C41.854149,55.36218 45,52.21628 45,48.36218 C45,44.848204 42.38273,41.944871 39,41.45593 L39,19.36218 C39.02261,18.78394 38.449092,18.25822 37.875,18.33093 Z M38,43.36218 C40.773269,43.36218 43,45.58888 43,48.36218 C43,51.13548 40.773269,53.36218 38,53.36218 C35.226732,53.36218 33,51.13548 33,48.36218 C33,45.58888 35.226732,43.36218 38,43.36218 Z" id="Shape"></path>
                </g>
            </g>
        </g>
    </g>
</svg>